<!-- <svg width="238" height="85" viewBox="0 0 238 85" fill="none" xmlns="http://www.w3.org/2000/svg">
<rect x="8" y="8" width="229.532" height="59.9415" rx="13.1579" fill="white"/>
<g filter="url(#filter0_d_860_10374)">
<rect x="20" y="15" width="45" height="45" rx="13" fill="#114185"/>
<path d="M35.5699 36.0938C35.6756 35.7741 35.7759 35.472 35.8739 35.1725C35.8859 35.1359 35.9104 35.1275 35.9423 35.1216C36.4715 35.0229 37.0029 34.9388 37.5435 34.9655C37.925 34.9834 38.2918 35.0613 38.6203 35.2661C39.0658 35.5433 39.2695 35.961 39.2984 36.4731C39.3152 36.7675 39.2673 37.0583 39.2252 37.3465C39.1378 37.9339 39.0478 38.5205 38.9633 39.1079C38.961 39.1326 38.9521 39.1561 38.9376 39.1761C38.9231 39.1961 38.9034 39.2119 38.8807 39.2217C38.5362 39.4108 38.1624 39.5143 37.7783 39.5772C37.3031 39.6595 36.8183 39.6718 36.3395 39.6138C35.9404 39.5636 35.5685 39.4397 35.2788 39.1463C35.1531 39.0176 35.0555 38.8642 34.9922 38.6957C34.929 38.5273 34.9014 38.3476 34.9113 38.1679C34.9211 37.9883 34.9682 37.8126 35.0496 37.6521C35.1309 37.4917 35.2447 37.3498 35.3838 37.2357C35.6808 36.9913 36.0319 36.8699 36.4016 36.7913C36.9616 36.6728 37.5267 36.6889 38.0921 36.732C38.1627 36.7371 38.1781 36.7156 38.1814 36.6527C38.2066 36.2116 37.9418 35.8948 37.4769 35.8096C37.1544 35.7504 36.8376 35.8016 36.5209 35.8535C36.1977 35.9067 35.8796 35.9871 35.5699 36.0938ZM37.5479 37.4244C37.3466 37.4231 37.1455 37.4379 36.9466 37.4686C36.7315 37.5052 36.5227 37.5619 36.3493 37.7045C36.1533 37.8658 36.101 38.0824 36.1398 38.3208C36.1763 38.5385 36.3285 38.6577 36.5256 38.7279C36.616 38.7597 36.71 38.78 36.8054 38.7883C37.158 38.8223 37.5004 38.7608 37.8405 38.6767C37.8636 38.6737 37.8847 38.6623 37.9 38.6447C37.9152 38.6271 37.9234 38.6045 37.9232 38.5812C37.9696 38.2356 38.0157 37.8896 38.0669 37.5447C38.0757 37.4851 38.0559 37.4738 38.0062 37.4642C37.8547 37.4392 37.7015 37.4259 37.5479 37.4244Z" fill="white"/>
<path d="M51.8992 38.5023C51.8406 38.68 51.7894 38.8391 51.7353 38.9982C51.6921 39.1288 51.6461 39.2583 51.6051 39.39C51.6012 39.4101 51.5914 39.4286 51.5769 39.4432C51.5625 39.4578 51.544 39.4678 51.5239 39.4719C50.9643 39.6211 50.3974 39.7019 49.8195 39.6292C49.1612 39.5461 48.6169 39.2634 48.2834 38.6596C48.0782 38.2858 48.0131 37.8787 48.0409 37.4592C48.0939 36.6611 48.4264 35.9995 49.0445 35.4871C49.4201 35.1754 49.8583 35.0152 50.3403 34.9677C50.6728 34.9351 51.0034 34.9414 51.3279 35.0317C51.9884 35.2146 52.4288 35.7285 52.5132 36.4087C52.5619 36.7997 52.5132 37.1838 52.45 37.5682C52.4423 37.6161 52.4182 37.6175 52.3816 37.6175C52.2042 37.6175 52.0264 37.6175 51.849 37.6175C50.9956 37.6175 50.1422 37.6175 49.2888 37.6175C49.2201 37.6175 49.1999 37.6344 49.1988 37.705C49.1893 38.2799 49.5068 38.6596 50.0719 38.7565C50.4896 38.8296 50.8959 38.7664 51.3015 38.6778C51.5044 38.6325 51.704 38.5738 51.8992 38.5023ZM50.4069 36.871H51.2262C51.4764 36.871 51.4764 36.871 51.4848 36.6209C51.502 36.1143 51.1922 35.784 50.6885 35.7559C50.0861 35.7219 49.5181 36.1582 49.3718 36.8056C49.3598 36.8593 49.3718 36.8725 49.4267 36.8721C49.7526 36.8696 50.0777 36.871 50.4069 36.871Z" fill="white"/>
<path d="M54.0018 39.6449C53.4647 39.6413 52.9317 39.5525 52.4225 39.3816C52.3717 39.364 52.3581 39.3494 52.3764 39.2942C52.46 39.0408 52.5401 38.7863 52.6167 38.5305C52.6357 38.4676 52.658 38.4727 52.7085 38.4968C53.1975 38.736 53.7499 38.8139 54.286 38.7192C54.4117 38.7001 54.5311 38.6512 54.6342 38.5766C54.6819 38.5435 54.7215 38.5002 54.7502 38.4498C54.779 38.3994 54.796 38.3432 54.8002 38.2853C54.8043 38.2275 54.7954 38.1694 54.7742 38.1154C54.7529 38.0615 54.7198 38.013 54.6773 37.9734C54.5844 37.8874 54.48 37.8145 54.3672 37.7569C54.0874 37.6004 53.8028 37.4537 53.5369 37.2723C52.8226 36.7833 52.9097 35.7654 53.613 35.3188C53.9246 35.121 54.2659 35.0219 54.6283 34.9842C55.2325 34.9216 55.8166 35.0252 56.3923 35.1985C56.445 35.2142 56.4585 35.2285 56.4384 35.2845C56.3517 35.5248 56.268 35.7665 56.1893 36.0097C56.1685 36.0738 56.1436 36.069 56.0942 36.0463C55.7341 35.8764 55.3399 35.7913 54.9418 35.7976C54.7487 35.8024 54.5603 35.8342 54.3968 35.9483C54.3273 35.9926 54.2743 36.0585 54.2459 36.1359C54.2175 36.2133 54.2152 36.2978 54.2395 36.3766C54.271 36.4649 54.3305 36.5406 54.4089 36.592C54.5782 36.7193 54.7721 36.8053 54.9575 36.9069C55.1844 37.0254 55.4009 37.1627 55.6049 37.3173C56.2076 37.7957 56.1465 38.7071 55.5683 39.1702C55.1952 39.4683 54.7585 39.5875 54.294 39.6299C54.1774 39.6402 54.0614 39.642 54.0018 39.6449Z" fill="white"/>
<path d="M57.947 39.6454C57.4171 39.6403 56.8913 39.5523 56.3886 39.3846C56.3304 39.3652 56.3154 39.348 56.337 39.2866C56.4197 39.0386 56.498 38.7892 56.574 38.539C56.5923 38.4783 56.6106 38.4695 56.6699 38.498C57.1568 38.735 57.7059 38.813 58.2396 38.7211C58.354 38.7032 58.4636 38.6624 58.5619 38.6012C58.8044 38.4464 58.834 38.1623 58.6292 37.9633C58.5433 37.8861 58.4477 37.8203 58.345 37.7676C58.0524 37.6016 57.7484 37.4531 57.473 37.2556C56.8377 36.7966 56.9167 35.9659 57.3052 35.549C57.567 35.2685 57.8977 35.1178 58.2645 35.0369C58.7513 34.9272 59.2378 34.9536 59.7239 35.0435C59.9287 35.0801 60.1291 35.1357 60.3295 35.1898C60.3961 35.2085 60.4202 35.2282 60.3921 35.3043C60.3076 35.5336 60.2308 35.7655 60.1562 35.9992C60.1353 36.0632 60.1145 36.0724 60.0516 36.0449C59.6963 35.8781 59.308 35.7933 58.9155 35.7966C58.7327 35.7999 58.556 35.827 58.3966 35.9228C58.2455 36.0131 58.1691 36.1444 58.1917 36.3251C58.206 36.44 58.2751 36.5201 58.3622 36.5859C58.545 36.7245 58.7554 36.8159 58.9543 36.9257C59.1811 37.0511 59.4049 37.1817 59.6028 37.3503C60.1573 37.8258 60.0947 38.7072 59.5384 39.1608C59.2396 39.4047 58.8929 39.5313 58.5187 39.5967C58.3297 39.6274 58.1386 39.6437 57.947 39.6454Z" fill="white"/>
<path d="M43.4575 38.5692C43.4388 38.6789 43.3916 38.7773 43.3569 38.8808C43.2907 39.078 43.2201 39.2733 43.1546 39.4708C43.1498 39.4905 43.1389 39.5083 43.1233 39.5214C43.1078 39.5345 43.0886 39.5424 43.0683 39.5439C42.6294 39.6171 42.1857 39.6635 41.7399 39.6299C41.0746 39.5798 40.504 39.3373 40.112 38.7704C39.8354 38.371 39.7378 37.9171 39.7623 37.4391C39.8033 36.6417 40.1412 35.9892 40.7641 35.4896C41.1211 35.2036 41.5409 35.0632 41.9882 35.0046C42.5419 34.9262 43.1058 34.9599 43.6462 35.1038C43.7493 35.1319 43.8488 35.1714 43.9501 35.2043C43.9867 35.216 43.9962 35.2318 43.9827 35.2716C43.8964 35.524 43.8108 35.7771 43.7299 36.0313C43.712 36.0873 43.6868 36.0759 43.6506 36.0617C43.3923 35.9558 43.1188 35.8917 42.8404 35.8718C42.238 35.8378 41.7143 36.0035 41.3383 36.5049C40.9861 36.9749 40.9316 37.7554 41.3087 38.2272C41.5431 38.5198 41.8525 38.6749 42.2198 38.7177C42.6159 38.7638 42.9988 38.6874 43.377 38.5787C43.4011 38.5718 43.4256 38.567 43.4501 38.5612L43.4575 38.5692Z" fill="white"/>
<path d="M47.6275 38.5636C47.5434 38.8057 47.4468 39.0453 47.3777 39.2925C47.3276 39.4729 47.2431 39.5584 47.0464 39.5782C46.4977 39.6331 45.9491 39.6945 45.4005 39.5493C44.5377 39.32 43.9741 38.6316 43.9273 37.737C43.876 36.7649 44.2484 35.988 45.0314 35.4134C45.3606 35.1724 45.7447 35.0583 46.1455 35.006C46.6991 34.9278 47.2627 34.9613 47.8031 35.1047C47.9033 35.1322 47.9995 35.1731 48.0993 35.202C48.1516 35.2174 48.1531 35.2411 48.1359 35.2869C48.0522 35.5316 47.9691 35.7762 47.8912 36.0228C47.8726 36.0816 47.8503 36.0794 47.8024 36.0612C47.4191 35.9149 47.027 35.8355 46.6133 35.8783C45.9107 35.9536 45.376 36.4181 45.241 37.1017C45.1437 37.5951 45.233 38.0464 45.6262 38.3957C45.9396 38.6737 46.3211 38.7512 46.7274 38.7275C47.0141 38.7086 47.2974 38.6545 47.5708 38.5665C47.5873 38.5636 47.6019 38.5501 47.6275 38.5636Z" fill="white"/>
<path d="M33.6931 37.5561L29.137 33V33.6993L32.9938 37.5561L32.9953 37.5576L29.6545 40.8983L29.6505 40.8943L26.312 37.5561L26.309 37.5532L27.948 35.9143H27.2366L25.5962 37.5547L25.5977 37.5561L29.649 41.6075L29.6505 41.6061L33.6968 37.5598L33.6931 37.5561Z" fill="white"/>
<path d="M29.1353 34.1812V34.8805L31.813 37.5581L29.6558 39.7153L27.4968 37.5566L27.4938 37.5537L29.1328 35.9148H28.4214L26.781 37.5552L26.7825 37.5566L29.2985 40.0726L29.6503 40.4245L30.008 40.0671L32.5145 37.5603L29.1353 34.1812Z" fill="white"/>
<path d="M31.3337 37.5554L29.9977 36.2178L29.6421 35.8623L29.2925 36.212L27.9495 37.5539L29.2932 38.8976L29.6451 39.2495L30.002 38.8922L31.3374 37.559L31.3337 37.5554ZM29.6513 38.5429L28.6638 37.5554L28.6608 37.5524L29.6458 36.5675L30.6333 37.555L29.6513 38.5429Z" fill="white"/>
</g>
<defs>
<filter id="filter0_d_860_10374" x="0" y="0" width="85" height="85" filterUnits="userSpaceOnUse" color-interpolation-filters="sRGB">
<feFlood flood-opacity="0" result="BackgroundImageFix"/>
<feColorMatrix in="SourceAlpha" type="matrix" values="0 0 0 0 0 0 0 0 0 0 0 0 0 0 0 0 0 0 127 0" result="hardAlpha"/>
<feOffset dy="5"/>
<feGaussianBlur stdDeviation="10"/>
<feColorMatrix type="matrix" values="0 0 0 0 0 0 0 0 0 0 0 0 0 0 0 0 0 0 0.08 0"/>
<feBlend mode="normal" in2="BackgroundImageFix" result="effect1_dropShadow_860_10374"/>
<feBlend mode="normal" in="SourceGraphic" in2="effect1_dropShadow_860_10374" result="shape"/>
</filter>
</defs>
</svg> -->


<!-- <svg width="45" height="45" viewBox="0 0 45 45" fill="none" xmlns="http://www.w3.org/2000/svg">
<rect width="45" height="45" rx="13" fill="#114185"/>
</svg> -->

<!-- <svg width="45" height="45" viewBox="0 0 45 45" fill="none" xmlns="http://www.w3.org/2000/svg">
<rect width="45" height="45" rx="13" fill="#114185"/>
</svg> -->


<svg width="36" height="9" viewBox="0 0 36 9" fill="none" xmlns="http://www.w3.org/2000/svg">
<path d="M10.5699 3.09379C10.6756 2.77413 10.7759 2.47202 10.8739 2.17247C10.8859 2.1359 10.9104 2.12748 10.9423 2.12163C11.4715 2.02288 12.0029 1.93876 12.5435 1.96546C12.925 1.98338 13.2918 2.06128 13.6203 2.2661C14.0658 2.54334 14.2695 2.96102 14.2984 3.47307C14.3152 3.7675 14.2673 4.05827 14.2252 4.34648C14.1378 4.93387 14.0478 5.52053 13.9633 6.10792C13.961 6.13256 13.9521 6.15611 13.9376 6.17612C13.9231 6.19614 13.9034 6.21187 13.8807 6.22167C13.5362 6.41076 13.1624 6.51427 12.7783 6.57718C12.3031 6.65952 11.8183 6.67185 11.3395 6.61375C10.9404 6.56364 10.5685 6.43966 10.2788 6.14633C10.1531 6.01761 10.0555 5.86416 9.99223 5.69574C9.92896 5.52731 9.90139 5.34757 9.91126 5.16792C9.92113 4.98827 9.96823 4.81263 10.0496 4.65214C10.1309 4.49166 10.2447 4.34983 10.3838 4.23566C10.6808 3.99134 11.0319 3.86991 11.4016 3.79127C11.9616 3.67277 12.5267 3.68886 13.0921 3.73202C13.1627 3.73714 13.1781 3.71556 13.1814 3.65265C13.2066 3.21156 12.9418 2.89482 12.4769 2.8096C12.1544 2.75035 11.8376 2.80156 11.5209 2.85349C11.1977 2.90667 10.8796 2.98706 10.5699 3.09379ZM12.5479 4.42438C12.3466 4.42307 12.1455 4.43787 11.9466 4.46864C11.7315 4.50521 11.5227 4.5619 11.3493 4.70455C11.1533 4.86584 11.101 5.08236 11.1398 5.32083C11.1763 5.53845 11.3285 5.65769 11.5256 5.72791C11.616 5.7597 11.71 5.77997 11.8054 5.78826C12.158 5.82227 12.5004 5.76083 12.8405 5.6767C12.8636 5.67366 12.8847 5.66227 12.9 5.64467C12.9152 5.62708 12.9234 5.60451 12.9232 5.58124C12.9696 5.23561 13.0157 4.88962 13.0669 4.54471C13.0757 4.4851 13.0559 4.47376 13.0062 4.46425C12.8547 4.43923 12.7015 4.4259 12.5479 4.42438Z" fill="white"/>
<path d="M26.8992 5.50229C26.8406 5.68004 26.7894 5.83914 26.7353 5.99824C26.6921 6.12881 26.6461 6.25829 26.6051 6.38996C26.6012 6.41011 26.5914 6.42865 26.5769 6.44323C26.5625 6.45781 26.544 6.46778 26.5239 6.47188C25.9643 6.62111 25.3974 6.70194 24.8195 6.62916C24.1612 6.54613 23.6169 6.26341 23.2834 5.65956C23.0782 5.28576 23.0131 4.87868 23.0409 4.45917C23.0939 3.66111 23.4264 2.99947 24.0445 2.48706C24.4201 2.17544 24.8583 2.01524 25.3403 1.96769C25.6728 1.93514 26.0034 1.94136 26.3279 2.0317C26.9884 2.21457 27.4288 2.72845 27.5132 3.40874C27.5619 3.79973 27.5132 4.18376 27.45 4.56816C27.4423 4.61608 27.4182 4.61754 27.3816 4.61754C27.2042 4.61754 27.0264 4.61754 26.849 4.61754C25.9956 4.61754 25.1422 4.61754 24.2888 4.61754C24.2201 4.61754 24.1999 4.63436 24.1988 4.70495C24.1893 5.27991 24.5068 5.65956 25.0719 5.75648C25.4896 5.82963 25.8959 5.76636 26.3015 5.67785C26.5044 5.63249 26.704 5.57384 26.8992 5.50229ZM25.4069 3.87105H26.2262C26.4764 3.87105 26.4764 3.87105 26.4848 3.62088C26.502 3.11432 26.1922 2.78405 25.6885 2.75588C25.0861 2.72187 24.5181 3.1582 24.3718 3.80558C24.3598 3.85934 24.3718 3.87251 24.4267 3.87215C24.7526 3.86959 25.0777 3.87105 25.4069 3.87105Z" fill="white"/>
<path d="M29.0018 6.64492C28.4647 6.64135 27.9317 6.55246 27.4225 6.38158C27.3717 6.36402 27.3581 6.34939 27.3764 6.29417C27.46 6.04082 27.5401 5.78627 27.6167 5.53049C27.6357 5.46758 27.658 5.4727 27.7085 5.49684C28.1975 5.73604 28.7499 5.81391 29.286 5.71921C29.4117 5.70005 29.5311 5.65115 29.6342 5.57657C29.6819 5.54352 29.7215 5.5002 29.7502 5.4498C29.779 5.3994 29.796 5.3432 29.8002 5.28534C29.8043 5.22748 29.7954 5.16943 29.7742 5.11545C29.7529 5.06147 29.7198 5.01295 29.6773 4.97345C29.5844 4.88739 29.48 4.81454 29.3672 4.75693C29.0874 4.60039 28.8028 4.45372 28.5369 4.27231C27.8226 3.78331 27.9097 2.76543 28.613 2.31885C28.9246 2.12098 29.2659 2.02186 29.6283 1.98419C30.2325 1.92165 30.8166 2.02515 31.3923 2.19852C31.445 2.21424 31.4585 2.22851 31.4384 2.28447C31.3517 2.52477 31.268 2.76652 31.1893 3.00975C31.1685 3.07375 31.1436 3.069 31.0942 3.04632C30.7341 2.87642 30.3399 2.79133 29.9418 2.79761C29.7487 2.80237 29.5603 2.83419 29.3968 2.9483C29.3273 2.99262 29.2743 3.05853 29.2459 3.1359C29.2175 3.21327 29.2152 3.29783 29.2395 3.37659C29.271 3.46492 29.3305 3.54055 29.4089 3.59202C29.5782 3.7193 29.7721 3.80525 29.9575 3.90693C30.1844 4.02539 30.4009 4.16266 30.6049 4.3173C31.2076 4.7957 31.1465 5.70714 30.5683 6.17018C30.1952 6.46826 29.7585 6.5875 29.294 6.62992C29.1774 6.64017 29.0614 6.64199 29.0018 6.64492Z" fill="white"/>
<path d="M32.947 6.64537C32.4171 6.64025 31.8913 6.55226 31.3886 6.38459C31.3304 6.36521 31.3154 6.34802 31.337 6.28657C31.4197 6.03859 31.498 5.78915 31.574 5.53898C31.5923 5.47827 31.6106 5.46949 31.6699 5.49802C32.1568 5.73501 32.7059 5.81305 33.2396 5.72112C33.354 5.70317 33.4636 5.66237 33.5619 5.60116C33.8044 5.44645 33.834 5.16226 33.6292 4.96329C33.5433 4.8861 33.4477 4.82033 33.345 4.76762C33.0524 4.60157 32.7484 4.45308 32.473 4.25557C31.8377 3.79656 31.9167 2.96594 32.3052 2.54899C32.567 2.26846 32.8977 2.11777 33.2645 2.03694C33.7513 1.92722 34.2378 1.95355 34.7239 2.04353C34.9287 2.0801 35.1291 2.13569 35.3295 2.18983C35.3961 2.20848 35.4202 2.22823 35.3921 2.3043C35.3076 2.53363 35.2308 2.76551 35.1562 2.99923C35.1353 3.06323 35.1145 3.07238 35.0516 3.04494C34.6963 2.87812 34.308 2.79325 33.9155 2.7966C33.7327 2.79989 33.556 2.82696 33.3966 2.92279C33.2455 3.01312 33.1691 3.14443 33.1917 3.32511C33.206 3.43995 33.2751 3.52005 33.3622 3.58589C33.545 3.72451 33.7554 3.81594 33.9543 3.92567C34.1811 4.05112 34.4049 4.18169 34.6028 4.3503C35.1573 4.82577 35.0947 5.70723 34.5384 6.16075C34.2396 6.40471 33.8929 6.53126 33.5187 6.59673C33.3297 6.62744 33.1386 6.6437 32.947 6.64537Z" fill="white"/>
<path d="M18.4575 5.56922C18.4388 5.67895 18.3916 5.77733 18.3569 5.88084C18.2907 6.07798 18.2201 6.27329 18.1546 6.47079C18.1498 6.49054 18.1389 6.50826 18.1233 6.5214C18.1078 6.53454 18.0886 6.54243 18.0683 6.54394C17.6294 6.61709 17.1857 6.66354 16.7399 6.62989C16.0746 6.57978 15.504 6.33729 15.112 5.77038C14.8354 5.37099 14.7378 4.91709 14.7623 4.43906C14.8033 3.64173 15.1412 2.98923 15.7641 2.48962C16.1211 2.20361 16.5409 2.06316 16.9882 2.00464C17.5419 1.92616 18.1058 1.95987 18.6462 2.10376C18.7493 2.13192 18.8488 2.17142 18.9501 2.20434C18.9867 2.21604 18.9962 2.23177 18.9827 2.27164C18.8964 2.524 18.8108 2.7771 18.7299 3.0313C18.712 3.08726 18.6868 3.07592 18.6506 3.06165C18.3923 2.95576 18.1188 2.89168 17.8404 2.87183C17.238 2.83781 16.7143 3.0035 16.3383 3.50494C15.9861 3.97493 15.9316 4.75543 16.3087 5.22725C16.5431 5.51985 16.8525 5.67492 17.2198 5.71772C17.6159 5.7638 17.9988 5.68736 18.377 5.57873C18.4011 5.57178 18.4256 5.56703 18.4501 5.56118L18.4575 5.56922Z" fill="white"/>
<path d="M22.6275 5.56361C22.5434 5.80573 22.4468 6.0453 22.3777 6.29254C22.3276 6.47286 22.2431 6.55844 22.0464 6.57819C21.4977 6.63305 20.9491 6.6945 20.4005 6.5493C19.5377 6.31997 18.9741 5.63164 18.9273 4.73702C18.876 3.76486 19.2484 2.98801 20.0314 2.41342C20.3606 2.17239 20.7447 2.05828 21.1455 2.00597C21.6991 1.92775 22.2627 1.96133 22.8031 2.10473C22.9033 2.13216 22.9995 2.17312 23.0993 2.20202C23.1516 2.21738 23.1531 2.24115 23.1359 2.28687C23.0522 2.53155 22.9691 2.77624 22.8912 3.02275C22.8726 3.08164 22.8503 3.07945 22.8024 3.06116C22.4191 2.91486 22.027 2.83549 21.6133 2.87828C20.9107 2.95363 20.376 3.41813 20.241 4.10171C20.1437 4.59511 20.233 5.04644 20.6262 5.39573C20.9396 5.6737 21.3211 5.75124 21.7274 5.72746C22.0141 5.70859 22.2974 5.65454 22.5708 5.56653C22.5873 5.56361 22.6019 5.55007 22.6275 5.56361Z" fill="white"/>
<path d="M8.69312 4.55613L4.137 0V0.699312L7.99381 4.55613L7.99528 4.55759L4.65453 7.89833L4.65051 7.89431L1.31196 4.55613L1.30903 4.5532L2.94795 2.91428H2.23657L0.596191 4.55466L0.597654 4.55613L4.64905 8.60752L4.65051 8.60606L8.69678 4.55978L8.69312 4.55613Z" fill="white"/>
<path d="M4.13533 1.18115V1.88046L6.81297 4.55811L4.65579 6.71529L2.49678 4.55664L2.49385 4.55372L4.13277 2.9148H3.42139L1.78101 4.55518L1.78247 4.55664L4.29845 7.07263L4.6503 7.42448L5.008 7.06714L7.51448 4.5603L4.13533 1.18115Z" fill="white"/>
<path d="M6.33373 4.55535L4.99765 3.21781L4.64215 2.8623L4.29249 3.21196L2.94946 4.55389L4.29322 5.89765L4.64507 6.2495L5.00204 5.89216L6.33739 4.55901L6.33373 4.55535ZM4.65129 5.54288L3.66377 4.55535L3.66084 4.55243L4.6458 3.56747L5.63332 4.55499L4.65129 5.54288Z" fill="white"/>
</svg>
