<svg width="79" height="52" viewBox="0 0 79 52" fill="none" xmlns="http://www.w3.org/2000/svg">
<rect width="57.5728" height="40.0506" fill="#FFC325"/>
<path d="M13.7671 20.192C13.7671 16.9895 20.4227 14.3931 28.6328 14.3931C36.8428 14.3931 43.4984 16.9901 43.4984 20.1923C43.4984 23.3945 36.8431 25.9902 28.6328 25.9902C20.4224 25.9902 13.7671 23.3941 13.7671 20.192Z" fill="#006891"/>
<path d="M13.7671 20.192C13.7671 16.9895 20.4227 14.3931 28.6328 14.3931C36.8428 14.3931 43.4984 16.9901 43.4984 20.1923C43.4984 23.3945 36.8431 25.9902 28.6328 25.9902C20.4224 25.9902 13.7671 23.3941 13.7671 20.192Z" stroke="#006891" stroke-width="0.879291" stroke-miterlimit="3.8636"/>
<path fill-rule="evenodd" clip-rule="evenodd" d="M19.2161 23.0104L20.759 17.251H23.1942V20.6384H23.2102L24.8623 17.251H27.336L25.7931 23.0104H24.1852L25.1742 19.3161H25.1583L23.1942 23.0104H21.9067V19.3161H21.8804L20.8913 23.0104H19.2161Z" fill="white"/>
<path fill-rule="evenodd" clip-rule="evenodd" d="M27.7725 23.1242L27.9915 22.3057H29.7662L29.5469 23.1242H27.7725Z" fill="#EE4034"/>
<path fill-rule="evenodd" clip-rule="evenodd" d="M28.0513 22.0758L28.949 18.7272H27.3357L27.7315 17.251H32.7325L32.337 18.7272H30.7237L29.8263 22.0749L28.0513 22.0758Z" fill="#FFC325"/>
<path fill-rule="evenodd" clip-rule="evenodd" d="M31.5861 23.0104L33.128 17.251H34.8708L35.6571 20.3327H35.6725L36.4979 17.251H38.109L36.5667 23.0104H34.9087L34.0548 19.8649H34.0395L33.1972 23.0104H31.5861Z" fill="white"/>
<rect x="48" y="8" width="57.5728" height="40.0506" fill="#006E53"/>
<path fill-rule="evenodd" clip-rule="evenodd" d="M72.1007 38.5016C72.4362 38.5016 72.6815 38.5727 72.8364 38.7149C72.9912 38.857 73.0688 39.0781 73.069 39.3781V40.9861H72.5656V39.4461C72.5656 39.1071 72.3755 38.9375 71.9952 38.9375C71.831 38.9362 71.6697 38.9815 71.5303 39.0683C71.5544 39.1698 71.5658 39.2738 71.5641 39.3781V40.9861H71.0607V39.4461C71.0607 39.1071 70.8706 38.9375 70.4903 38.9375C70.3168 38.9377 70.1447 38.9689 69.9822 39.0296V40.9861H69.4791V38.7536C69.6457 38.6708 69.822 38.6092 70.0039 38.5705C70.198 38.5252 70.3965 38.5017 70.5958 38.5003C70.9097 38.5003 71.143 38.5614 71.2956 38.6835C71.547 38.5634 71.8221 38.5013 72.1007 38.5016ZM74.7936 41.0599C74.4099 41.0599 74.1215 40.9501 73.9284 40.7305C73.7353 40.5109 73.6387 40.1913 73.6385 39.7716C73.6385 38.9223 74.0222 38.4978 74.7897 38.498C75.1764 38.498 75.4672 38.6069 75.662 38.8248C75.8568 39.0426 75.9543 39.3582 75.9545 39.7716C75.9545 40.1846 75.8538 40.5026 75.6526 40.7255C75.4513 40.9484 75.165 41.0599 74.7936 41.0599ZM74.7887 40.6287C75.2298 40.6287 75.4502 40.343 75.4501 39.7716C75.4501 39.4875 75.3977 39.2752 75.2931 39.1348C75.1884 38.9944 75.0206 38.9241 74.7897 38.9239C74.5565 38.9239 74.3896 38.9958 74.2889 39.1395C74.1883 39.2832 74.138 39.4939 74.138 39.7716C74.138 40.0491 74.1899 40.2614 74.2936 40.4084C74.3974 40.5554 74.5624 40.6285 74.7887 40.6277V40.6287ZM77.6349 38.5027C77.9929 38.5027 78.2644 38.6108 78.4497 38.8271C78.6349 39.0434 78.7278 39.3498 78.7283 39.7462C78.7283 40.2241 78.6173 40.5623 78.3952 40.7608C78.1732 40.9593 77.891 41.059 77.5486 41.0599C76.8616 41.0599 76.518 40.8759 76.518 40.5078V37.5815H77.0167V38.6529C77.117 38.6049 77.2223 38.5684 77.3307 38.5438C77.4302 38.5182 77.5322 38.5041 77.6349 38.5016V38.5027ZM77.5101 40.619C77.7718 40.619 77.9549 40.5432 78.0596 40.3914C78.1642 40.2397 78.2165 40.0314 78.2165 39.7666C78.2165 39.4956 78.1614 39.289 78.0512 39.1468C77.941 39.0047 77.7773 38.9337 77.5601 38.9339C77.4655 38.9345 77.3713 38.9466 77.2796 38.97C77.1879 38.9921 77.0998 39.0274 77.018 39.0746V40.3828C77.0171 40.5398 77.1812 40.6182 77.5101 40.618V40.619ZM79.2971 37.7084H79.8339V38.1686H79.2971V37.7084ZM79.3115 38.5705H79.8148L79.8196 40.9871H79.3115V38.5705ZM80.5281 40.9871V37.6349H81.0267V40.9861L80.5281 40.9871ZM82.7129 38.4959C83.0869 38.4959 83.3609 38.618 83.535 38.8622C83.7091 39.1064 83.7945 39.4478 83.7914 39.8865H82.1033C82.1196 40.1254 82.1893 40.3071 82.3126 40.4314C82.436 40.5558 82.6109 40.6179 82.8375 40.6177C83.1089 40.618 83.376 40.5497 83.614 40.4191V40.8937C83.3647 41.0045 83.0792 41.0599 82.7574 41.0599C82.3964 41.0599 82.1128 40.9493 81.9066 40.7281C81.7004 40.507 81.5974 40.193 81.5976 39.7863C81.5976 39.3697 81.695 39.051 81.8898 38.83C82.0847 38.609 82.359 38.4976 82.7129 38.4959ZM82.6985 38.9145C82.5292 38.9145 82.3966 38.9598 82.3009 39.0503C82.2051 39.1408 82.1428 39.2941 82.1138 39.5102H83.2786C83.2561 39.3035 83.1985 39.1527 83.1059 39.0576C83.0133 38.9626 82.8775 38.9148 82.6985 38.9145ZM77.8911 18.9902C77.3359 18.853 76.9086 18.7843 76.6091 18.7841C74.375 18.7841 72.5637 20.5893 72.5637 22.8156C72.5637 25.0418 74.3758 26.8473 76.6091 26.8473C78.8424 26.8473 80.6547 25.042 80.6547 22.8156C80.6548 22.4903 80.6157 22.1662 80.538 21.8504L83.7542 20.9841C84.0148 21.9746 84.064 23.0088 83.8988 24.0195C83.7336 25.0303 83.3577 25.995 82.7954 26.851L77.4696 36.7246H72.5357L76.0416 30.2624C76.0607 30.2268 76.0045 30.1483 75.9574 30.1441C72.2111 29.804 69.2766 26.6644 69.2766 22.8422C69.2766 18.7925 72.5705 15.5098 76.6342 15.5098C77.3781 15.509 78.1178 15.6207 78.8282 15.8413L77.8911 18.9902Z" fill="white"/>
<path d="M76.586 25.0333C77.8106 25.0333 78.8033 24.0406 78.8033 22.816C78.8033 21.5914 77.8106 20.5986 76.586 20.5986C75.3614 20.5986 74.3687 21.5914 74.3687 22.816C74.3687 24.0406 75.3614 25.0333 76.586 25.0333Z" fill="#D6E806"/>
<path d="M83.568 19.5601C82.8769 17.8019 81.518 16.3887 79.7882 15.6294M80.796 20.6184C80.4119 19.6568 79.6715 18.8805 78.7291 18.4513L80.796 20.6184ZM82.2072 20.0135C81.6647 18.6799 80.6389 17.6001 79.3348 16.9899L82.2072 20.0135Z" stroke="#D6E806" stroke-width="0.523262" stroke-linecap="round"/>
<rect x="16" y="20" width="57.5728" height="40.0506" fill="#E20010"/>
<path d="M48.5299 25.0059C49.5656 25.0203 50.5538 25.2168 51.4765 25.6861C52.29 26.1026 52.9534 26.6849 53.4061 27.4874C53.7004 28.0173 53.8934 28.5972 53.9753 29.1977C54.1436 30.3504 53.9734 31.4656 53.5932 32.556C53.3698 33.1956 53.0607 33.7954 52.7259 34.3846C52.0438 35.5839 51.1673 36.6234 50.1479 37.5448C48.8401 38.7282 47.4059 39.764 45.8713 40.6334C45.2768 40.9692 44.6604 41.2511 43.9973 41.4235C43.5912 41.5332 43.1718 41.5863 42.7511 41.5812C42.1973 41.5699 41.7639 41.3177 41.4269 40.8928C41.1157 40.5115 40.9554 40.0291 40.9763 39.5373C40.98 39.4005 40.9997 39.2647 41.0352 39.1325C41.2357 38.42 41.5083 37.7376 41.9157 37.1152C42.227 36.6399 42.5981 36.2178 43.0834 35.9159C43.6231 35.5798 44.2098 35.4362 44.8444 35.5748C45.0427 35.6213 45.2294 35.7081 45.3929 35.8299C45.8106 36.1284 45.7887 36.5968 45.5881 36.8959C45.4163 37.1558 45.2242 37.4018 45.0136 37.6315C44.6569 38.0157 44.278 38.379 43.9082 38.7507C43.5809 39.0796 43.2733 39.4247 43.0239 39.818C42.8947 40.022 42.7755 40.2301 42.7398 40.4751C42.6948 40.7824 42.8543 40.9917 43.1644 41.0205C43.3249 41.0336 43.4863 41.0173 43.641 40.9726C44.1175 40.8409 44.5599 40.6284 44.9945 40.3994C45.6648 40.0449 46.2834 39.6115 46.8863 39.1544C47.6172 38.6002 48.3278 38.0223 48.9827 37.3796C49.7287 36.6484 50.3936 35.8536 50.9023 34.9365C51.274 34.2669 51.5478 33.5598 51.6695 32.8013C51.7772 32.1333 51.7171 31.4825 51.4076 30.8692C51.2586 30.5661 51.0255 30.3122 50.7362 30.138C50.6026 30.0575 50.4552 30.0026 50.3016 29.9759C49.7424 29.8767 49.2014 29.9581 48.6698 30.1355C48.1157 30.3207 47.6016 30.591 47.1019 30.8864C46.0174 31.5297 44.9317 32.1727 43.8982 32.8971C43.38 33.26 42.8778 33.6462 42.37 34.0235C41.9113 34.3646 41.4557 34.7097 40.9544 34.9885C40.5477 35.2201 40.1074 35.3872 39.6493 35.4838C39.0818 35.5989 38.5586 35.4919 38.078 35.1834C37.5792 34.8633 37.23 34.424 37.0767 33.8427C36.9791 33.4756 37.0176 33.1117 37.1018 32.7494C37.2247 32.2175 37.4581 31.7356 37.7491 31.2788C38.4688 30.1505 39.3737 29.1933 40.426 28.3751C41.9854 27.1626 43.7013 26.229 45.5574 25.5534C46.5104 25.2049 47.5154 25.0197 48.5299 25.0059Z" fill="white"/>
<path d="M35.7003 50.802C35.695 50.4478 35.6546 50.1293 35.45 49.853C35.3503 49.7195 35.2124 49.6195 35.0545 49.5664C34.6477 49.4206 34.2334 49.4378 33.8295 49.5626C33.5056 49.6627 33.1934 49.7992 32.8764 49.9209C32.8138 49.944 32.7569 49.9738 32.6812 50.0076C32.5319 49.6374 32.3852 49.2782 32.2315 48.9027C32.454 48.7973 32.6636 48.6896 32.8799 48.5973C33.378 48.3843 33.8946 48.2381 34.4378 48.2053C34.9809 48.1724 35.5169 48.2012 36.0113 48.4647C36.5705 48.7607 36.9741 49.1881 37.1431 49.8101C37.1674 49.8915 37.182 49.9756 37.1865 50.0604C37.2081 50.868 37.2372 51.6756 37.2407 52.4832C37.2429 53.0351 37.2066 53.5874 37.1903 54.1397C37.1874 54.2154 37.1559 54.2872 37.1021 54.3405C36.7156 54.7661 36.2429 55.0602 35.7072 55.2576C35.1328 55.4672 34.521 55.5551 33.9108 55.5158C33.3476 55.4845 32.8614 55.2539 32.4502 54.8712C32.0391 54.4885 31.7519 54.0264 31.6718 53.4601C31.5623 52.6844 31.786 52.0113 32.3436 51.4575C32.7021 51.1014 33.1439 50.9175 33.6418 50.8524C34.1925 50.7807 34.745 50.7998 35.2976 50.8014L35.7003 50.802ZM35.628 52.063C35.5956 52.0566 35.5628 52.0521 35.5298 52.0495C35.342 52.0458 35.1521 52.0392 34.9634 52.042C34.7372 52.0454 34.51 52.0464 34.2851 52.0677C34.0526 52.0899 33.827 52.1578 33.6468 52.313C33.3476 52.5708 33.2588 52.9075 33.3317 53.287C33.4224 53.7564 33.6846 54.0843 34.1521 54.2238C34.3931 54.2959 34.6483 54.3067 34.8946 54.2551C35.1235 54.2132 35.337 54.1108 35.5129 53.9585C35.5426 53.9354 35.5671 53.9062 35.5847 53.8728C35.6022 53.8395 35.6124 53.8028 35.6146 53.7651C35.6218 53.6002 35.643 53.4356 35.6443 53.2707C35.6468 52.8931 35.6412 52.5154 35.638 52.1378C35.6362 52.1127 35.6328 52.0877 35.628 52.063Z" fill="white"/>
<path d="M54.5203 52.0318C53.178 52.0318 51.8607 52.003 50.525 52.0381C50.5318 52.132 50.5359 52.2208 50.5444 52.3075C50.5788 52.662 50.6551 53.0065 50.805 53.3316C50.9215 53.5968 51.1024 53.8286 51.3313 54.0062C51.6943 54.2819 52.1085 54.3269 52.5431 54.2709C52.9023 54.2246 53.2368 54.0932 53.5704 53.9608C53.7234 53.9004 53.8751 53.8357 54.0397 53.7684C54.1962 54.0957 54.3495 54.4173 54.5091 54.7484C54.4796 54.7697 54.4521 54.7934 54.4214 54.811C53.7706 55.1971 53.0716 55.4458 52.3166 55.5115C51.6282 55.5713 50.9712 55.4583 50.3767 55.0775C49.9718 54.8182 49.6883 54.4518 49.4511 54.0419C49.159 53.5319 48.9821 52.9641 48.933 52.3785C48.8337 51.3107 49.0604 50.3165 49.6132 49.396C49.9987 48.7561 50.5741 48.4085 51.2944 48.2887C51.9565 48.1722 52.6384 48.2857 53.2271 48.6103C53.5569 48.789 53.7866 49.0703 53.9759 49.3857C54.2262 49.8015 54.3579 50.2599 54.4211 50.7349C54.4724 51.1179 54.4887 51.5055 54.5194 51.8926C54.5231 51.9323 54.5203 51.9736 54.5203 52.0318ZM52.8933 50.8162C52.8154 50.4592 52.7622 50.0944 52.5284 49.7918C52.4112 49.6414 52.2466 49.5351 52.0613 49.4902C51.5685 49.3597 51.0732 49.5869 50.8613 50.0534C50.7856 50.2195 50.7412 50.4001 50.6861 50.575C50.6614 50.6541 50.6454 50.7364 50.6257 50.8162C50.7581 50.8513 52.7578 50.8528 52.8939 50.8172L52.8933 50.8162Z" fill="white"/>
<path d="M45.7132 46.5784L47.3149 46.3306V48.2977C47.6704 48.319 48.009 48.2959 48.3494 48.3325V49.5443C48.0052 49.55 47.6682 49.5396 47.3168 49.5609C47.3168 49.6291 47.3168 49.6801 47.3168 49.7311C47.3139 50.8976 47.3114 52.0642 47.3093 53.2309C47.3093 53.4145 47.324 53.5985 47.3406 53.7816C47.3669 54.0632 47.523 54.2418 47.7959 54.3104C47.9464 54.3485 48.1009 54.3701 48.2536 54.3992L48.407 54.4305V55.459C48.3897 55.4675 48.3714 55.4736 48.3525 55.4771C47.8979 55.4975 47.4451 55.4856 47.0055 55.352C46.5762 55.2224 46.2182 54.9878 45.9754 54.601C45.8374 54.382 45.7674 54.1358 45.737 53.8814C45.7187 53.722 45.7097 53.5618 45.7101 53.4014C45.7101 51.1861 45.7113 48.971 45.7139 46.7561L45.7132 46.5784Z" fill="white"/>
<path d="M55.3996 46.5795L56.9484 46.311V46.5247C56.9484 48.5367 56.9493 50.5486 56.9509 52.5605C56.9509 52.9288 56.9541 53.297 56.9569 53.6656C56.9594 54.0292 57.092 54.2145 57.4394 54.3227C57.5574 54.3554 57.6772 54.3811 57.7983 54.3997C57.8721 54.4135 57.9469 54.42 58.0367 54.431V55.4817C58.0283 55.4886 58.0185 55.4934 58.0079 55.4958C57.568 55.5136 57.1299 55.5064 56.7022 55.3812C56.443 55.3066 56.2017 55.1802 55.9928 55.0095C55.6039 54.6913 55.4456 54.2648 55.4049 53.7839C55.393 53.6431 55.3946 53.5007 55.3949 53.3593C55.3949 51.1584 55.3965 48.9577 55.3996 46.7572V46.5795Z" fill="white"/>
<path d="M42.5997 55.3894H41.0352C41.0333 55.324 41.0302 55.2643 41.0299 55.2051C41.0282 54.2652 41.0268 53.3253 41.0258 52.3853C41.0239 51.6344 41.0192 50.8834 41.0195 50.1325C41.02 49.9963 41.0305 49.8604 41.0508 49.7257C41.074 49.5721 41.1544 49.4441 41.2661 49.3362C41.8806 48.7379 42.6169 48.3793 43.4564 48.2248C43.9825 48.1283 44.5217 48.1276 45.0481 48.2226C45.0759 48.2276 45.1038 48.2338 45.131 48.2407C45.1444 48.2442 45.1573 48.2507 45.1832 48.2607C45.0055 48.7126 44.789 49.1444 44.585 49.5712C44.3412 49.5712 44.1103 49.564 43.88 49.5727C43.4823 49.5859 43.0919 49.6832 42.7345 49.8581C42.6331 49.9078 42.5953 49.9698 42.5956 50.0865C42.6 51.797 42.601 53.5075 42.5987 55.218L42.5997 55.3894Z" fill="white"/>
<path d="M39.8818 48.3643C39.8984 50.7085 39.8803 53.0389 39.8953 55.3838H38.3643C38.3605 55.3271 38.353 55.268 38.353 55.2088C38.353 53.7351 38.353 52.2612 38.353 50.787C38.353 50.1115 38.3587 49.4359 38.3615 48.7604C38.3615 48.7091 38.3615 48.6578 38.3615 48.5933L39.8818 48.3643Z" fill="white"/>
<path d="M39.0535 47.6739C38.306 47.672 37.8379 46.928 38.148 46.2255C38.3385 45.7947 38.6658 45.631 39.138 45.6338C39.7706 45.6391 40.2397 46.2684 40.0889 46.8832C39.9684 47.3745 39.5741 47.6751 39.0535 47.6739Z" fill="white"/>
</svg>
