<svg width="33" height="33" viewBox="0 0 33 33" fill="none" xmlns="http://www.w3.org/2000/svg">
<path d="M28.4087 26.6427C15.0504 33.0001 6.76004 27.6811 1.45313 24.4504C1.12474 24.2468 0.566595 24.498 1.05086 25.0543C2.81886 27.198 8.61295 32.3649 16.1759 32.3649C23.7441 32.3649 28.2465 28.2354 28.8097 27.515C29.3691 26.8008 28.974 26.4068 28.4086 26.6427H28.4087ZM32.1604 24.5709C31.8016 24.1038 29.9791 24.0167 28.8321 24.1576C27.6833 24.2944 25.9589 24.9965 26.1088 25.4181C26.1858 25.576 26.3428 25.5051 27.132 25.4342C27.9233 25.3552 30.1402 25.0755 30.6021 25.6793C31.0662 26.2873 29.895 29.1837 29.6811 29.6509C29.4745 30.118 29.7601 30.2385 30.1483 29.9273C30.5311 29.6163 31.2242 28.8109 31.6893 27.6712C32.1512 26.5252 32.4329 24.9266 32.1602 24.5709H32.1604Z" fill="#FF9900"/>
<path fill-rule="evenodd" clip-rule="evenodd" d="M19.4267 13.6702C19.4267 15.3383 19.4688 16.7294 18.6257 18.2108C17.9452 19.4153 16.8672 20.156 15.6628 20.156C14.0187 20.156 13.0612 18.9034 13.0612 17.0547C13.0612 13.4052 16.3311 12.7428 19.4267 12.7428V13.6702ZM23.7445 24.1066C23.4614 24.3594 23.0519 24.3776 22.7328 24.2089C21.3116 23.0286 21.0586 22.4806 20.2758 21.3544C17.9271 23.7513 16.265 24.4678 13.2178 24.4678C9.61655 24.4678 6.81018 22.2457 6.81018 17.7953C6.81018 14.3207 8.69523 11.9539 11.3749 10.7977C13.6996 9.77386 16.9455 9.59323 19.4267 9.31028V8.7562C19.4267 7.73841 19.5049 6.53402 18.9088 5.65484C18.3848 4.86592 17.3851 4.54071 16.5058 4.54071C14.8739 4.54071 13.4165 5.37774 13.0612 7.11209C12.9888 7.49761 12.7059 7.87702 12.3205 7.89505L8.16513 7.4495C7.81592 7.37105 7.43053 7.0881 7.52688 6.55204C8.48438 1.51767 13.031 0 17.1019 0C19.1856 0 21.9076 0.554085 23.5517 2.13193C25.6354 4.077 25.4366 6.67251 25.4366 9.49688V16.1694C25.4366 18.1748 26.2677 19.0539 27.0505 20.138C27.3275 20.5234 27.3878 20.9872 27.0385 21.2761C26.1652 22.0047 24.6115 23.3598 23.7564 24.1186L23.7444 24.1066" fill="white"/>
<path d="M28.4087 26.6427C15.0504 33.0001 6.76004 27.6811 1.45313 24.4504C1.12474 24.2468 0.566595 24.498 1.05086 25.0543C2.81886 27.198 8.61295 32.3649 16.1759 32.3649C23.7441 32.3649 28.2465 28.2354 28.8097 27.515C29.3691 26.8008 28.974 26.4068 28.4086 26.6427H28.4087ZM32.1604 24.5709C31.8016 24.1038 29.9791 24.0167 28.8321 24.1576C27.6833 24.2944 25.9589 24.9965 26.1088 25.4181C26.1858 25.576 26.3428 25.5051 27.132 25.4342C27.9233 25.3552 30.1402 25.0755 30.6021 25.6793C31.0662 26.2873 29.895 29.1837 29.6811 29.6509C29.4745 30.118 29.7601 30.2385 30.1483 29.9273C30.5311 29.6163 31.2242 28.8109 31.6893 27.6712C32.1512 26.5252 32.4329 24.9266 32.1602 24.5709H32.1604Z" fill="#FF9900"/>
<path fill-rule="evenodd" clip-rule="evenodd" d="M19.4267 13.6702C19.4267 15.3383 19.4688 16.7294 18.6257 18.2108C17.9452 19.4153 16.8672 20.156 15.6628 20.156C14.0187 20.156 13.0612 18.9034 13.0612 17.0547C13.0612 13.4052 16.3311 12.7428 19.4267 12.7428V13.6702ZM23.7445 24.1066C23.4614 24.3594 23.0519 24.3776 22.7328 24.2089C21.3116 23.0286 21.0586 22.4806 20.2758 21.3544C17.9271 23.7513 16.265 24.4678 13.2178 24.4678C9.61655 24.4678 6.81018 22.2457 6.81018 17.7953C6.81018 14.3207 8.69523 11.9539 11.3749 10.7977C13.6996 9.77386 16.9455 9.59323 19.4267 9.31028V8.7562C19.4267 7.73841 19.5049 6.53402 18.9088 5.65484C18.3848 4.86592 17.3851 4.54071 16.5058 4.54071C14.8739 4.54071 13.4165 5.37774 13.0612 7.11209C12.9888 7.49761 12.7059 7.87702 12.3205 7.89505L8.16513 7.4495C7.81592 7.37105 7.43053 7.0881 7.52688 6.55204C8.48438 1.51767 13.031 0 17.1019 0C19.1856 0 21.9076 0.554085 23.5517 2.13193C25.6354 4.077 25.4366 6.67251 25.4366 9.49688V16.1694C25.4366 18.1748 26.2677 19.0539 27.0505 20.138C27.3275 20.5234 27.3878 20.9872 27.0385 21.2761C26.1652 22.0047 24.6115 23.3598 23.7564 24.1186L23.7444 24.1066" fill="white"/>
</svg>
