

<svg width="258" height="151" viewBox="0 0 258 151" fill="none" xmlns="http://www.w3.org/2000/svg">
<rect width="257.703" height="150.673" rx="19.8" fill="#12101A"/>
<mask id="mask0_860_10266" style="mask-type:alpha" maskUnits="userSpaceOnUse" x="0" y="0" width="258" height="151">
<rect width="257.703" height="150.673" rx="30" fill="#C4C4C4"/>
</mask>
<g mask="url(#mask0_860_10266)">
<rect x="176.132" y="143.471" width="83.1301" height="83.1301" rx="17.6652" transform="rotate(-45 176.132 143.471)" fill="#12101A"/>
<rect x="65.1339" y="105.329" width="131.791" height="131.791" rx="17.6652" transform="rotate(-135 65.1339 105.329)" fill="#12101A"/>
<circle cx="65.7248" cy="146.777" r="80.5323" stroke="#12101A" stroke-width="0.519563"/>
<circle cx="65.7249" cy="146.777" r="60.8612" stroke="#12101A" stroke-width="0.519563"/>
<circle cx="65.7249" cy="146.777" r="41.1901" stroke="#12101A" stroke-width="0.519563"/>
<circle cx="244.455" cy="19.4837" r="29.0955" stroke="#12101A" stroke-width="0.519563"/>
<circle cx="244.455" cy="19.4838" r="21.9482" stroke="#12101A" stroke-width="0.519563"/>
<circle cx="244.454" cy="19.4839" r="14.8008" stroke="#12101A" stroke-width="0.519563"/>
</g>
<rect x="207.306" y="23.9004" width="36.889" height="102.874" rx="11.4304" fill="white" fill-opacity="0.44"/>
<rect x="202.63" y="17.146" width="36.889" height="116.382" rx="11.4304" fill="white"/>
<rect x="207.306" y="23.9004" width="27.5369" height="27.5369" rx="9.8717" fill="#FAFAFA"/>
<path fill-rule="evenodd" clip-rule="evenodd" d="M222.088 40.8159C223.468 40.2994 224.452 38.9677 224.452 37.4087C224.452 36.4049 224.044 35.4956 223.386 34.8373C223.149 34.6009 223.149 34.2166 223.386 33.9802C223.623 33.7438 224.006 33.7438 224.243 33.9802C225.121 34.858 225.664 36.0703 225.664 37.4087C225.664 39.5199 224.312 41.3178 222.427 41.9827L222.979 42.3658C223.254 42.5568 223.322 42.9344 223.131 43.2096C222.941 43.4842 222.563 43.5527 222.288 43.3617L220.469 42.1003C220.195 41.9106 220.126 41.5348 220.315 41.2596L221.527 39.4908C221.716 39.2144 222.094 39.1441 222.37 39.3332C222.646 39.5223 222.716 39.9 222.527 40.1758L222.088 40.8159ZM219.217 32.8291L218.66 32.4576C218.382 32.2721 218.306 31.8951 218.492 31.6168C218.678 31.3386 219.054 31.2634 219.332 31.4489L221.151 32.6612C221.43 32.8467 221.505 33.2232 221.319 33.502L220.107 35.3205C219.921 35.5987 219.544 35.6738 219.266 35.4884C218.988 35.3029 218.912 34.9258 219.098 34.6476L219.525 34.0075C218.153 34.5282 217.178 35.8551 217.178 37.4087C217.178 38.4125 217.585 39.3211 218.244 39.98C218.48 40.2164 218.48 40.6001 218.244 40.8371C218.007 41.0735 217.623 41.0735 217.387 40.8371C216.509 39.9594 215.966 38.7471 215.966 37.4087C215.966 35.292 217.325 33.4899 219.217 32.8291Z" fill="#ACB5BD"/>
<path d="M217.697 118.98L220.814 122.098L223.932 118.98" fill="#9FA4A6"/>
<path d="M221.607 103.63C221.607 104.254 221.475 104.79 221.21 105.237C220.939 105.685 220.565 106.029 220.088 106.271C219.605 106.512 219.049 106.633 218.419 106.633C217.789 106.633 217.232 106.512 216.749 106.271C216.266 106.029 215.89 105.685 215.619 105.237C215.348 104.79 215.212 104.254 215.212 103.63C215.212 102.888 215.398 102.281 215.769 101.81C216.134 101.333 216.649 101.036 217.315 100.918L217.315 102.164C216.979 102.24 216.717 102.405 216.528 102.658C216.334 102.905 216.237 103.235 216.237 103.647C216.237 104.219 216.431 104.666 216.82 104.99C217.209 105.314 217.741 105.476 218.419 105.476C219.096 105.476 219.629 105.314 220.017 104.99C220.4 104.666 220.591 104.219 220.591 103.647C220.591 103.235 220.503 102.905 220.326 102.658C220.144 102.405 219.894 102.24 219.576 102.164L219.576 100.918C220.212 101.036 220.709 101.333 221.068 101.81C221.428 102.281 221.607 102.888 221.607 103.63ZM221.501 99.9439L215.142 99.9439L215.142 98.8133L217.792 98.8133C217.55 98.6661 217.362 98.4688 217.226 98.2215C217.085 97.9683 217.014 97.6798 217.014 97.3559C217.014 96.8142 217.185 96.3961 217.527 96.1017C217.868 95.8014 218.369 95.6512 219.028 95.6512L221.501 95.6512L221.501 96.773L219.134 96.773C218.757 96.773 218.469 96.8495 218.268 97.0026C218.068 97.1498 217.968 97.3854 217.968 97.7092C217.968 98.0272 218.08 98.2922 218.304 98.5041C218.528 98.7102 218.84 98.8133 219.24 98.8133L221.501 98.8133L221.501 99.9439ZM221.607 93.0598C221.607 93.4366 221.548 93.7458 221.431 93.9872C221.307 94.2286 221.145 94.4082 220.945 94.526C220.745 94.6437 220.524 94.7026 220.282 94.7026C219.876 94.7026 219.546 94.5436 219.293 94.2257C219.04 93.9077 218.913 93.4307 218.913 92.7948L218.913 91.6819L218.807 91.6819C218.507 91.6819 218.286 91.7673 218.145 91.938C218.004 92.1088 217.933 92.3208 217.933 92.574C217.933 92.8036 217.989 93.0038 218.101 93.1746C218.207 93.3453 218.366 93.4513 218.578 93.4926L218.578 94.5966C218.26 94.5672 217.983 94.4612 217.747 94.2787C217.512 94.0902 217.332 93.8488 217.209 93.5544C217.079 93.26 217.014 92.9302 217.014 92.5651C217.014 91.941 217.17 91.4493 217.482 91.0901C217.794 90.7309 218.236 90.5513 218.807 90.5513L221.501 90.5513L221.501 91.5141L220.795 91.6201C221.03 91.7496 221.224 91.9321 221.378 92.1677C221.531 92.3973 221.607 92.6947 221.607 93.0598ZM220.724 92.8036C220.724 92.4798 220.618 92.2295 220.406 92.0528C220.194 91.8703 219.932 91.7555 219.62 91.7084L219.62 92.6711C219.62 92.9714 219.676 93.1864 219.788 93.3159C219.894 93.4454 220.026 93.5102 220.185 93.5102C220.356 93.5102 220.488 93.4454 220.583 93.3159C220.677 93.1864 220.724 93.0156 220.724 92.8036ZM221.501 89.4724L217.12 89.4724L217.12 88.4743L217.862 88.386C217.603 88.2506 217.397 88.0563 217.244 87.8031C217.091 87.544 217.014 87.2407 217.014 86.8933C217.014 86.3516 217.185 85.9306 217.527 85.6303C217.868 85.3299 218.369 85.1798 219.028 85.1798L221.501 85.1798L221.501 86.3104L219.134 86.3104C218.757 86.3104 218.469 86.3869 218.268 86.54C218.068 86.6931 217.968 86.9316 217.968 87.2554C217.968 87.5734 218.08 87.8355 218.304 88.0415C218.528 88.2418 218.84 88.3419 219.24 88.3419L221.501 88.3419L221.501 89.4724ZM220.194 82.2439C220.194 82.4558 220.17 82.6531 220.123 82.8356L220.45 83.1624C220.503 83.0623 220.547 82.9269 220.583 82.7561C220.618 82.5854 220.653 82.3086 220.689 81.9259C220.742 81.3429 220.88 80.919 221.104 80.654C221.328 80.389 221.637 80.2565 222.031 80.2565C222.29 80.2565 222.535 80.3272 222.764 80.4685C223 80.6098 223.188 80.8277 223.33 81.1221C223.477 81.4165 223.55 81.7934 223.55 82.2527C223.55 82.8769 223.433 83.3803 223.197 83.7631C222.967 84.1458 222.62 84.3372 222.155 84.3372C221.76 84.3372 221.419 84.1458 221.13 83.7631C221.077 83.8808 221.021 83.9839 220.962 84.0722C220.904 84.1546 220.842 84.2282 220.777 84.293L220.574 84.293L219.761 83.5246C219.461 83.8661 219.075 84.0369 218.604 84.0369C218.31 84.0369 218.042 83.9662 217.8 83.8249C217.559 83.6777 217.368 83.4716 217.226 83.2066C217.085 82.9416 217.014 82.6207 217.014 82.2439C217.014 81.9965 217.05 81.7669 217.12 81.5549L217.12 79.8944L217.809 79.8944L217.862 80.6452C218.086 80.5274 218.333 80.4685 218.604 80.4685C218.899 80.4685 219.166 80.5392 219.408 80.6805C219.649 80.8218 219.841 81.0279 219.982 81.2988C220.123 81.5637 220.194 81.8788 220.194 82.2439ZM219.328 82.2439C219.328 82.0142 219.267 81.8258 219.143 81.6786C219.019 81.5255 218.843 81.4489 218.613 81.4489C218.383 81.4489 218.207 81.5255 218.083 81.6786C217.959 81.8258 217.898 82.0142 217.898 82.2439C217.898 82.4853 217.959 82.6796 218.083 82.8268C218.207 82.974 218.383 83.0476 218.613 83.0476C218.843 83.0476 219.019 82.974 219.143 82.8268C219.267 82.6796 219.328 82.4853 219.328 82.2439ZM222.04 83.3038C222.258 83.3038 222.42 83.2037 222.526 83.0035C222.638 82.7974 222.694 82.5471 222.694 82.2527C222.694 81.97 222.635 81.7404 222.517 81.5637C222.405 81.3871 222.252 81.2988 222.058 81.2988C221.899 81.2988 221.766 81.3577 221.66 81.4754C221.554 81.5873 221.489 81.814 221.466 82.1555C221.448 82.397 221.422 82.6207 221.386 82.8268C221.481 82.9976 221.584 83.1212 221.696 83.1978C221.807 83.2684 221.922 83.3038 222.04 83.3038ZM221.607 77.1139C221.607 77.5555 221.513 77.9471 221.325 78.2886C221.136 78.6301 220.871 78.898 220.53 79.0924C220.188 79.2867 219.794 79.3838 219.346 79.3838C218.893 79.3838 218.489 79.2896 218.136 79.1012C217.783 78.9069 217.509 78.6419 217.315 78.3063C217.114 77.9647 217.014 77.5643 217.014 77.105C217.014 76.6752 217.108 76.2954 217.297 75.9656C217.485 75.6359 217.744 75.3797 218.074 75.1972C218.398 75.0088 218.76 74.9145 219.161 74.9145C219.225 74.9145 219.293 74.9175 219.364 74.9234C219.434 74.9234 219.508 74.9263 219.585 74.9322L219.585 78.2621C219.926 78.2385 220.194 78.1208 220.388 77.9088C220.583 77.6909 220.68 77.4289 220.68 77.1227C220.68 76.893 220.63 76.7017 220.53 76.5486C220.424 76.3896 220.288 76.2718 220.123 76.1953L220.123 75.047C220.4 75.1295 220.653 75.2678 220.883 75.4622C221.107 75.6506 221.283 75.8861 221.413 76.1688C221.542 76.4455 221.607 76.7606 221.607 77.1139ZM217.933 77.105C217.933 77.3818 218.012 77.6261 218.171 77.8381C218.324 78.0501 218.56 78.1855 218.878 78.2444L218.878 76.0628C218.589 76.0804 218.36 76.1864 218.189 76.3808C218.018 76.5751 217.933 76.8165 217.933 77.105Z" fill="#030303"/>
<path d="M29.2722 81.0916C28.3744 81.0916 27.5639 80.9358 26.8407 80.624C26.1174 80.2998 25.5376 79.8447 25.1012 79.2586C24.6772 78.6726 24.4652 77.993 24.4652 77.2199C24.4652 76.4218 24.671 75.7235 25.0825 75.125C25.5064 74.5264 26.0613 74.0962 26.7471 73.8344C26.1486 73.5725 25.6748 73.1984 25.3256 72.7121C24.9765 72.2133 24.8019 71.6584 24.8019 71.0474C24.8019 70.424 24.9702 69.8504 25.3069 69.3266C25.6436 68.7905 26.1424 68.3603 26.8033 68.0361C27.4766 67.7118 28.2996 67.5497 29.2722 67.5497C30.2448 67.5497 31.0616 67.7118 31.7225 68.0361C32.3834 68.3603 32.8821 68.7905 33.2188 69.3266C33.5555 69.8504 33.7238 70.424 33.7238 71.0474C33.7238 71.646 33.543 72.2009 33.1814 72.7121C32.8323 73.2109 32.3647 73.585 31.7786 73.8344C32.4769 74.0962 33.0318 74.5264 33.4433 75.125C33.8548 75.7235 34.0605 76.4218 34.0605 77.2199C34.0605 77.993 33.8485 78.6726 33.4246 79.2586C33.0006 79.8447 32.4208 80.2998 31.6851 80.624C30.9618 80.9358 30.1576 81.0916 29.2722 81.0916ZM29.2722 73.1236C29.9206 73.1236 30.4319 72.9553 30.806 72.6186C31.1801 72.2819 31.3671 71.8517 31.3671 71.328C31.3671 70.7544 31.1801 70.3055 30.806 69.9813C30.4444 69.6571 29.9331 69.495 29.2722 69.495C28.5989 69.495 28.0814 69.6571 27.7198 69.9813C27.3581 70.3055 27.1773 70.7544 27.1773 71.328C27.1773 71.8642 27.3581 72.3006 27.7198 72.6373C28.0938 72.9615 28.6113 73.1236 29.2722 73.1236ZM29.2722 79.0903C30.0703 79.0903 30.675 78.897 31.0865 78.5104C31.498 78.1114 31.7038 77.6126 31.7038 77.0141C31.7038 76.3532 31.4856 75.8357 31.0491 75.4617C30.6252 75.0876 30.0329 74.9005 29.2722 74.9005C28.5116 74.9005 27.9068 75.0876 27.4579 75.4617C27.0215 75.8357 26.8033 76.3532 26.8033 77.0141C26.8033 77.6126 27.009 78.1114 27.4205 78.5104C27.8445 78.897 28.4617 79.0903 29.2722 79.0903ZM35.9331 80.8672V79.1277C36.7312 78.4668 37.5043 77.8122 38.2525 77.1637C39.0131 76.5153 39.6865 75.8731 40.2725 75.2372C40.8711 74.6013 41.3449 73.984 41.6941 73.3855C42.0557 72.7745 42.2365 72.1822 42.2365 71.6086C42.2365 71.0724 42.0868 70.5985 41.7876 70.187C41.5008 69.7756 41.0207 69.5698 40.3473 69.5698C39.6615 69.5698 39.144 69.7943 38.7949 70.2432C38.4457 70.6921 38.2712 71.2345 38.2712 71.8704H35.9518C35.9768 70.9103 36.1888 70.1122 36.5878 69.4763C36.9868 68.8279 37.5168 68.3478 38.1776 68.0361C38.8385 67.7118 39.5805 67.5497 40.4035 67.5497C41.7377 67.5497 42.7727 67.9176 43.5084 68.6533C44.2565 69.3765 44.6306 70.318 44.6306 71.4776C44.6306 72.2009 44.4623 72.9054 44.1256 73.5912C43.8014 74.277 43.3712 74.9379 42.835 75.5739C42.2988 76.2098 41.719 76.8084 41.0955 77.3695C40.472 77.9181 39.8673 78.4294 39.2812 78.9032H44.9486V80.8672H35.9331ZM52.7576 80.8672V78.4356H46.3047V76.5278L52.4397 67.7742H55.1518V76.3595H56.8726V78.4356H55.1518V80.8672H52.7576ZM48.8671 76.3595H52.9073V70.4115L48.8671 76.3595ZM63.2116 80.8672V67.7742H68.4675C69.8266 67.7742 70.8616 68.0922 71.5724 68.7281C72.2956 69.3516 72.6572 70.1559 72.6572 71.141C72.6572 71.964 72.4328 72.6248 71.9839 73.1236C71.5474 73.6099 71.0113 73.9404 70.3753 74.1149C71.1235 74.2646 71.7407 74.6387 72.227 75.2372C72.7133 75.8233 72.9565 76.5091 72.9565 77.2947C72.9565 78.3296 72.5824 79.1838 71.8342 79.8572C71.0861 80.5305 70.0262 80.8672 68.6545 80.8672H63.2116ZM65.6057 73.2733H68.1121C68.7854 73.2733 69.3029 73.1174 69.6645 72.8056C70.0262 72.4939 70.207 72.0512 70.207 71.4776C70.207 70.929 70.0262 70.4988 69.6645 70.187C69.3154 69.8628 68.7854 69.7007 68.0747 69.7007H65.6057V73.2733ZM65.6057 78.9219H68.2804C68.9912 78.9219 69.5398 78.7598 69.9264 78.4356C70.3254 78.099 70.5249 77.6313 70.5249 77.0328C70.5249 76.4218 70.3192 75.9417 69.9077 75.5926C69.4962 75.2434 68.9413 75.0689 68.243 75.0689H65.6057V78.9219ZM77.8957 80.8672V69.7007H74.0801V67.7742H84.1243V69.7007H80.2899V80.8672H77.8957ZM91.3522 81.0916C90.0304 81.0916 88.8957 80.8111 87.948 80.2499C87.0003 79.6763 86.2708 78.8845 85.7596 77.8745C85.2483 76.852 84.9927 75.6736 84.9927 74.3394C84.9927 73.0052 85.2483 71.8268 85.7596 70.8043C86.2708 69.7818 87.0003 68.9837 87.948 68.4101C88.8957 67.8365 90.0304 67.5497 91.3522 67.5497C92.9233 67.5497 94.2077 67.9425 95.2052 68.7281C96.2153 69.5012 96.845 70.5923 97.0944 72.0014H94.4571C94.295 71.2906 93.9458 70.7357 93.4096 70.3367C92.8859 69.9252 92.1876 69.7194 91.3147 69.7194C90.1052 69.7194 89.1575 70.1309 88.4717 70.9539C87.7859 71.7769 87.443 72.9054 87.443 74.3394C87.443 75.7734 87.7859 76.9019 88.4717 77.7249C89.1575 78.5354 90.1052 78.9406 91.3147 78.9406C92.1876 78.9406 92.8859 78.7536 93.4096 78.3795C93.9458 77.993 94.295 77.463 94.4571 76.7897H97.0944C96.845 78.1364 96.2153 79.19 95.2052 79.9507C94.2077 80.7113 92.9233 81.0916 91.3522 81.0916Z" fill="white"/>
<path d="M23.9457 103.6V97.781H26.2816C26.8857 97.781 27.3457 97.9223 27.6616 98.205C27.983 98.4821 28.1437 98.8395 28.1437 99.2773C28.1437 99.6431 28.044 99.9368 27.8445 100.159C27.6505 100.375 27.4122 100.522 27.1295 100.599C27.4621 100.666 27.7364 100.832 27.9525 101.098C28.1687 101.358 28.2767 101.663 28.2767 102.012C28.2767 102.472 28.1105 102.852 27.778 103.151C27.4454 103.45 26.9744 103.6 26.3647 103.6H23.9457ZM25.0097 100.225H26.1237C26.4229 100.225 26.6529 100.156 26.8136 100.017C26.9744 99.8786 27.0547 99.6819 27.0547 99.427C27.0547 99.1831 26.9744 98.9919 26.8136 98.8534C26.6585 98.7093 26.4229 98.6372 26.107 98.6372H25.0097V100.225ZM25.0097 102.736H26.1985C26.5144 102.736 26.7582 102.663 26.93 102.519C27.1074 102.37 27.196 102.162 27.196 101.896C27.196 101.624 27.1046 101.411 26.9217 101.256C26.7388 101.101 26.4922 101.023 26.1819 101.023H25.0097V102.736ZM29.7387 98.8367C29.5447 98.8367 29.384 98.7786 29.2565 98.6622C29.1346 98.5458 29.0736 98.3989 29.0736 98.2216C29.0736 98.0442 29.1346 97.9001 29.2565 97.7893C29.384 97.6729 29.5447 97.6147 29.7387 97.6147C29.9326 97.6147 30.0906 97.6729 30.2125 97.7893C30.34 97.9001 30.4037 98.0442 30.4037 98.2216C30.4037 98.3989 30.34 98.5458 30.2125 98.6622C30.0906 98.7786 29.9326 98.8367 29.7387 98.8367ZM29.2066 103.6V99.4768H30.2707V103.6H29.2066ZM33.2185 103.6C32.7862 103.6 32.4398 103.495 32.1794 103.284C31.9189 103.074 31.7887 102.7 31.7887 102.162V100.366H31.0821V99.4768H31.7887L31.9134 98.3712H32.8527V99.4768H33.9667V100.366H32.8527V102.17C32.8527 102.37 32.8943 102.508 32.9774 102.586C33.0661 102.658 33.2157 102.694 33.4263 102.694H33.9417V103.6H33.2185ZM36.7948 103.7C36.3736 103.7 36.0023 103.608 35.6808 103.426C35.3594 103.243 35.1045 102.988 34.916 102.661C34.7332 102.334 34.6417 101.96 34.6417 101.538C34.6417 101.117 34.7332 100.743 34.916 100.416C35.1045 100.089 35.3594 99.8343 35.6808 99.6514C36.0023 99.4685 36.3736 99.3771 36.7948 99.3771C37.3213 99.3771 37.7646 99.5156 38.1249 99.7927C38.4851 100.064 38.7151 100.441 38.8148 100.923H37.6926C37.6372 100.724 37.5263 100.569 37.3601 100.458C37.1993 100.341 37.0081 100.283 36.7865 100.283C36.4927 100.283 36.2434 100.394 36.0383 100.616C35.8332 100.837 35.7307 101.145 35.7307 101.538C35.7307 101.932 35.8332 102.24 36.0383 102.461C36.2434 102.683 36.4927 102.794 36.7865 102.794C37.0081 102.794 37.1993 102.738 37.3601 102.627C37.5263 102.517 37.6372 102.359 37.6926 102.154H38.8148C38.7151 102.619 38.4851 102.993 38.1249 103.276C37.7646 103.559 37.3213 103.7 36.7948 103.7ZM41.7378 103.7C41.3388 103.7 40.9785 103.608 40.6571 103.426C40.3412 103.243 40.089 102.99 39.9006 102.669C39.7177 102.342 39.6263 101.965 39.6263 101.538C39.6263 101.112 39.7205 100.738 39.9089 100.416C40.0973 100.089 40.3495 99.8343 40.6654 99.6514C40.9868 99.4685 41.3471 99.3771 41.7461 99.3771C42.1396 99.3771 42.4943 99.4685 42.8102 99.6514C43.1316 99.8343 43.3838 100.089 43.5666 100.416C43.7551 100.738 43.8493 101.112 43.8493 101.538C43.8493 101.965 43.7551 102.342 43.5666 102.669C43.3838 102.99 43.1316 103.243 42.8102 103.426C42.4887 103.608 42.1313 103.7 41.7378 103.7ZM41.7378 102.777C42.0149 102.777 42.256 102.675 42.461 102.47C42.6661 102.259 42.7686 101.949 42.7686 101.538C42.7686 101.128 42.6661 100.821 42.461 100.616C42.256 100.405 42.0176 100.3 41.7461 100.3C41.4634 100.3 41.2196 100.405 41.0145 100.616C40.815 100.821 40.7153 101.128 40.7153 101.538C40.7153 101.949 40.815 102.259 41.0145 102.47C41.2196 102.675 41.4607 102.777 41.7378 102.777ZM45.3743 98.8367C45.1803 98.8367 45.0196 98.7786 44.8921 98.6622C44.7702 98.5458 44.7092 98.3989 44.7092 98.2216C44.7092 98.0442 44.7702 97.9001 44.8921 97.7893C45.0196 97.6729 45.1803 97.6147 45.3743 97.6147C45.5682 97.6147 45.7262 97.6729 45.8481 97.7893C45.9756 97.9001 46.0393 98.0442 46.0393 98.2216C46.0393 98.3989 45.9756 98.5458 45.8481 98.6622C45.7262 98.7786 45.5682 98.8367 45.3743 98.8367ZM44.8422 103.6V99.4768H45.9063V103.6H44.8422ZM47.0169 103.6V99.4768H47.9563L48.0394 100.175C48.1669 99.9313 48.3498 99.7373 48.5881 99.5932C48.8319 99.4491 49.1173 99.3771 49.4443 99.3771C49.9542 99.3771 50.3504 99.5378 50.6331 99.8592C50.9157 100.181 51.0571 100.652 51.0571 101.272V103.6H49.993V101.372C49.993 101.018 49.9209 100.746 49.7768 100.558C49.6328 100.369 49.4083 100.275 49.1035 100.275C48.8042 100.275 48.5576 100.38 48.3636 100.591C48.1752 100.801 48.081 101.095 48.081 101.472V103.6H47.0169ZM55.2608 103.6L53.7229 97.781H54.8617L55.9092 102.411L57.1395 97.781H58.3116L59.5087 102.411L60.5562 97.781H61.7034L60.1239 103.6H58.8603L57.7048 99.2856L56.516 103.6H55.2608ZM63.4003 103.7C63.0456 103.7 62.7546 103.644 62.5274 103.534C62.3002 103.417 62.1311 103.265 62.0203 103.076C61.9095 102.888 61.854 102.68 61.854 102.453C61.854 102.071 62.0037 101.76 62.3029 101.522C62.6022 101.284 63.0511 101.164 63.6496 101.164H64.6971V101.065C64.6971 100.782 64.6167 100.574 64.456 100.441C64.2953 100.308 64.0958 100.242 63.8575 100.242C63.6413 100.242 63.4529 100.294 63.2922 100.4C63.1315 100.499 63.0317 100.649 62.9929 100.848H61.9538C61.9815 100.549 62.0813 100.289 62.2531 100.067C62.4304 99.8454 62.6576 99.6764 62.9347 99.56C63.2118 99.438 63.5222 99.3771 63.8658 99.3771C64.4532 99.3771 64.916 99.524 65.2541 99.8177C65.5921 100.111 65.7611 100.527 65.7611 101.065V103.6H64.855L64.7553 102.935C64.6333 103.157 64.4615 103.34 64.2399 103.484C64.0237 103.628 63.7439 103.7 63.4003 103.7ZM63.6413 102.869C63.9461 102.869 64.1817 102.769 64.3479 102.569C64.5197 102.37 64.6278 102.123 64.6721 101.829H63.766C63.4834 101.829 63.2811 101.882 63.1592 101.987C63.0373 102.087 62.9763 102.212 62.9763 102.361C62.9763 102.522 63.0373 102.647 63.1592 102.736C63.2811 102.824 63.4418 102.869 63.6413 102.869ZM66.7766 103.6V97.6147H67.8406V103.6H66.7766ZM68.9279 103.6V97.6147H69.992V103.6H68.9279ZM73.0826 103.7C72.667 103.7 72.2984 103.611 71.977 103.434C71.6556 103.256 71.4034 103.007 71.2205 102.686C71.0376 102.364 70.9462 101.993 70.9462 101.572C70.9462 101.145 71.0349 100.765 71.2122 100.433C71.3951 100.1 71.6445 99.8426 71.9604 99.6597C72.2818 99.4713 72.6587 99.3771 73.091 99.3771C73.4955 99.3771 73.853 99.4658 74.1633 99.6431C74.4737 99.8204 74.7148 100.064 74.8866 100.375C75.0639 100.679 75.1526 101.02 75.1526 101.397C75.1526 101.458 75.1498 101.522 75.1443 101.588C75.1443 101.655 75.1415 101.724 75.136 101.796H72.0019C72.0241 102.118 72.135 102.37 72.3345 102.553C72.5395 102.736 72.7861 102.827 73.0743 102.827C73.2905 102.827 73.4706 102.78 73.6147 102.686C73.7643 102.586 73.8751 102.458 73.9472 102.303H75.0279C74.9503 102.564 74.8201 102.802 74.6372 103.018C74.4598 103.229 74.2381 103.395 73.9721 103.517C73.7117 103.639 73.4152 103.7 73.0826 103.7ZM73.091 100.242C72.8305 100.242 72.6005 100.316 72.401 100.466C72.2015 100.61 72.074 100.832 72.0186 101.131H74.0719C74.0553 100.86 73.9555 100.643 73.7726 100.483C73.5897 100.322 73.3625 100.242 73.091 100.242ZM77.8116 103.6C77.3794 103.6 77.033 103.495 76.7725 103.284C76.512 103.074 76.3818 102.7 76.3818 102.162V100.366H75.6752V99.4768H76.3818L76.5065 98.3712H77.4459V99.4768H78.5598V100.366H77.4459V102.17C77.4459 102.37 77.4874 102.508 77.5706 102.586C77.6592 102.658 77.8089 102.694 78.0195 102.694H78.5349V103.6H77.8116ZM81.4792 103.6V97.781H83.8151C84.4192 97.781 84.8792 97.9223 85.1951 98.205C85.5165 98.4821 85.6772 98.8395 85.6772 99.2773C85.6772 99.6431 85.5775 99.9368 85.378 100.159C85.184 100.375 84.9457 100.522 84.6631 100.599C84.9956 100.666 85.2699 100.832 85.486 101.098C85.7022 101.358 85.8102 101.663 85.8102 102.012C85.8102 102.472 85.644 102.852 85.3115 103.151C84.9789 103.45 84.5079 103.6 83.8983 103.6H81.4792ZM82.5432 100.225H83.6572C83.9564 100.225 84.1864 100.156 84.3472 100.017C84.5079 99.8786 84.5882 99.6819 84.5882 99.427C84.5882 99.1831 84.5079 98.9919 84.3472 98.8534C84.192 98.7093 83.9564 98.6372 83.6406 98.6372H82.5432V100.225ZM82.5432 102.736H83.732C84.0479 102.736 84.2917 102.663 84.4635 102.519C84.6409 102.37 84.7296 102.162 84.7296 101.896C84.7296 101.624 84.6381 101.411 84.4552 101.256C84.2723 101.101 84.0257 101.023 83.7154 101.023H82.5432V102.736ZM88.1201 103.7C87.7654 103.7 87.4745 103.644 87.2472 103.534C87.02 103.417 86.851 103.265 86.7401 103.076C86.6293 102.888 86.5739 102.68 86.5739 102.453C86.5739 102.071 86.7235 101.76 87.0228 101.522C87.322 101.284 87.771 101.164 88.3695 101.164H89.4169V101.065C89.4169 100.782 89.3366 100.574 89.1758 100.441C89.0151 100.308 88.8156 100.242 88.5773 100.242C88.3612 100.242 88.1727 100.294 88.012 100.4C87.8513 100.499 87.7516 100.649 87.7128 100.848H86.6736C86.7013 100.549 86.8011 100.289 86.9729 100.067C87.1502 99.8454 87.3775 99.6764 87.6546 99.56C87.9317 99.438 88.242 99.3771 88.5856 99.3771C89.1731 99.3771 89.6358 99.524 89.9739 99.8177C90.312 100.111 90.481 100.527 90.481 101.065V103.6H89.5749L89.4751 102.935C89.3532 103.157 89.1814 103.34 88.9597 103.484C88.7436 103.628 88.4637 103.7 88.1201 103.7ZM88.3612 102.869C88.666 102.869 88.9015 102.769 89.0678 102.569C89.2396 102.37 89.3477 102.123 89.392 101.829H88.4859C88.2032 101.829 88.0009 101.882 87.879 101.987C87.7571 102.087 87.6961 102.212 87.6961 102.361C87.6961 102.522 87.7571 102.647 87.879 102.736C88.0009 102.824 88.1617 102.869 88.3612 102.869ZM91.4964 103.6V97.6147H92.5605V103.6H91.4964ZM95.0693 103.7C94.7146 103.7 94.4236 103.644 94.1964 103.534C93.9692 103.417 93.8001 103.265 93.6893 103.076C93.5785 102.888 93.523 102.68 93.523 102.453C93.523 102.071 93.6727 101.76 93.9719 101.522C94.2712 101.284 94.7201 101.164 95.3186 101.164H96.3661V101.065C96.3661 100.782 96.2857 100.574 96.125 100.441C95.9643 100.308 95.7648 100.242 95.5265 100.242C95.3103 100.242 95.1219 100.294 94.9612 100.4C94.8005 100.499 94.7007 100.649 94.6619 100.848H93.6228C93.6505 100.549 93.7503 100.289 93.9221 100.067C94.0994 99.8454 94.3266 99.6764 94.6037 99.56C94.8808 99.438 95.1912 99.3771 95.5348 99.3771C96.1222 99.3771 96.585 99.524 96.9231 99.8177C97.2611 100.111 97.4302 100.527 97.4302 101.065V103.6H96.524L96.4243 102.935C96.3024 103.157 96.1305 103.34 95.9089 103.484C95.6927 103.628 95.4129 103.7 95.0693 103.7ZM95.3103 102.869C95.6151 102.869 95.8507 102.769 96.0169 102.569C96.1887 102.37 96.2968 102.123 96.3411 101.829H95.435C95.1524 101.829 94.9501 101.882 94.8282 101.987C94.7063 102.087 94.6453 102.212 94.6453 102.361C94.6453 102.522 94.7063 102.647 94.8282 102.736C94.9501 102.824 95.1108 102.869 95.3103 102.869ZM98.4456 103.6V99.4768H99.3849L99.4681 100.175C99.5955 99.9313 99.7784 99.7373 100.017 99.5932C100.261 99.4491 100.546 99.3771 100.873 99.3771C101.383 99.3771 101.779 99.5378 102.062 99.8592C102.344 100.181 102.486 100.652 102.486 101.272V103.6H101.422V101.372C101.422 101.018 101.35 100.746 101.205 100.558C101.061 100.369 100.837 100.275 100.532 100.275C100.233 100.275 99.9863 100.38 99.7923 100.591C99.6039 100.801 99.5096 101.095 99.5096 101.472V103.6H98.4456ZM105.523 103.7C105.102 103.7 104.731 103.608 104.409 103.426C104.088 103.243 103.833 102.988 103.645 102.661C103.462 102.334 103.37 101.96 103.37 101.538C103.37 101.117 103.462 100.743 103.645 100.416C103.833 100.089 104.088 99.8343 104.409 99.6514C104.731 99.4685 105.102 99.3771 105.523 99.3771C106.05 99.3771 106.493 99.5156 106.853 99.7927C107.214 100.064 107.444 100.441 107.543 100.923H106.421C106.366 100.724 106.255 100.569 106.089 100.458C105.928 100.341 105.737 100.283 105.515 100.283C105.221 100.283 104.972 100.394 104.767 100.616C104.562 100.837 104.459 101.145 104.459 101.538C104.459 101.932 104.562 102.24 104.767 102.461C104.972 102.683 105.221 102.794 105.515 102.794C105.737 102.794 105.928 102.738 106.089 102.627C106.255 102.517 106.366 102.359 106.421 102.154H107.543C107.444 102.619 107.214 102.993 106.853 103.276C106.493 103.559 106.05 103.7 105.523 103.7ZM110.491 103.7C110.076 103.7 109.707 103.611 109.386 103.434C109.064 103.256 108.812 103.007 108.629 102.686C108.446 102.364 108.355 101.993 108.355 101.572C108.355 101.145 108.443 100.765 108.621 100.433C108.804 100.1 109.053 99.8426 109.369 99.6597C109.69 99.4713 110.067 99.3771 110.5 99.3771C110.904 99.3771 111.262 99.4658 111.572 99.6431C111.882 99.8204 112.123 100.064 112.295 100.375C112.472 100.679 112.561 101.02 112.561 101.397C112.561 101.458 112.558 101.522 112.553 101.588C112.553 101.655 112.55 101.724 112.545 101.796H109.411C109.433 102.118 109.544 102.37 109.743 102.553C109.948 102.736 110.195 102.827 110.483 102.827C110.699 102.827 110.879 102.78 111.023 102.686C111.173 102.586 111.284 102.458 111.356 102.303H112.436C112.359 102.564 112.229 102.802 112.046 103.018C111.868 103.229 111.647 103.395 111.381 103.517C111.12 103.639 110.824 103.7 110.491 103.7ZM110.5 100.242C110.239 100.242 110.009 100.316 109.81 100.466C109.61 100.61 109.483 100.832 109.427 101.131H111.48C111.464 100.86 111.364 100.643 111.181 100.483C110.998 100.322 110.771 100.242 110.5 100.242Z" fill="white"/>
<path d="M23.7877 125.822V125.044H25.1552V123.786H25.9481V125.044H27.3083V125.822H25.9481V127.081H25.1552V125.822H23.7877ZM30.3028 127.626C29.8324 127.626 29.4299 127.517 29.0953 127.299C28.7607 127.076 28.5013 126.768 28.317 126.375C28.1376 125.978 28.0479 125.517 28.0479 124.993C28.0479 124.474 28.1376 124.016 28.317 123.618C28.5013 123.221 28.7607 122.913 29.0953 122.695C29.4299 122.472 29.8324 122.36 30.3028 122.36C30.7732 122.36 31.1756 122.472 31.5102 122.695C31.8448 122.913 32.1019 123.221 32.2813 123.618C32.4655 124.016 32.5577 124.474 32.5577 124.993C32.5577 125.517 32.4655 125.978 32.2813 126.375C32.1019 126.768 31.8448 127.076 31.5102 127.299C31.1756 127.517 30.7732 127.626 30.3028 127.626ZM30.3028 126.79C30.6859 126.79 30.9986 126.63 31.2411 126.31C31.4836 125.99 31.6048 125.551 31.6048 124.993C31.6048 124.436 31.4836 123.997 31.2411 123.677C30.9986 123.357 30.6859 123.197 30.3028 123.197C29.9148 123.197 29.5996 123.357 29.3572 123.677C29.1196 123.997 29.0008 124.436 29.0008 124.993C29.0008 125.551 29.1196 125.99 29.3572 126.31C29.5996 126.63 29.9148 126.79 30.3028 126.79ZM32.7664 128.383L33.181 126.572H34.0829L33.3774 128.383H32.7664ZM36.6393 127.626C36.2902 127.626 35.975 127.566 35.6937 127.445C35.4124 127.318 35.1869 127.141 35.0172 126.914C34.8524 126.686 34.7699 126.421 34.7699 126.121C34.7699 125.81 34.8499 125.539 35.01 125.306C35.1748 125.073 35.3906 124.906 35.6573 124.804C35.4246 124.702 35.2403 124.557 35.1045 124.368C34.9687 124.174 34.9008 123.958 34.9008 123.72C34.9008 123.478 34.9663 123.255 35.0972 123.051C35.2282 122.843 35.4221 122.675 35.6791 122.549C35.941 122.423 36.2611 122.36 36.6393 122.36C37.0175 122.36 37.3352 122.423 37.5922 122.549C37.8492 122.675 38.0432 122.843 38.1741 123.051C38.305 123.255 38.3705 123.478 38.3705 123.72C38.3705 123.953 38.3002 124.169 38.1595 124.368C38.0238 124.562 37.8419 124.707 37.614 124.804C37.8856 124.906 38.1014 125.073 38.2614 125.306C38.4214 125.539 38.5014 125.81 38.5014 126.121C38.5014 126.421 38.419 126.686 38.2541 126.914C38.0892 127.141 37.8637 127.318 37.5776 127.445C37.2964 127.566 36.9836 127.626 36.6393 127.626ZM36.6393 124.528C36.8915 124.528 37.0903 124.462 37.2358 124.331C37.3812 124.2 37.454 124.033 37.454 123.829C37.454 123.606 37.3812 123.432 37.2358 123.306C37.0951 123.18 36.8963 123.117 36.6393 123.117C36.3774 123.117 36.1762 123.18 36.0356 123.306C35.8949 123.432 35.8246 123.606 35.8246 123.829C35.8246 124.038 35.8949 124.208 36.0356 124.339C36.181 124.465 36.3823 124.528 36.6393 124.528ZM36.6393 126.848C36.9497 126.848 37.1848 126.773 37.3449 126.623C37.5049 126.467 37.5849 126.273 37.5849 126.041C37.5849 125.784 37.5 125.582 37.3303 125.437C37.1654 125.291 36.9351 125.219 36.6393 125.219C36.3435 125.219 36.1083 125.291 35.9337 125.437C35.764 125.582 35.6791 125.784 35.6791 126.041C35.6791 126.273 35.7592 126.467 35.9192 126.623C36.0841 126.773 36.3241 126.848 36.6393 126.848ZM40.4647 124.95C40.2319 124.95 40.021 124.899 39.8319 124.797C39.6427 124.69 39.4924 124.54 39.3809 124.346C39.2693 124.152 39.2136 123.922 39.2136 123.655C39.2136 123.388 39.2693 123.158 39.3809 122.964C39.4924 122.77 39.6427 122.622 39.8319 122.52C40.021 122.413 40.2343 122.36 40.472 122.36C40.7047 122.36 40.9132 122.413 41.0975 122.52C41.2866 122.622 41.437 122.77 41.5485 122.964C41.66 123.158 41.7158 123.388 41.7158 123.655C41.7158 123.922 41.66 124.152 41.5485 124.346C41.437 124.54 41.2866 124.69 41.0975 124.797C40.9084 124.899 40.6974 124.95 40.4647 124.95ZM40.1883 127.539L43.0615 122.447H43.9707L41.0975 127.539H40.1883ZM40.4647 124.302C40.6053 124.302 40.7265 124.249 40.8284 124.142C40.9302 124.031 40.9811 123.868 40.9811 123.655C40.9811 123.441 40.9302 123.279 40.8284 123.167C40.7314 123.056 40.6102 123 40.4647 123C40.3192 123 40.1955 123.056 40.0937 123.167C39.9967 123.279 39.9482 123.441 39.9482 123.655C39.9482 123.868 39.9967 124.031 40.0937 124.142C40.1955 124.249 40.3192 124.302 40.4647 124.302ZM43.7234 127.626C43.4906 127.626 43.2797 127.575 43.0906 127.474C42.9014 127.367 42.7511 127.217 42.6396 127.023C42.528 126.829 42.4723 126.598 42.4723 126.332C42.4723 126.065 42.528 125.837 42.6396 125.648C42.7511 125.454 42.9014 125.306 43.0906 125.204C43.2797 125.097 43.493 125.044 43.7307 125.044C43.9634 125.044 44.1719 125.097 44.3562 125.204C44.5453 125.306 44.6957 125.454 44.8072 125.648C44.9187 125.837 44.9745 126.065 44.9745 126.332C44.9745 126.598 44.9187 126.829 44.8072 127.023C44.6957 127.217 44.5453 127.367 44.3562 127.474C44.1719 127.575 43.961 127.626 43.7234 127.626ZM43.7234 126.979C43.8689 126.979 43.9901 126.926 44.0871 126.819C44.1889 126.707 44.2398 126.545 44.2398 126.332C44.2398 126.118 44.1889 125.956 44.0871 125.844C43.9901 125.733 43.8689 125.677 43.7234 125.677C43.5779 125.677 43.4543 125.733 43.3524 125.844C43.2554 125.956 43.2069 126.118 43.2069 126.332C43.2069 126.545 43.2554 126.707 43.3524 126.819C43.4543 126.926 43.5779 126.979 43.7234 126.979ZM48.9268 127.539C48.597 127.539 48.3376 127.459 48.1485 127.299C47.9593 127.139 47.8648 126.85 47.8648 126.433V124.448H47.2392V123.931H47.8648L47.9448 123.066H48.4758V123.931H49.5378V124.448H48.4758V126.433C48.4758 126.661 48.5219 126.817 48.614 126.899C48.7061 126.977 48.8686 127.015 49.1013 127.015H49.4796V127.539H48.9268ZM50.314 127.539V122.302H50.925V124.549C51.0463 124.326 51.2184 124.154 51.4415 124.033C51.6646 123.907 51.907 123.844 52.1689 123.844C52.5859 123.844 52.9205 123.975 53.1727 124.237C53.4248 124.494 53.5509 124.891 53.5509 125.43V127.539H52.9472V125.495C52.9472 124.743 52.6441 124.368 52.0379 124.368C51.7227 124.368 51.4585 124.482 51.2451 124.71C51.0317 124.933 50.925 125.253 50.925 125.67V127.539H50.314ZM55.6768 127.626C55.3762 127.626 55.1264 127.575 54.9276 127.474C54.7288 127.372 54.5809 127.236 54.4839 127.066C54.3869 126.897 54.3384 126.712 54.3384 126.513C54.3384 126.145 54.4791 125.861 54.7603 125.662C55.0416 125.464 55.4247 125.364 55.9096 125.364H56.8843V125.321C56.8843 125.005 56.8018 124.768 56.637 124.608C56.4721 124.443 56.2515 124.36 55.9751 124.36C55.7374 124.36 55.5313 124.421 55.3568 124.542C55.187 124.659 55.0804 124.831 55.0367 125.059H54.4112C54.4354 124.797 54.5227 124.576 54.673 124.397C54.8282 124.217 55.0197 124.082 55.2477 123.989C55.4756 123.892 55.718 123.844 55.9751 123.844C56.4794 123.844 56.8576 123.98 57.1098 124.251C57.3668 124.518 57.4953 124.874 57.4953 125.321V127.539H56.9498L56.9134 126.892C56.8115 127.095 56.6612 127.27 56.4624 127.415C56.2684 127.556 56.0066 127.626 55.6768 127.626ZM55.7714 127.11C56.0041 127.11 56.203 127.049 56.3678 126.928C56.5376 126.807 56.6661 126.649 56.7534 126.455C56.8406 126.261 56.8843 126.058 56.8843 125.844V125.837H55.9605C55.6017 125.837 55.3471 125.9 55.1967 126.026C55.0513 126.147 54.9785 126.3 54.9785 126.484C54.9785 126.673 55.0464 126.826 55.1822 126.943C55.3228 127.054 55.5192 127.11 55.7714 127.11ZM58.4119 127.539V123.931H58.9647L59.0011 124.579C59.1175 124.351 59.2848 124.171 59.503 124.04C59.7212 123.909 59.9685 123.844 60.2449 123.844C60.6717 123.844 61.0111 123.975 61.2633 124.237C61.5203 124.494 61.6488 124.891 61.6488 125.43V127.539H61.0378V125.495C61.0378 124.743 60.7274 124.368 60.1067 124.368C59.7964 124.368 59.5369 124.482 59.3284 124.71C59.1248 124.933 59.0229 125.253 59.0229 125.67V127.539H58.4119ZM64.4995 127.539V122.302H65.1105V127.539H64.4995ZM67.3122 127.626C67.0115 127.626 66.7618 127.575 66.563 127.474C66.3642 127.372 66.2163 127.236 66.1193 127.066C66.0223 126.897 65.9738 126.712 65.9738 126.513C65.9738 126.145 66.1144 125.861 66.3957 125.662C66.6769 125.464 67.06 125.364 67.545 125.364H68.5197V125.321C68.5197 125.005 68.4372 124.768 68.2723 124.608C68.1075 124.443 67.8868 124.36 67.6104 124.36C67.3728 124.36 67.1667 124.421 66.9921 124.542C66.8224 124.659 66.7157 124.831 66.6721 125.059H66.0465C66.0708 124.797 66.1581 124.576 66.3084 124.397C66.4636 124.217 66.6551 124.082 66.883 123.989C67.111 123.892 67.3534 123.844 67.6104 123.844C68.1147 123.844 68.493 123.98 68.7452 124.251C69.0022 124.518 69.1307 124.874 69.1307 125.321V127.539H68.5851L68.5488 126.892C68.4469 127.095 68.2966 127.27 68.0978 127.415C67.9038 127.556 67.6419 127.626 67.3122 127.626ZM67.4068 127.11C67.6395 127.11 67.8383 127.049 68.0032 126.928C68.1729 126.807 68.3014 126.649 68.3887 126.455C68.476 126.261 68.5197 126.058 68.5197 125.844V125.837H67.5959C67.237 125.837 66.9824 125.9 66.8321 126.026C66.6866 126.147 66.6139 126.3 66.6139 126.484C66.6139 126.673 66.6818 126.826 66.8176 126.943C66.9582 127.054 67.1546 127.11 67.4068 127.11ZM71.4293 127.626C70.9977 127.626 70.6389 127.517 70.3528 127.299C70.0667 127.081 69.8994 126.785 69.8509 126.412H70.4765C70.5152 126.601 70.6147 126.766 70.7747 126.906C70.9396 127.042 71.1602 127.11 71.4366 127.11C71.6936 127.11 71.8827 127.057 72.004 126.95C72.1252 126.838 72.1858 126.707 72.1858 126.557C72.1858 126.339 72.1058 126.193 71.9458 126.121C71.7906 126.048 71.57 125.982 71.2839 125.924C71.0899 125.885 70.8959 125.83 70.7019 125.757C70.508 125.684 70.3455 125.582 70.2146 125.451C70.0837 125.316 70.0182 125.139 70.0182 124.92C70.0182 124.605 70.1346 124.348 70.3673 124.149C70.605 123.946 70.925 123.844 71.3275 123.844C71.7106 123.844 72.0234 123.941 72.2658 124.135C72.5131 124.324 72.6562 124.596 72.695 124.95H72.0913C72.067 124.765 71.987 124.622 71.8512 124.52C71.7203 124.414 71.5433 124.36 71.3202 124.36C71.102 124.36 70.9323 124.406 70.8111 124.499C70.6947 124.591 70.6365 124.712 70.6365 124.862C70.6365 125.008 70.7116 125.122 70.862 125.204C71.0171 125.287 71.2257 125.357 71.4875 125.415C71.7106 125.464 71.9215 125.524 72.1204 125.597C72.324 125.665 72.4889 125.769 72.615 125.91C72.7459 126.045 72.8114 126.244 72.8114 126.506C72.8162 126.831 72.6926 127.1 72.4404 127.314C72.1931 127.522 71.8561 127.626 71.4293 127.626ZM74.9465 127.539C74.6168 127.539 74.3574 127.459 74.1682 127.299C73.9791 127.139 73.8846 126.85 73.8846 126.433V124.448H73.259V123.931H73.8846L73.9646 123.066H74.4956V123.931H75.5575V124.448H74.4956V126.433C74.4956 126.661 74.5416 126.817 74.6338 126.899C74.7259 126.977 74.8883 127.015 75.1211 127.015H75.4994V127.539H74.9465ZM78.9862 127.539L77.9315 123.931H78.5425L79.3063 126.761L80.15 123.931H80.8411L81.6921 126.761L82.4486 123.931H83.0669L82.0122 127.539H81.3866L80.4992 124.564L79.6118 127.539H78.9862ZM85.2298 127.626C84.8855 127.626 84.58 127.549 84.3133 127.394C84.0465 127.234 83.8356 127.013 83.6804 126.732C83.5301 126.45 83.4549 126.118 83.4549 125.735C83.4549 125.357 83.5301 125.027 83.6804 124.746C83.8308 124.46 84.0393 124.239 84.306 124.084C84.5775 123.924 84.8903 123.844 85.2443 123.844C85.5935 123.844 85.8941 123.924 86.1463 124.084C86.4033 124.239 86.5997 124.445 86.7355 124.702C86.8712 124.959 86.9391 125.236 86.9391 125.531C86.9391 125.585 86.9367 125.638 86.9319 125.691C86.9319 125.745 86.9319 125.805 86.9319 125.873H84.0587C84.0732 126.15 84.1363 126.38 84.2478 126.564C84.3642 126.744 84.5072 126.88 84.677 126.972C84.8515 127.064 85.0358 127.11 85.2298 127.11C85.4819 127.11 85.6929 127.052 85.8626 126.935C86.0323 126.819 86.156 126.661 86.2336 126.463H86.8373C86.7403 126.797 86.5536 127.076 86.2772 127.299C86.0056 127.517 85.6565 127.626 85.2298 127.626ZM85.2298 124.36C84.9388 124.36 84.6794 124.45 84.4515 124.63C84.2284 124.804 84.0999 125.061 84.0659 125.401H86.3354C86.3209 125.076 86.2093 124.821 86.0008 124.637C85.7923 124.453 85.5353 124.36 85.2298 124.36ZM89.3711 127.626C89.0268 127.626 88.7213 127.549 88.4545 127.394C88.1878 127.234 87.9769 127.013 87.8217 126.732C87.6714 126.45 87.5962 126.118 87.5962 125.735C87.5962 125.357 87.6714 125.027 87.8217 124.746C87.972 124.46 88.1806 124.239 88.4473 124.084C88.7188 123.924 89.0316 123.844 89.3856 123.844C89.7347 123.844 90.0354 123.924 90.2876 124.084C90.5446 124.239 90.741 124.445 90.8767 124.702C91.0125 124.959 91.0804 125.236 91.0804 125.531C91.0804 125.585 91.078 125.638 91.0731 125.691C91.0731 125.745 91.0731 125.805 91.0731 125.873H88.2C88.2145 126.15 88.2775 126.38 88.3891 126.564C88.5055 126.744 88.6485 126.88 88.8182 126.972C88.9928 127.064 89.1771 127.11 89.3711 127.11C89.6232 127.11 89.8342 127.052 90.0039 126.935C90.1736 126.819 90.2973 126.661 90.3748 126.463H90.9786C90.8816 126.797 90.6949 127.076 90.4185 127.299C90.1469 127.517 89.7978 127.626 89.3711 127.626ZM89.3711 124.36C89.0801 124.36 88.8207 124.45 88.5927 124.63C88.3697 124.804 88.2412 125.061 88.2072 125.401H90.4767C90.4621 125.076 90.3506 124.821 90.1421 124.637C89.9336 124.453 89.6766 124.36 89.3711 124.36ZM91.8903 127.539V122.302H92.5013V125.451L93.9779 123.931H94.7271L93.1268 125.561L94.9307 127.539H94.1524L92.5013 125.67V127.539H91.8903Z" fill="white"/>
<g filter="url(#filter0_d_860_10266)">
<rect x="23" y="32" width="22" height="22" rx="11" fill="#F7931A"/>
<path d="M38.4824 41.5257C38.6593 40.3428 37.7587 39.7069 36.5272 39.2827L36.9267 37.6804L35.9513 37.4373L35.5624 38.9975C35.306 38.9335 35.0426 38.8733 34.7809 38.8135L35.1726 37.243L34.1978 37L33.7981 38.6018C33.5859 38.5535 33.3775 38.5058 33.1753 38.4555L33.1764 38.4504L31.8313 38.1145L31.5718 39.1563C31.5718 39.1563 32.2955 39.3222 32.2802 39.3324C32.6752 39.431 32.7467 39.6925 32.7348 39.8997L32.2797 41.7252C32.3069 41.7321 32.3422 41.7421 32.3811 41.7577C32.3486 41.7497 32.314 41.7408 32.278 41.7322L31.6402 44.2895C31.5919 44.4095 31.4694 44.5896 31.1932 44.5212C31.203 44.5353 30.4843 44.3442 30.4843 44.3442L30 45.4608L31.2693 45.7772C31.5055 45.8364 31.7369 45.8984 31.9648 45.9566L31.5611 47.5774L32.5354 47.8204L32.9351 46.2169C33.2013 46.2892 33.4596 46.3558 33.7125 46.4186L33.3141 48.0146L34.2895 48.2577L34.6931 46.64C36.3564 46.9547 37.6071 46.8278 38.1335 45.3234C38.5577 44.1121 38.1124 43.4135 37.2373 42.9579C37.8747 42.8109 38.3547 42.3917 38.4827 41.5258L38.4824 41.5256L38.4824 41.5257ZM36.2538 44.6507C35.9523 45.862 33.913 45.2072 33.2518 45.043L33.7874 42.8958C34.4486 43.0609 36.5688 43.3875 36.2538 44.6507H36.2538ZM36.5554 41.5081C36.2805 42.6099 34.5831 42.0501 34.0325 41.9129L34.5181 39.9655C35.0687 40.1028 36.8419 40.3589 36.5555 41.5081H36.5554Z" fill="white"/>
</g>
<defs>
<filter id="filter0_d_860_10266" x="2.58932" y="16.692" width="62.8214" height="62.8214" filterUnits="userSpaceOnUse" color-interpolation-filters="sRGB">
<feFlood flood-opacity="0" result="BackgroundImageFix"/>
<feColorMatrix in="SourceAlpha" type="matrix" values="0 0 0 0 0 0 0 0 0 0 0 0 0 0 0 0 0 0 127 0" result="hardAlpha"/>
<feOffset dy="5.10267"/>
<feGaussianBlur stdDeviation="10.2053"/>
<feColorMatrix type="matrix" values="0 0 0 0 0 0 0 0 0 0 0 0 0 0 0 0 0 0 0.08 0"/>
<feBlend mode="normal" in2="BackgroundImageFix" result="effect1_dropShadow_860_10266"/>
<feBlend mode="normal" in="SourceGraphic" in2="effect1_dropShadow_860_10266" result="shape"/>
</filter>
</defs>
</svg>

