<svg width="33" height="32" viewBox="0 0 33 32" fill="none" xmlns="http://www.w3.org/2000/svg">
<path d="M12.0367 30.6663C13.6369 30.6759 15.2231 30.3677 16.7033 29.7597C18.182 30.3729 19.7693 30.6813 21.37 30.6663C26.23 30.6663 30.0367 28.073 30.0367 24.761V19.2383C30.0367 15.9263 26.23 13.333 21.37 13.333C21.1447 13.333 20.9233 13.3437 20.7033 13.3557V7.11034C20.7033 3.86634 16.8967 1.33301 12.0367 1.33301C7.17666 1.33301 3.37 3.86634 3.37 7.11034V24.889C3.37 28.133 7.17666 30.6663 12.0367 30.6663ZM27.37 24.761C27.37 26.293 24.906 27.9997 21.37 27.9997C17.834 27.9997 15.37 26.293 15.37 24.761V23.5277C17.1756 24.6258 19.2571 25.186 21.37 25.1423C23.4829 25.186 25.5644 24.6258 27.37 23.5277V24.761ZM21.37 15.9997C24.906 15.9997 27.37 17.7063 27.37 19.2383C27.37 20.7703 24.906 22.4757 21.37 22.4757C17.834 22.4757 15.37 20.769 15.37 19.2383C15.37 17.7077 17.834 15.9997 21.37 15.9997ZM12.0367 3.99968C15.5727 3.99968 18.0367 5.63968 18.0367 7.11034C18.0367 8.58101 15.5727 10.2223 12.0367 10.2223C8.50066 10.2223 6.03666 8.58234 6.03666 7.11034C6.03666 5.63834 8.50066 3.99968 12.0367 3.99968ZM6.03666 11.309C7.84981 12.3858 9.92834 12.9331 12.0367 12.889C14.145 12.9331 16.2235 12.3858 18.0367 11.309V13.773C16.5835 14.1393 15.2509 14.8777 14.17 15.9157C13.469 16.0674 12.7539 16.1451 12.0367 16.1477C8.50066 16.1477 6.03666 14.5077 6.03666 13.037V11.309ZM6.03666 17.2357C7.8502 18.3114 9.92854 18.8582 12.0367 18.8143C12.274 18.8143 12.5033 18.785 12.7367 18.773C12.7168 18.9274 12.7057 19.0827 12.7033 19.2383V22.0183C12.4793 22.0317 12.2633 22.0743 12.0367 22.0743C8.50066 22.0743 6.03666 20.4343 6.03666 18.9623V17.2357ZM6.03666 23.161C7.84981 24.2378 9.92834 24.7851 12.0367 24.741C12.2607 24.741 12.4807 24.7237 12.7033 24.713V24.761C12.7224 25.896 13.1586 26.9843 13.9287 27.8183C13.3048 27.9361 12.6715 27.9968 12.0367 27.9997C8.50066 27.9997 6.03666 26.3597 6.03666 24.889V23.161Z" fill="white"/>
</svg>
