<svg width="494" height="398" viewBox="0 0 494 398" fill="none" xmlns="http://www.w3.org/2000/svg">
<path fill-rule="evenodd" clip-rule="evenodd" d="M402.285 397.339C402.285 397.339 400.36 397.3 386.49 397.3C378.908 397.3 377.415 389.049 377.415 389.049L391.716 387.91L399.731 378.441C399.731 378.441 403.424 384.688 424.051 369.797L431.477 381.231L402.285 397.339Z" fill="white"/>
<path fill-rule="evenodd" clip-rule="evenodd" d="M404.957 368.186L419.572 362.411L424.248 369.365C424.248 369.365 416.665 375.848 408.807 379.227C403.503 381.505 399.731 375.651 399.731 375.651L404.957 368.186Z" fill="white"/>
<path fill-rule="evenodd" clip-rule="evenodd" d="M402.285 394.589C402.285 394.589 400.36 394.549 386.491 394.549C380.636 394.549 377.179 388.813 377.179 388.813L391.716 385.12L399.731 375.651C399.731 375.651 402.678 382.212 423.305 367.322L430.063 379.109L402.285 394.589Z" fill="#7165E3"/>
<path fill-rule="evenodd" clip-rule="evenodd" d="M314.316 388.812C314.316 388.812 314.316 397.299 323.627 397.299C337.496 397.299 371.089 397.299 371.089 397.299V394.549C353.173 395.845 344.765 384.805 344.765 384.805L314.316 388.812Z" fill="white"/>
<path fill-rule="evenodd" clip-rule="evenodd" d="M341.897 382.29L350.344 377.575L367.239 377.379L370.578 394.273C370.578 394.273 347.987 393.37 342.29 390.148C336.593 386.926 341.897 382.29 341.897 382.29Z" fill="white"/>
<path fill-rule="evenodd" clip-rule="evenodd" d="M314.316 388.812L343.704 381.033C343.704 381.033 343.547 388.223 367.985 381.151L371.089 394.509C371.089 394.509 337.457 394.509 323.627 394.509C317.773 394.548 314.316 388.812 314.316 388.812Z" fill="#7165E3"/>
<path fill-rule="evenodd" clip-rule="evenodd" d="M416.468 355.966C416.468 356.006 416.468 356.006 416.468 355.966C416.508 356.006 416.508 356.006 416.508 356.006L419.612 362.881L419.572 362.921C419.415 363.471 416.154 365.317 412.068 367.164C407.943 369.01 404.446 370.189 403.896 369.953L403.817 369.993L400.753 363.196C398.67 362.528 396.902 360.995 396.038 358.874L372.818 300.725L369.675 365.749C369.596 367.635 368.732 369.325 367.396 370.504V377.693H367.357C366.964 378.126 363.27 378.479 358.752 378.479C354.234 378.479 350.541 378.126 350.148 377.693H350.069V370.896C348.694 369.718 347.79 367.989 347.672 366.064L343.311 278.291C342.958 271.415 344.097 264.54 346.572 258.135L355.137 236.173C355.137 236.173 355.295 183.014 355.137 176.413L415.918 164.626C415.997 167.848 416.311 170.795 416.626 188.514C416.822 199.673 397.334 234.562 384.683 256.014L416.547 350.859C417.136 352.587 417.097 354.395 416.468 355.966ZM355.137 176.413H355.059C355.098 175.47 355.137 175.549 355.137 176.413Z" fill="#3F3E3D"/>
<path d="M387.041 189.733C387.041 189.733 385.823 201.873 393.877 208.395" stroke="black" stroke-width="0.78579" stroke-miterlimit="10" stroke-linecap="round"/>
<path d="M400.871 186.275C400.871 186.275 401.931 193.465 399.024 199.477C388.337 221.597 361.502 273.144 361.502 273.144L358.792 372.35" stroke="black" stroke-width="0.78579" stroke-miterlimit="10" stroke-linecap="round"/>
<path d="M355.137 236.173L369.792 201.834" stroke="black" stroke-width="0.78579" stroke-miterlimit="10" stroke-linecap="round"/>
<path fill-rule="evenodd" clip-rule="evenodd" d="M372.818 300.687L374.154 273.498C374.154 273.498 378.986 265.798 385.351 254.954C385.155 255.307 384.919 255.661 384.723 256.014L386.962 262.615C387.748 268.98 387.276 276.406 383.622 282.299C377.218 292.632 375.49 303.751 379.851 318.249L372.818 300.687Z" fill="black"/>
<path d="M409.514 361.939L378.711 280.845" stroke="black" stroke-width="0.78579" stroke-miterlimit="10" stroke-linecap="round"/>
<path fill-rule="evenodd" clip-rule="evenodd" d="M349.283 370.111C349.401 370.229 349.519 370.386 349.637 370.504C349.519 370.386 349.401 370.268 349.283 370.111ZM416.861 354.552C416.822 354.709 416.822 354.827 416.783 354.984C416.783 354.827 416.822 354.67 416.861 354.552ZM416.704 355.22C416.665 355.299 416.665 355.377 416.626 355.495C416.665 355.417 416.665 355.338 416.704 355.22ZM416.901 354.317C416.901 354.238 416.94 354.12 416.94 354.042C416.901 354.159 416.901 354.238 416.901 354.317ZM400.753 363.196C400.635 363.157 400.556 363.117 400.438 363.078C401.696 363.55 403.071 363.667 404.446 363.392C405.9 363.117 407.51 362.646 409.239 361.899C411.086 361.114 412.697 360.171 413.993 359.228C415.172 358.363 416.036 357.224 416.508 355.927C416.508 355.967 416.508 355.967 416.469 356.006L416.508 356.045L419.612 362.921L419.572 362.96C419.572 362.999 419.494 363.078 419.455 363.157C413.954 362.214 403.857 365.082 401.853 365.632L400.753 363.196ZM368.221 369.561C368.103 369.718 367.985 369.875 367.828 369.993C367.985 369.875 368.103 369.718 368.221 369.561ZM367.828 370.032C367.71 370.15 367.592 370.268 367.435 370.386C367.592 370.268 367.71 370.15 367.828 370.032ZM353.527 372.429C354.941 372.586 356.631 372.704 358.516 372.625C360.835 372.547 362.681 372.311 364.213 372.036C365.431 371.8 366.532 371.25 367.396 370.464C367.396 370.464 367.396 370.465 367.357 370.504V377.694H367.317C367.239 377.772 367.042 377.851 366.767 377.929C362.249 375.219 352.82 374.04 350.069 373.726V370.897C349.951 370.818 349.833 370.7 349.755 370.582C350.737 371.565 352.073 372.233 353.527 372.429Z" fill="black"/>
<path fill-rule="evenodd" clip-rule="evenodd" d="M458.98 107.657C462.398 111.114 464.834 114.297 464.362 114.729C463.93 115.161 459.687 113.943 456.269 110.486C452.85 107.028 451.515 102.628 451.947 102.196C452.379 101.763 455.522 104.199 458.98 107.657Z" fill="black"/>
<path fill-rule="evenodd" clip-rule="evenodd" d="M418.079 182.739C415.918 186.433 408.1 190.008 386.373 192.522C365.785 194.919 357.613 193.583 354.666 190.99C351.483 188.161 351.287 184.664 351.366 180.736L418.276 172.17C419.572 175.549 420.358 178.81 418.079 182.739Z" fill="#5766AC"/>
<path fill-rule="evenodd" clip-rule="evenodd" d="M459.058 120.072C460.237 123.412 459.49 127.302 456.78 129.973L444.6 141.957C437.135 149.304 425.426 149.736 417.49 143.214C418.04 145.178 418.708 147.575 419.572 150.483C421.93 158.38 427.391 164.47 422.558 172.681C420.005 177.003 410.85 181.207 385.351 184.193C361.149 187.022 351.562 185.45 348.105 182.425C341.072 176.217 346.533 167.181 342.958 157.515C340.797 151.74 311.762 128.559 311.762 128.559C311.762 128.559 331.603 107.853 342.761 103.217C348.733 100.742 358.084 99.7991 358.084 99.7991C358.084 99.7991 359.381 90.2124 375.961 88.3658C392.58 86.5192 396.038 96.538 396.038 96.538C396.038 96.538 404.957 95.6344 413.954 100.035C416.036 101.056 418.276 103.178 420.397 105.692L430.377 115.554L436.545 109.464C439.256 106.793 443.146 106.085 446.486 107.343L451.79 102.078L451.868 102.156C451.436 102.589 453.833 105.771 457.251 109.229C460.669 112.686 463.812 115.161 464.284 114.69L464.323 114.729L459.058 120.072Z" fill="#7165E3"/>
<path fill-rule="evenodd" clip-rule="evenodd" d="M336.907 136.417C336.907 136.417 326.181 128.402 322.331 120.23C322.095 119.758 321.899 119.287 321.741 118.855C322.724 117.951 323.706 117.047 324.767 116.144C324.806 116.183 324.806 116.222 324.845 116.262C328.696 124.434 339.422 132.449 339.422 132.449L336.907 136.417ZM330.582 111.193C333.175 115.397 337.182 119.365 340.168 121.998V128.088C337.339 125.809 330.621 119.955 327.36 113.865C328.421 112.961 329.481 112.058 330.582 111.193ZM415.801 131.702L413.325 127.734C413.325 127.734 423.187 120.348 427.391 112.568L430.377 115.515C426.527 123.727 415.801 131.702 415.801 131.702ZM424.837 110.054C421.458 115.79 415.84 121.094 413.168 123.294L412.579 117.322C415.408 114.808 419.219 111.075 421.812 107.068L424.837 110.054Z" fill="white"/>
<path fill-rule="evenodd" clip-rule="evenodd" d="M379.261 110.289C378.986 110.446 378.594 110.486 378.279 110.329C367.003 105.889 363.231 100.546 364.96 96.2237C366.964 91.1946 375.725 90.841 377.218 90.8017C380.087 90.3696 386.648 89.8588 389.202 93.6306C391.834 97.481 389.32 103.532 379.261 110.289Z" fill="black"/>
<path fill-rule="evenodd" clip-rule="evenodd" d="M371.364 96.2632C371.364 96.2632 368.889 97.3633 369.007 99.9957C369.321 106.753 378.711 109.622 378.711 109.622C378.711 109.622 386.019 105.457 385.901 99.4063C385.901 98.9742 371.364 96.2632 371.364 96.2632Z" fill="white"/>
<path d="M458.626 120.23C458.194 120.662 455.051 118.226 451.593 114.768C448.175 111.311 445.739 108.128 446.211 107.696" stroke="black" stroke-width="0.78579" stroke-miterlimit="10" stroke-linecap="round"/>
<path fill-rule="evenodd" clip-rule="evenodd" d="M373.721 140.778C374.389 140.778 374.979 141.328 374.979 141.996C374.979 142.664 374.429 143.214 373.721 143.214C373.053 143.214 372.464 142.664 372.464 141.996C372.464 141.328 373.053 140.778 373.721 140.778Z" fill="white"/>
<path fill-rule="evenodd" clip-rule="evenodd" d="M389.752 140.11C390.42 140.11 391.009 140.66 391.009 141.328C391.009 141.996 390.459 142.546 389.752 142.546C389.084 142.546 388.494 141.996 388.494 141.328C388.494 140.66 389.084 140.11 389.752 140.11Z" fill="white"/>
<path d="M396.195 104.946C396.195 104.946 390.105 111.154 380.833 112.883" stroke="black" stroke-width="0.78579" stroke-miterlimit="10" stroke-linecap="round"/>
<path d="M361.463 107.932C361.463 107.932 368.496 113.079 377.886 113.236" stroke="black" stroke-width="0.78579" stroke-miterlimit="10" stroke-linecap="round"/>
<path d="M422.559 172.681C420.005 177.003 410.85 181.207 385.351 184.193C361.149 187.022 351.562 185.45 348.105 182.425" stroke="black" stroke-width="0.78579" stroke-miterlimit="10" stroke-linecap="round"/>
<path d="M412.5 114.611C412.5 114.611 412.343 127.066 417.844 140.503" stroke="black" stroke-width="0.78579" stroke-miterlimit="10" stroke-linecap="round"/>
<path fill-rule="evenodd" clip-rule="evenodd" d="M423.698 146.672C421.537 145.925 419.454 144.786 417.608 143.293C416.076 140.032 413.836 133.431 412.814 121.526C413.679 126.477 415.368 130.72 418.904 133.392C424.051 137.36 425.387 143.175 423.698 146.672Z" fill="black"/>
<path d="M385.823 107.736C385.823 107.736 390.695 112.568 391.324 126.752C391.795 138.107 388.927 146.24 388.927 146.24" stroke="white" stroke-width="0.78579" stroke-miterlimit="10" stroke-linecap="round" stroke-linejoin="round"/>
<path d="M371.954 109.74C371.954 109.74 364.017 115.28 370.932 129.974C375.411 139.482 373.957 147.261 373.957 147.261" stroke="white" stroke-width="0.78579" stroke-miterlimit="10" stroke-linecap="round" stroke-linejoin="round"/>
<path fill-rule="evenodd" clip-rule="evenodd" d="M491.669 86.8336C488.997 88.7195 479.057 95.3987 479.057 95.3987C479.057 95.3987 484.361 93.7878 487.897 92.5305C490.922 91.4697 491.747 92.9627 489.076 94.495C487.347 95.4772 483.3 97.4417 478.782 99.7205C470.688 106.675 466.602 106.753 466.091 107.461C464.363 109.7 463.066 111.429 462.162 112.647C461.023 111.704 459.726 110.486 458.351 109.111C455.09 105.81 452.733 102.785 452.929 102.117C454.619 100.428 456.033 98.974 456.033 98.974C456.033 98.974 455.405 96.5774 457.291 93.6306C459.176 90.7232 466.524 79.8007 467.742 78.6613C468.959 77.5219 469.981 79.6436 467.742 83.6118C463.341 91.4304 469.627 87.4622 469.627 87.4622C469.627 87.4622 479.489 79.9186 481.807 77.9934C484.99 75.3217 486.876 76.4218 484.4 79.0935C480.432 83.4154 476.071 87.5408 476.071 87.5408C476.071 87.5408 486.011 82.0402 488.761 80.6651C491.905 79.0935 492.022 81.333 490.333 82.5117C485.972 85.537 477.878 90.9197 477.878 90.9197C477.878 90.9197 485.147 87.5015 490.412 84.7119C493.123 83.2975 494.576 84.7905 491.669 86.8336Z" fill="#F28C3B"/>
<path d="M474.578 87.3442C474.578 87.3442 479.096 91.9018 478.782 97.2452" stroke="black" stroke-width="0.78579" stroke-miterlimit="10" stroke-linecap="round"/>
<path d="M466.838 91.3911C466.838 91.3911 467.506 97.9132 461.73 101.724" stroke="black" stroke-width="0.78579" stroke-miterlimit="10" stroke-linecap="round"/>
<path fill-rule="evenodd" clip-rule="evenodd" d="M393.209 74.2606C393.209 74.2606 393.209 74.2999 393.209 74.3392C393.366 74.8893 393.484 75.4786 393.484 76.0679C393.484 79.329 390.812 81.9614 387.551 81.9614C384.29 81.9614 381.619 79.329 381.619 76.0679C381.619 74.4571 382.247 73.0034 383.308 71.9425C383.308 69.428 383.505 67.2278 383.505 67.2278C383.505 67.2278 384.88 64.9883 387.08 66.167C388.691 67.0313 388.612 68.7994 388.612 68.7994C388.612 68.7994 392.109 67.385 393.838 69.8995C394.977 71.7068 393.209 74.2606 393.209 74.2606ZM359.342 82.3935C356.984 80.5077 357.613 77.9931 357.613 77.9931C357.613 77.9931 354.548 75.9501 356.002 72.8069C356.906 70.8031 359.892 71.0389 359.892 71.0389L360.206 69.9388L364.842 67.5421L366.414 82.6686C366.414 82.7472 362.72 85.1045 359.342 82.3935Z" fill="black"/>
<path fill-rule="evenodd" clip-rule="evenodd" d="M367.514 82.9824H384.094L385.901 99.4054C385.901 99.4054 383.701 103.884 377.218 103.884C370.46 103.884 369.007 100.27 369.007 100.27L367.514 82.9824Z" fill="#F28C3B"/>
<path fill-rule="evenodd" clip-rule="evenodd" d="M384.408 85.1433L385.469 95.2408C383.111 97.4017 378.672 98.0696 374.507 96.3801C371.678 95.2408 369.478 93.3156 368.339 91.1939L367.789 85.772C368.26 84.5933 369.124 83.6503 370.264 82.9824H380.4C381.933 83.6503 383.308 84.0825 384.408 85.1433Z" fill="black"/>
<path fill-rule="evenodd" clip-rule="evenodd" d="M385.98 79.0145C386.058 79.6039 386.176 80.1932 386.255 80.8219C386.333 81.1755 386.412 81.5684 386.451 81.9613C387.08 87.5404 382.797 92.8444 376.865 93.7481C372.307 94.4553 368.142 92.4123 366.139 88.8762C365.549 87.9333 365.156 86.8332 364.999 85.4973C364.803 83.8864 364.724 82.5113 364.685 81.2541C363.663 81.2933 362.76 80.429 362.603 79.1717C362.445 77.8751 363.231 76.6572 364.331 76.4607C364.41 76.4607 364.528 76.4607 364.606 76.4607C364.606 74.4963 364.606 72.4925 364.292 69.8208C363.899 66.2062 371.207 61.9629 372.896 61.02V60.9021C372.896 60.9021 372.975 60.9021 373.093 60.9414C373.211 60.8628 373.289 60.8628 373.289 60.8628V60.9807C375.136 61.3736 383.151 63.2202 383.583 66.8348C383.937 70.0172 384.487 72.1389 384.998 74.3391C385.115 74.2998 385.194 74.2605 385.312 74.2605C386.412 74.1034 387.434 75.007 387.591 76.3036C387.748 77.6394 387.041 78.7788 385.98 79.0145Z" fill="#F28C3B"/>
<path d="M380.872 70.999C380.872 70.999 378.475 70.5668 376.786 71.1561" stroke="black" stroke-width="0.78579" stroke-miterlimit="10" stroke-linecap="round"/>
<path d="M367.396 72.8066C367.396 72.8066 369.596 71.7458 371.403 71.8636" stroke="black" stroke-width="0.78579" stroke-miterlimit="10" stroke-linecap="round"/>
<path d="M373.957 73.5928C373.957 73.5928 374.075 75.0858 373.682 77.7575C373.328 80.0755 375.332 80.1148 375.332 80.1148" stroke="black" stroke-width="0.78579" stroke-miterlimit="10" stroke-linecap="round"/>
<path fill-rule="evenodd" clip-rule="evenodd" d="M369.832 74.8498C370.343 74.7712 370.775 75.1248 370.853 75.6356C370.932 76.1464 370.578 76.5785 370.068 76.6571C369.557 76.7357 369.125 76.3821 369.046 75.8713C368.968 75.3606 369.321 74.9284 369.832 74.8498Z" fill="black"/>
<path fill-rule="evenodd" clip-rule="evenodd" d="M379.182 73.593C379.693 73.5144 380.125 73.868 380.204 74.3788C380.283 74.8895 379.929 75.3217 379.418 75.4003C378.907 75.4789 378.475 75.1253 378.397 74.6145C378.318 74.143 378.672 73.6715 379.182 73.593Z" fill="black"/>
<path fill-rule="evenodd" clip-rule="evenodd" d="M364.056 64.7521C366.649 63.4163 369.792 64.3199 371.05 66.7559C372.307 69.1918 371.246 72.2957 368.653 73.6315C366.06 74.9674 362.917 74.0637 361.659 71.6278C360.402 69.1525 361.463 66.088 364.056 64.7521Z" fill="black"/>
<path d="M353.723 72.3743C353.723 72.3743 356.945 68.8776 361.385 71.6671C365.392 74.1817 364.606 73.553 364.096 73.6316" stroke="black" stroke-width="0.78579" stroke-miterlimit="10" stroke-linecap="round"/>
<path fill-rule="evenodd" clip-rule="evenodd" d="M387.984 68.0919C387.984 68.0919 387.787 67.8168 387.748 67.8561C386.726 66.6382 380.754 66.2453 373.604 67.1489C366.571 68.0526 360.913 69.8206 360.127 71.2743C360.009 71.3922 360.009 71.8244 360.009 71.8244C360.009 71.8244 359.342 70.5671 359.224 68.6419C359.066 66.0095 359.577 65.7345 359.577 65.7345H359.617C359.577 65.1452 360.442 64.5165 361.935 63.8879C363.153 62.1199 364.96 59.5268 366.099 57.9159C368.064 55.2049 368.771 53.5548 372.779 53.2404C375.843 53.0047 381.501 57.7194 384.369 60.9412C386.255 61.1769 387.394 61.6484 387.473 62.277V62.3163H387.512C387.512 62.3163 388.062 62.6699 388.337 64.9094C388.73 67.2668 387.984 68.0919 387.984 68.0919ZM387.748 67.8561C387.826 67.9347 387.905 68.0526 387.905 68.1704C387.866 68.0526 387.787 67.974 387.748 67.8561ZM360.127 71.2743C360.088 71.4315 360.049 71.5493 360.009 71.7065C360.009 71.5493 360.049 71.4315 360.127 71.2743Z" fill="#CA4441"/>
<path fill-rule="evenodd" clip-rule="evenodd" d="M373.643 67.1492C365.903 68.0922 359.577 70.1352 359.734 71.5103C359.813 72.1783 361.659 72.414 364.292 72.5319C363.035 72.3747 362.288 72.0604 362.21 71.6282C362.052 70.4888 367.317 68.8779 373.957 68.0529C380.597 67.2278 386.098 67.5028 386.215 68.6422C386.255 68.9565 385.862 69.3101 385.155 69.6637C386.962 69.0351 387.983 68.3672 387.905 67.8171C387.787 66.4813 381.383 66.167 373.643 67.1492Z" fill="black"/>
<path d="M359.616 65.8128C359.42 64.2806 365.51 62.2375 373.211 61.2553C380.911 60.273 387.316 60.7445 387.512 62.2768" stroke="black" stroke-width="0.78579" stroke-miterlimit="10" stroke-linecap="round"/>
<path fill-rule="evenodd" clip-rule="evenodd" d="M378.75 81.3721C378.986 83.3758 377.533 85.2224 375.529 85.4975C373.486 85.7332 371.639 84.3188 371.364 82.315L378.75 81.3721Z" fill="white"/>
<path d="M386.255 75.6748L385.43 76.4606" stroke="black" stroke-width="0.78579" stroke-miterlimit="10" stroke-linecap="round" stroke-linejoin="round"/>
<path d="M363.467 78.3467L364.685 79.0932" stroke="black" stroke-width="0.78579" stroke-miterlimit="10" stroke-linecap="round" stroke-linejoin="round"/>
<path fill-rule="evenodd" clip-rule="evenodd" d="M156.49 372.546L173.306 372.664L174.878 388.144L154.997 388.026L156.49 372.546Z" fill="white"/>
<path fill-rule="evenodd" clip-rule="evenodd" d="M145.057 387.79C145.057 387.79 144.625 396.905 152.64 396.905C166.509 396.905 175.86 396.905 175.86 396.905L175.938 394.076L169.652 386.847C169.652 386.847 168.277 386.219 168.08 385.04C165.998 380.482 156.804 377.3 156.804 377.3L154.643 383.35L145.057 387.79Z" fill="#C94540"/>
<path fill-rule="evenodd" clip-rule="evenodd" d="M145.057 385.433C145.057 385.433 144.625 394.549 152.64 394.549C166.509 394.549 175.86 394.549 175.86 394.549L174.21 381.19C172.913 380.601 172.284 380.365 172.284 380.365C172.284 380.365 171.813 377.536 171.577 376.357C169.495 371.8 155.744 374.943 155.744 374.943L153.583 380.994L145.057 385.433Z" fill="black"/>
<path fill-rule="evenodd" clip-rule="evenodd" d="M218.135 354.316L220.453 383.037L237.269 386.495L239.626 383.98L236.954 351.684L218.135 354.316Z" fill="#F9C19E"/>
<path fill-rule="evenodd" clip-rule="evenodd" d="M222.103 393.449L235.344 390.463C235.54 389.991 235.776 389.481 235.973 388.97C231.769 387.555 247.367 388.341 248.663 387.516C248.86 386.73 274.162 390.541 274.319 389.795L239.744 380.641L238.959 375.454C237.662 375.769 233.026 376.161 229.058 376.161C223.989 376.161 219.864 375.808 219.864 375.336C219.785 382.251 219.746 390.817 219.746 390.817C220.414 391.877 220.571 392.742 222.103 393.449Z" fill="white"/>
<path fill-rule="evenodd" clip-rule="evenodd" d="M275.184 388.97C275.184 388.97 274.044 397.378 265.558 397.378C251.688 397.378 218.017 397.378 218.017 397.378L218.646 393.017C218.646 393.017 222.693 388.027 223.479 388.341C226.229 389.441 227.918 390.542 227.918 390.542C227.918 390.542 228.35 389.52 235.187 387.163L237.819 386.141C237.819 386.141 249.567 390.345 256.442 389.52C268.269 388.106 273.848 388.459 275.184 388.97Z" fill="#C94540"/>
<path fill-rule="evenodd" clip-rule="evenodd" d="M275.183 388.813C275.183 388.813 271.726 394.549 265.872 394.549C252.003 394.549 218.41 394.549 218.41 394.549L218.999 381.19C225.836 380.719 230.511 384.098 237.505 384.923C237.466 383.116 237.623 380.719 238.487 378.912C240.098 375.572 242.534 374.943 242.534 374.943L244.734 382.055L275.183 388.813Z" fill="black"/>
<path fill-rule="evenodd" clip-rule="evenodd" d="M229.49 185.921L241.002 372.939L219.432 373.136C219.432 373.136 205.17 349.091 207.056 301.786C207.999 277.82 202.773 244.345 198.255 219.16L173.581 374.747L154.408 374.668C154.408 374.668 143.053 335.339 155.744 293.692C166.116 259.668 160.537 211.617 164.466 186.786H164.427L164.623 179.439L229.451 179.164V185.921H229.49Z" fill="#C94540"/>
<path d="M180.653 190.244C179.631 193.112 178.138 197.434 176.331 201.873C174.759 205.763 169.062 205.842 169.062 205.842" stroke="black" stroke-width="0.78579" stroke-miterlimit="10" stroke-linecap="round"/>
<path d="M205.287 194.88L198.804 219.436" stroke="black" stroke-width="0.78579" stroke-miterlimit="10" stroke-linecap="round"/>
<path d="M225.993 372.665C225.993 372.665 213.263 341.744 216.131 297.739C218.174 266.151 208.195 223.875 203.009 203.562" stroke="black" stroke-width="0.78579" stroke-miterlimit="10" stroke-linecap="round"/>
<path d="M158.69 278.213C166.391 244.62 167.805 210.202 170.084 188.593" stroke="black" stroke-width="0.78579" stroke-miterlimit="10" stroke-linecap="round"/>
<path fill-rule="evenodd" clip-rule="evenodd" d="M229.647 188.75C224.971 189.851 215.463 191.265 197.194 191.265C176.802 191.265 167.609 188.122 164.426 186.629V185.725C167.098 187.022 176.174 190.479 197.194 190.479C215.542 190.479 225.05 189.025 229.608 187.965L229.647 188.75Z" fill="black"/>
<path fill-rule="evenodd" clip-rule="evenodd" d="M209.099 86.8329C209.099 86.8329 211.142 87.2258 213.067 89.6225C214.874 91.9013 216.564 96.6553 216.564 96.6553C227.486 96.6946 237.623 104.592 241.984 114.611L250.903 138.066C250.903 138.066 247.21 137.123 238.448 139.717C236.012 140.424 232.515 170.166 230.708 170.991L230.394 181.403C230.394 181.403 219.55 185.842 191.615 184.782C170.634 183.917 164.623 179.438 164.623 179.438L165.369 131.073L157.512 135.12L145.96 112.725L174.013 98.2662C175.899 97.3232 178.099 96.8125 180.574 96.8125H186.979C187.332 94.9266 190.043 90.0547 193.776 88.7188C193.854 88.6795 198.176 86.7543 209.099 86.8329Z" fill="#F28E22"/>
<path fill-rule="evenodd" clip-rule="evenodd" d="M214.128 102.392L209.02 106.125L207.331 103.846C207.173 105.064 207.056 106.557 206.977 108.247C206.584 122.784 205.484 178.771 205.366 184.822C203.441 184.861 201.398 184.9 199.237 184.9C199.316 180.028 200.494 122.823 200.848 108.089C200.966 102.903 201.752 99.485 202.577 97.324L201.752 96.1847L203.873 94.6131C204.03 94.3773 204.148 94.2202 204.227 94.1416L204.345 94.2595L206.82 92.4521L214.128 102.392ZM156.215 132.527L153.661 127.577C156.844 126.084 160.144 124.473 163.484 122.902L164.584 128.323C161.755 129.738 158.926 131.152 156.215 132.527ZM147.571 115.751C153.268 112.961 159.79 109.779 166.155 106.754V113.04C160.615 115.829 155.154 118.54 150.243 121.016L147.571 115.751ZM174.563 106.714C174.681 102.667 175.192 99.6814 175.781 97.5598C177.274 97.049 178.885 96.774 180.653 96.774H182.5L182.578 96.8133L182.618 96.774C182.382 97.1669 180.889 99.8386 180.692 106.871C180.299 121.566 179.16 178.732 179.081 183.643C176.724 183.289 174.681 182.897 172.952 182.504C173.109 173.349 174.17 120.741 174.563 106.714ZM196.015 98.1098C196.015 98.1491 194.247 100.624 194.051 108.247C193.658 122.744 192.558 178.418 192.44 184.743C192.165 184.743 191.89 184.743 191.615 184.704C189.729 184.625 187.961 184.547 186.311 184.39C186.468 177.082 187.568 122.391 187.922 108.05C188.197 98.1884 190.79 94.7309 191.301 94.1416L195.937 98.1884C195.897 98.2277 195.937 98.1884 196.015 98.1098ZM222.221 98.2277C222.221 98.2277 222.261 98.1884 222.3 98.1098C222.3 98.1491 220.532 100.624 220.335 108.247C219.982 122.194 218.921 174.253 218.725 183.84C216.917 184.075 214.874 184.272 212.556 184.468C212.713 177.278 213.813 122.469 214.167 108.089C214.324 101.882 215.424 98.2277 216.328 96.2239C216.446 96.499 216.485 96.6561 216.485 96.6561C217.978 96.6561 219.432 96.8133 220.846 97.0883L222.221 98.2277ZM244.852 135.16L239.312 137.36L233.419 122.548C233.144 135.042 232.79 151.819 232.515 164.902C231.808 168.32 231.179 170.756 230.708 170.992L230.394 181.404C230.394 181.404 229.018 181.954 226.032 182.622C226.268 170.678 227.25 121.605 227.604 108.129C227.683 104.632 228.076 101.96 228.547 99.9172C230.511 101.017 232.358 102.314 234.048 103.807C233.89 104.907 233.772 106.164 233.733 107.657L233.851 107.618L244.852 135.16Z" fill="#F07F23"/>
<path fill-rule="evenodd" clip-rule="evenodd" d="M233.772 128.834H233.733C233.537 128.834 233.38 128.677 233.34 128.48C233.301 128.284 233.458 128.087 233.694 128.048C233.772 128.048 239.391 127.262 245.049 122.666L245.324 123.451C239.548 128.048 234.008 128.795 233.772 128.834ZM233.105 124.787C232.908 124.787 232.751 124.669 232.712 124.473C232.672 124.276 232.83 124.041 233.026 124.001C233.065 124.001 238.251 123.058 243.516 118.658L243.831 119.444C238.487 123.805 233.419 124.748 233.183 124.787C233.144 124.787 233.105 124.787 233.105 124.787ZM233.733 113.904C233.694 113.904 233.655 113.904 233.615 113.865C233.576 113.943 233.537 113.983 233.458 114.022C233.183 114.179 226.425 117.794 196.998 117.794C179.632 117.794 170.399 115.515 166.077 113.904V113.04C170.202 114.572 179.435 117.008 196.998 117.008C226.032 117.008 232.947 113.354 233.026 113.315C233.144 113.236 233.262 113.236 233.38 113.275C233.419 113.157 233.537 113.079 233.694 113.04C233.733 113.04 236.483 112.647 240.098 110.879C240.255 111.114 240.373 111.35 240.491 111.586C236.798 113.432 233.969 113.825 233.812 113.865C233.772 113.904 233.733 113.904 233.733 113.904ZM196.998 113.511C179.632 113.511 170.399 111.232 166.077 109.621V108.757C170.202 110.289 179.435 112.725 196.998 112.725C226.032 112.725 232.947 109.071 233.026 109.032C233.144 108.993 233.262 108.953 233.34 108.993C234.008 108.836 235.58 108.403 237.623 107.46C237.78 107.657 237.976 107.893 238.134 108.089C235.501 109.346 233.576 109.739 233.222 109.818C231.769 110.486 223.754 113.511 196.998 113.511ZM214.128 101.763C221.2 101.253 225.718 100.506 228.547 99.8776C228.901 100.074 229.215 100.271 229.568 100.467C226.7 101.174 221.711 102.078 213.421 102.628C213.696 102.314 213.931 102.039 214.128 101.763ZM216.524 97.2452C217.782 97.1273 218.96 97.0095 220.021 96.8916C220.846 97.0095 221.671 97.2059 222.496 97.4024C220.689 97.6381 218.646 97.8738 216.249 98.0703C216.367 97.7953 216.446 97.5202 216.524 97.2452ZM176.174 97.4024C176.921 97.1666 177.667 97.0095 178.453 96.9309C180.928 97.2452 183.757 97.5202 186.939 97.7167C186.822 97.9917 186.743 98.2274 186.625 98.5025C182.578 98.2667 179.081 97.8738 176.174 97.4024ZM185.682 102.746C178.531 102.274 173.384 101.371 169.77 100.467L170.87 99.8776C174.367 100.703 179.239 101.528 185.761 101.96C185.721 102.235 185.721 102.51 185.682 102.746ZM232.044 124.355C232.24 124.237 232.515 124.316 232.633 124.473C232.751 124.669 232.672 124.905 232.476 125.023C232.201 125.18 225.443 128.795 196.015 128.795C178.571 128.795 169.338 126.477 165.016 124.905V124.041C169.102 125.573 178.335 128.009 196.015 128.009C225.05 128.048 231.965 124.394 232.044 124.355ZM159.24 113.04C158.258 109.936 157.944 107.618 157.865 106.596L158.612 106.203C158.69 107.539 159.358 114.65 165.016 123.176C164.898 123.491 164.819 123.805 164.741 124.159C161.794 119.797 160.144 115.868 159.24 113.04ZM164.977 131.034C164.898 131.113 164.819 131.113 164.702 131.113C164.584 131.113 164.466 131.073 164.426 130.995C158.965 124.787 156.333 118.894 155.115 115.004C154.172 112.018 153.858 109.818 153.779 108.718L154.526 108.325C154.683 110.329 155.822 120.072 165.016 130.484C165.134 130.641 165.134 130.877 164.977 131.034ZM196.015 178.653C218.017 178.653 227.29 176.571 230.551 175.549L230.511 176.414C226.897 177.514 217.507 179.478 196.015 179.478C178.139 179.478 168.866 177.042 164.702 175.471V174.606C168.63 176.099 177.864 178.653 196.015 178.653ZM164.78 171.109V170.245C168.709 171.777 177.942 174.331 196.015 174.331C218.292 174.331 227.565 172.17 230.669 171.188L230.629 172.052C227.133 173.153 217.782 175.156 195.976 175.156C178.217 175.117 168.945 172.72 164.78 171.109ZM232.476 155.865C232.201 156.022 225.443 159.637 196.015 159.637C178.531 159.637 169.298 157.319 165.016 155.708V154.844C169.102 156.376 178.335 158.851 196.015 158.851C225.05 158.851 231.965 155.197 232.044 155.158C232.24 155.04 232.515 155.119 232.633 155.276C232.712 155.551 232.672 155.787 232.476 155.865ZM232.476 144.864C232.201 145.021 225.443 148.636 196.015 148.636C178.767 148.636 169.534 146.396 165.173 144.786V143.921C169.338 145.453 178.531 147.85 196.015 147.85C225.05 147.85 231.965 144.196 232.044 144.157C232.24 144.039 232.515 144.118 232.633 144.275C232.712 144.55 232.672 144.786 232.476 144.864ZM232.476 129.345C232.201 129.502 225.443 133.117 196.015 133.117C178.571 133.117 169.338 130.798 165.016 129.227V128.363C169.102 129.895 178.335 132.331 196.015 132.331C225.05 132.331 231.965 128.677 232.044 128.638C232.24 128.52 232.515 128.598 232.633 128.755C232.712 129.03 232.672 129.266 232.476 129.345ZM232.476 140.542C232.201 140.699 225.443 144.314 196.015 144.314C178.846 144.314 169.652 142.075 165.252 140.503V139.639C169.416 141.171 178.649 143.528 196.015 143.528C225.05 143.528 231.965 139.874 232.044 139.835C232.24 139.717 232.515 139.796 232.633 139.953C232.712 140.228 232.672 140.464 232.476 140.542ZM164.937 160.069V159.205C168.984 160.737 178.217 163.212 196.015 163.212C225.05 163.212 231.965 159.558 232.044 159.519C232.24 159.401 232.515 159.48 232.633 159.637C232.751 159.833 232.672 160.069 232.476 160.187C232.201 160.344 225.443 163.959 196.015 163.959C178.453 163.998 169.22 161.641 164.937 160.069Z" fill="#EE7626"/>
<path d="M165.88 106.478C165.88 106.478 165.802 124.787 165.409 137.517" stroke="black" stroke-width="0.78579" stroke-miterlimit="10" stroke-linecap="round"/>
<path d="M185.721 105.142C185.407 103.06 185.918 99.2883 187.096 97.0488M216.406 96.3809C216.721 99.2883 212.91 104.199 208.431 106.164L216.406 96.3809Z" stroke="black" stroke-width="0.78579" stroke-miterlimit="10" stroke-linecap="round"/>
<path fill-rule="evenodd" clip-rule="evenodd" d="M199.316 87.7764C193.462 89.4265 189.415 93.3948 190.24 96.6558C191.065 99.9168 196.448 101.213 202.302 99.5239C208.156 97.8738 212.203 93.9055 211.378 90.6445C210.552 87.4228 205.17 86.1262 199.316 87.7764Z" fill="black"/>
<path fill-rule="evenodd" clip-rule="evenodd" d="M198.805 104.003C199.08 103.964 199.552 99.8776 202.263 98.7382C204.188 97.9131 206.545 102.314 208.431 106.557L198.805 104.003ZM193.619 99.4847C194.915 100.546 195.348 103.885 195.348 103.885L185.643 105.653C189.69 98.6597 192.401 98.4632 193.619 99.4847Z" fill="black"/>
<path d="M196.683 110.407C196.644 110.407 196.605 110.407 196.565 110.407C196.369 110.368 196.212 110.132 196.29 109.936C196.565 108.875 199.08 99.6028 202.144 98.7384C202.341 98.6599 202.577 98.817 202.616 99.0135C202.694 99.2099 202.537 99.4456 202.341 99.4849C200.101 100.114 197.744 107.382 197.037 110.132C197.037 110.29 196.88 110.407 196.683 110.407Z" fill="black"/>
<path d="M196.683 110.407C196.487 110.407 196.33 110.289 196.29 110.093C195.229 105.221 193.815 99.9168 193.304 99.4453C191.772 98.3845 188.039 102.51 186.075 105.339C185.957 105.535 185.721 105.574 185.525 105.417C185.328 105.299 185.289 105.064 185.446 104.867C186.036 104.042 191.104 96.8915 193.776 98.7774C194.758 99.4453 196.565 107.46 197.076 109.896C197.115 110.093 196.997 110.329 196.762 110.368C196.762 110.407 196.722 110.407 196.683 110.407Z" fill="black"/>
<path d="M233.812 120.662L232.673 145.453" stroke="black" stroke-width="0.78579" stroke-miterlimit="10" stroke-linecap="round"/>
<path fill-rule="evenodd" clip-rule="evenodd" d="M232.633 142.664C232.004 142.075 232.122 140.032 232.122 140.032L233.183 123.688C233.183 123.688 234.008 131.231 235.737 133.863C236.994 135.749 237.937 138.853 237.819 140.503C235.737 141.171 233.89 141.682 232.633 142.664Z" fill="black"/>
<path fill-rule="evenodd" clip-rule="evenodd" d="M165.802 115.397C165.802 115.397 165.094 120.583 163.484 122.587C157.787 129.659 159.476 134.02 159.476 134.02L165.605 131.427L165.802 115.397Z" fill="black"/>
<path fill-rule="evenodd" clip-rule="evenodd" d="M211.26 65.5777C210.985 65.5777 210.71 65.617 210.474 65.6956L210.513 59.3307C206.427 44.0078 190.318 48.9976 188.433 53.948C188.433 53.948 188.433 63.4561 188.393 73.8285C188.393 73.9071 188.393 74.025 188.393 74.1035C188.393 74.1821 188.393 74.2607 188.393 74.3393V74.3786C188.511 77.0896 190.004 79.5255 192.322 81.0578V98.6202C192.833 98.5023 193.344 98.5809 193.776 98.8952C194.601 99.4453 196.015 105.221 196.762 108.482C197.666 105.535 199.748 99.4846 202.184 98.7774C202.223 98.7774 202.813 98.4238 203.441 98.2273C207.92 96.695 209.02 94.4555 209.02 94.4555L209.177 70.6461C209.413 70.7247 210.985 70.7639 211.26 70.7639C212.674 70.7639 213.814 69.6245 213.814 68.1708C213.814 66.7171 212.674 65.5777 211.26 65.5777Z" fill="#F9C19E"/>
<path d="M210.002 68.7602C209.845 68.7602 209.727 68.6816 209.649 68.5245C209.531 68.328 209.649 68.0923 209.845 67.9744L211.495 67.1886C211.692 67.0708 211.928 67.1886 212.046 67.3851C212.163 67.5815 212.046 67.8173 211.849 67.9351L210.199 68.7209C210.16 68.7602 210.081 68.7602 210.002 68.7602Z" fill="black"/>
<path fill-rule="evenodd" clip-rule="evenodd" d="M207.527 76.5791C206.702 84.6727 199.473 88.9553 192.322 88.9553V81.0188C194.365 82.3547 196.487 82.7475 198.176 82.7475C202.577 82.7475 206.309 80.1544 207.527 76.5791Z" fill="black"/>
<path fill-rule="evenodd" clip-rule="evenodd" d="M188.472 62.7098V57.17C188.472 57.17 189.768 57.445 191.34 56.8557C192.911 56.2663 193.776 54.4197 193.776 54.4197C193.776 54.4197 196.919 56.4235 200.455 56.7771C203.991 57.1307 206.584 56.7378 206.584 56.7378C206.584 56.7378 209.138 57.8772 207.92 62.8277C206.545 68.3282 208.824 69.2711 208.824 69.2711C208.824 69.2711 208.706 66.7566 210.67 66.0494C211.928 65.6172 212.91 66.0101 212.91 66.0101C212.91 66.0101 217.507 64.91 217.86 59.4488C218.253 53.0839 213.303 50.4122 213.303 50.4122C213.303 50.4122 213.853 46.9547 211.535 43.9687C208.667 40.2755 200.927 41.1006 196.958 45.9332C194.955 48.3691 191.89 50.1371 188.079 50.3729C184.032 50.6086 182.185 50.8444 182.068 53.3589C181.989 55.7163 185.839 56.5806 185.839 56.5806C185.839 56.5806 185.407 60.3917 188.472 62.7098Z" fill="#C9453F"/>
<path d="M194.247 71.7074H194.287L198.373 71.3145C198.609 71.2752 198.766 71.0788 198.726 70.8823C198.687 70.6466 198.491 70.4894 198.294 70.5287L194.758 70.8823L196.29 63.7709C196.33 63.5352 196.212 63.3387 195.976 63.2994C195.74 63.2601 195.544 63.378 195.505 63.6138L193.855 71.2752C193.815 71.3931 193.855 71.5502 193.933 71.6288C194.012 71.6681 194.13 71.7074 194.247 71.7074Z" fill="black"/>
<path d="M194.287 74.1429C194.287 74.1429 197.705 75.0073 199.866 72.6499" stroke="black" stroke-width="0.78579" stroke-miterlimit="10" stroke-linecap="round"/>
<path d="M193.933 60.7847L189.336 61.4133" stroke="black" stroke-width="0.78579" stroke-miterlimit="10" stroke-linecap="round"/>
<path d="M198.805 60.8628L203.991 61.4914" stroke="black" stroke-width="0.78579" stroke-miterlimit="10" stroke-linecap="round"/>
<path fill-rule="evenodd" clip-rule="evenodd" d="M191.222 64.124C191.772 64.124 192.243 64.5955 192.243 65.1456C192.243 65.6956 191.772 66.1671 191.222 66.1671C190.672 66.1671 190.2 65.6956 190.2 65.1456C190.2 64.5955 190.633 64.124 191.222 64.124Z" fill="black"/>
<path fill-rule="evenodd" clip-rule="evenodd" d="M201.241 64.124C201.791 64.124 202.262 64.5955 202.262 65.1456C202.262 65.6956 201.791 66.1671 201.241 66.1671C200.691 66.1671 200.219 65.6956 200.219 65.1456C200.219 64.5955 200.691 64.124 201.241 64.124Z" fill="black"/>
<path fill-rule="evenodd" clip-rule="evenodd" d="M249.92 149.108C258.525 149.108 265.479 154.805 265.479 161.838C265.479 168.871 258.525 174.568 249.92 174.568C241.316 174.568 234.362 168.871 234.362 161.838C234.362 154.805 241.316 149.108 249.92 149.108Z" fill="#F9C19E"/>
<path fill-rule="evenodd" clip-rule="evenodd" d="M229.765 270.041C229.765 270.041 225.089 285.993 261.118 279.706C292.196 274.284 319.777 277.899 323.745 281.632C311.094 268.941 239.076 246.153 229.765 270.041Z" fill="#D2C2B6"/>
<path fill-rule="evenodd" clip-rule="evenodd" d="M295.496 221.951L246.935 378.087C246.935 378.087 241.355 381.152 237.23 380.405C233.851 379.816 231.847 375.376 231.847 375.376C231.847 375.376 241.866 306.502 255.971 282.771C266.815 264.541 263.711 242.263 267.797 223.719C275.773 187.73 295.496 221.951 295.496 221.951Z" fill="#F49A67"/>
<path fill-rule="evenodd" clip-rule="evenodd" d="M250.156 295.58C250.981 296.798 253.26 298.88 259.625 301.277C265.283 303.398 268.622 303.359 270.272 303.084L246.934 378.127C246.934 378.127 244.341 379.541 241.395 380.209L232.476 371.369C234.44 358.836 241.041 319.978 250.156 295.58Z" fill="white"/>
<path fill-rule="evenodd" clip-rule="evenodd" d="M248.27 300.883C249.41 302.141 251.846 303.948 257.228 305.952C264.379 308.623 267.836 307.877 268.858 307.523L246.895 378.087C246.895 378.087 244.302 379.502 241.355 380.17L232.947 368.186C235.265 354.356 240.805 323.357 248.27 300.883Z" fill="#5665AC"/>
<path fill-rule="evenodd" clip-rule="evenodd" d="M252.553 395.453L226.229 378.952L231.337 371.762L237.073 343.395L258.289 348.031L249.331 378.794L261.157 389.992C261.157 389.992 262.218 390.11 267.326 390.621C270.508 390.935 270.233 395.021 270.233 395.021L252.553 395.453Z" fill="#F28E22"/>
<path fill-rule="evenodd" clip-rule="evenodd" d="M252.553 395.453L248.388 392.86C249.213 390.935 251.296 389.167 256.443 390.463C263.986 392.349 265.44 391.289 265.636 390.463C266.147 390.503 266.736 390.581 267.365 390.66C270.548 390.974 270.273 395.06 270.273 395.06L252.553 395.453ZM249.803 361.507C252.003 354.042 253.339 349.485 254.046 347.088L258.329 348.031L249.449 378.519C245.677 377.066 246.227 373.726 249.803 361.507ZM226.229 378.952L231.337 371.762L231.455 371.094C232.672 372.43 233.419 374.276 233.419 376.319C233.419 378.598 232.476 380.641 231.022 381.977L226.229 378.952Z" fill="#CA4440"/>
<path fill-rule="evenodd" clip-rule="evenodd" d="M270.233 397.378H253.889C252.396 397.378 250.981 396.907 249.763 396.043L225.129 380.405L226.897 378.009C226.897 378.009 243.202 387.988 252.513 394.628H270.272V397.378H270.233Z" fill="black"/>
<path fill-rule="evenodd" clip-rule="evenodd" d="M251.453 349.209C252.081 349.209 252.631 349.72 252.631 350.388C252.631 351.017 252.121 351.567 251.453 351.567C250.824 351.567 250.274 351.056 250.274 350.388C250.274 349.72 250.785 349.209 251.453 349.209Z" fill="black"/>
<path fill-rule="evenodd" clip-rule="evenodd" d="M249.488 356.556C250.117 356.556 250.667 357.067 250.667 357.735C250.667 358.363 250.156 358.914 249.488 358.914C248.86 358.914 248.31 358.403 248.31 357.735C248.31 357.067 248.82 356.556 249.488 356.556Z" fill="black"/>
<path fill-rule="evenodd" clip-rule="evenodd" d="M247.249 364.021C247.877 364.021 248.427 364.532 248.427 365.2C248.427 365.829 247.917 366.379 247.249 366.379C246.62 366.379 246.07 365.868 246.07 365.2C246.07 364.532 246.581 364.021 247.249 364.021Z" fill="black"/>
<path fill-rule="evenodd" clip-rule="evenodd" d="M245.284 371.486C245.913 371.486 246.463 371.997 246.463 372.665C246.463 373.294 245.952 373.844 245.284 373.844C244.656 373.844 244.105 373.333 244.105 372.665C244.105 371.997 244.616 371.486 245.284 371.486Z" fill="black"/>
<path d="M257.974 351.645L252.081 350.388L256.678 355.496L250.077 357.853L254.596 362.922L247.995 365.279V365.318L252.513 370.387L245.873 372.901" stroke="black" stroke-width="0.78579" stroke-miterlimit="10" stroke-linecap="round" stroke-linejoin="round"/>
<path fill-rule="evenodd" clip-rule="evenodd" d="M278.169 277.624C273.73 277.899 262.572 278.763 256.914 281.16C259.31 276.72 260.961 272.045 262.139 267.251L280.37 270.591L278.169 277.624Z" fill="black"/>
<path fill-rule="evenodd" clip-rule="evenodd" d="M321.702 211.578L318.991 247.685L302.214 380.523C302.214 380.523 300.957 388.577 296.635 391.602C292.156 394.745 284.573 392.86 284.573 392.86C284.573 392.86 286.695 383.037 286.695 377.262C286.617 363.785 285.909 307.798 294.435 285.167C301.9 265.326 294.946 243.952 295.732 224.975C297.303 188.043 321.702 211.578 321.702 211.578Z" fill="#F49A67"/>
<path fill-rule="evenodd" clip-rule="evenodd" d="M302.254 380.522C302.254 380.522 300.996 388.577 296.674 391.602C292.195 394.745 284.613 392.859 284.613 392.859C284.613 392.859 286.734 383.037 286.734 377.261C286.695 367.439 286.302 335.182 289.367 309.565C290.467 310.43 293.374 311.884 300.525 312.041C307.204 312.198 310.308 310.862 311.133 310.39L302.254 380.522Z" fill="white"/>
<path fill-rule="evenodd" clip-rule="evenodd" d="M302.254 380.719C302.254 380.719 300.996 388.773 296.674 391.799C292.195 394.942 284.613 393.056 284.613 393.056C284.613 393.056 286.734 383.233 286.734 377.458C286.695 368.303 286.341 339.661 288.777 315.105C289.72 315.931 292.51 317.581 300.093 317.738C306.104 317.895 309.208 316.795 310.386 316.245L302.254 380.719Z" fill="#5665AC"/>
<path fill-rule="evenodd" clip-rule="evenodd" d="M283.591 394.667L285.398 385.355L285.673 356.556H306.733L304.69 384.687C308.579 386.22 317.38 389.284 326.613 390.109C331.446 390.542 332.703 394.667 332.703 394.667H283.591Z" fill="#F28E22"/>
<path fill-rule="evenodd" clip-rule="evenodd" d="M310.779 394.667C311.29 392.781 313.49 391.17 319.305 391.17C323.352 391.17 325.317 390.698 326.181 390.07C326.338 390.07 326.456 390.109 326.613 390.109C331.446 390.541 332.703 394.667 332.703 394.667H310.779ZM304.69 384.687C300.407 384.059 300.918 379.972 301.153 368.382C301.271 362.331 301.35 358.678 301.389 356.517H306.693L304.69 384.687ZM283.591 394.667L285.32 385.669C286.734 386.377 287.952 387.595 288.738 389.205C289.602 391.013 289.76 392.977 289.288 394.667H283.591Z" fill="#CA4440"/>
<path fill-rule="evenodd" clip-rule="evenodd" d="M283.591 394.667H332.703V397.417H283.591V394.667Z" fill="black"/>
<path fill-rule="evenodd" clip-rule="evenodd" d="M300.093 357.538C300.721 357.538 301.271 358.049 301.271 358.717C301.271 359.345 300.76 359.895 300.093 359.895C299.425 359.895 298.914 359.385 298.914 358.717C298.914 358.049 299.464 357.538 300.093 357.538Z" fill="black"/>
<path fill-rule="evenodd" clip-rule="evenodd" d="M299.778 365.003C300.407 365.003 300.957 365.514 300.957 366.182C300.957 366.811 300.446 367.361 299.778 367.361C299.11 367.361 298.6 366.85 298.6 366.182C298.6 365.514 299.15 365.003 299.778 365.003Z" fill="black"/>
<path fill-rule="evenodd" clip-rule="evenodd" d="M299.464 372.625C300.093 372.625 300.643 373.136 300.643 373.804C300.643 374.433 300.132 374.983 299.464 374.983C298.796 374.983 298.285 374.472 298.285 373.804C298.285 373.176 298.796 372.625 299.464 372.625Z" fill="black"/>
<path fill-rule="evenodd" clip-rule="evenodd" d="M299.464 380.483C300.093 380.483 300.643 380.994 300.643 381.662C300.643 382.291 300.132 382.841 299.464 382.841C298.796 382.841 298.285 382.33 298.285 381.662C298.285 381.033 298.796 380.483 299.464 380.483Z" fill="black"/>
<path d="M306.772 358.796L300.721 358.6L306.261 362.843L300.289 366.3L305.75 370.544L299.778 374.001V374.04L305.239 378.284L299.267 381.898" stroke="black" stroke-width="0.78579" stroke-miterlimit="10" stroke-linecap="round" stroke-linejoin="round"/>
<path fill-rule="evenodd" clip-rule="evenodd" d="M314.08 286.935C309.718 287.249 298.442 288.231 292.745 290.707C293.295 288.703 293.845 286.817 294.474 285.128C295.535 282.299 296.321 279.431 296.871 276.562L314.983 279.666L314.08 286.935Z" fill="black"/>
<path fill-rule="evenodd" clip-rule="evenodd" d="M331.21 279.078C331.21 279.078 318.874 292.593 272.355 272.595C253.889 264.658 242.18 263.833 236.051 265.444C232.908 266.269 231.336 267.644 230.551 268.744C235.423 258.333 260.961 193.78 260.961 193.78L271.608 108.797C271.608 108.797 279.938 106.164 287.874 104.593C297.932 102.589 310.269 109.661 310.269 109.661L319.895 154.294C319.895 154.294 326.063 203.642 327.321 221.715C329.56 253.736 331.21 279.078 331.21 279.078ZM230.551 268.744C230.04 269.805 229.765 270.395 229.765 270.395C229.765 270.395 229.883 269.687 230.551 268.744Z" fill="white"/>
<path d="M315.141 139.128C315.141 139.128 302.961 145.375 281.038 144.118" stroke="black" stroke-width="0.78579" stroke-miterlimit="10" stroke-linecap="round"/>
<path fill-rule="evenodd" clip-rule="evenodd" d="M297.225 121.959C297.854 121.919 298.364 122.351 298.404 122.98C298.443 123.609 297.971 124.159 297.343 124.198C296.714 124.237 296.203 123.805 296.164 123.176C296.125 122.548 296.596 121.998 297.225 121.959Z" fill="black"/>
<path fill-rule="evenodd" clip-rule="evenodd" d="M294.593 116.654C295.221 116.615 295.732 117.047 295.771 117.676C295.811 118.304 295.339 118.855 294.711 118.894C294.082 118.933 293.571 118.501 293.532 117.872C293.493 117.244 293.964 116.694 294.593 116.654Z" fill="black"/>
<path d="M294.514 112.489C294.514 112.489 300.211 119.64 301.704 129.619" stroke="black" stroke-width="0.78579" stroke-miterlimit="10" stroke-linecap="round"/>
<path d="M290.506 113.433C289.131 113.433 287.481 113.276 285.517 112.922C285.32 112.883 285.163 112.686 285.202 112.451C285.242 112.254 285.438 112.097 285.674 112.136C296.046 114.14 297.107 109.74 297.107 109.7C297.146 109.504 297.343 109.347 297.579 109.386C297.814 109.425 297.932 109.622 297.893 109.857C297.814 110.015 297.028 113.433 290.506 113.433Z" fill="black"/>
<path fill-rule="evenodd" clip-rule="evenodd" d="M327.007 222.619C326.142 215.075 325.435 202.11 324.846 196.884C324.492 186.63 327.439 183.801 329.01 192.72C331.878 208.907 329.285 219.397 327.007 222.619Z" fill="black"/>
<path fill-rule="evenodd" clip-rule="evenodd" d="M310.858 131.781C314.512 153.705 323.47 176.532 325.985 211.343C328.067 207.689 338.086 195.863 325.945 167.024C330.149 170.521 334.078 172.407 339.657 172.014C348.065 171.464 354.234 164.156 353.762 154.844C353.762 154.844 353.016 144.472 352.073 144C351.837 140.307 351.68 136.575 351.68 136.575L335.611 137.989C332.939 138.225 330.817 135.278 328.813 132.135C324.57 125.495 318.441 112.687 313.608 108.993C309.679 106.007 304.729 106.4 304.729 106.4C305.79 108.168 308.226 116.105 310.858 131.781Z" fill="#CA4440"/>
<path fill-rule="evenodd" clip-rule="evenodd" d="M296.596 99.4854L297.146 110.094C297.146 110.094 308.697 114.73 309.208 122.902C309.287 118.58 309.444 104.318 296.596 99.4854Z" fill="black"/>
<path fill-rule="evenodd" clip-rule="evenodd" d="M342.762 135.435C347.712 135.003 351.759 135.514 351.837 136.536C351.877 137.596 347.908 138.775 342.958 139.247C338.008 139.718 333.961 139.168 333.882 138.146C333.843 137.086 337.811 135.868 342.762 135.435Z" fill="black"/>
<path fill-rule="evenodd" clip-rule="evenodd" d="M334.786 121.92C335.061 125.299 337.025 126.831 337.025 126.831C337.025 126.831 335.964 135.317 335.689 137.714C335.689 138.578 338.832 138.814 342.919 138.461C346.926 138.107 349.598 137.243 350.069 136.378C350.069 136.378 349.951 133.471 349.951 127.381C349.951 125.849 359.734 104.947 360.756 102.078C361.777 99.2103 360.049 98.2674 357.456 102.786C355.491 106.165 352.819 110.211 352.819 110.211C352.819 110.211 356.198 97.7173 356.709 95.1635C356.984 93.6312 356.238 93.1597 355.609 93.2383C355.177 93.2776 354.784 93.7884 354.784 93.7884C354.784 93.7884 354.863 93.0419 354.902 92.2168C354.941 90.9595 353.173 90.5666 352.427 92.1382C351.091 94.8885 346.14 106.832 346.14 106.832C346.14 106.832 347.515 99.9961 348.537 94.8492C349.244 91.3524 347.122 91.3917 345.787 95.2421C344.804 98.0709 340.758 109.661 340.758 109.661C340.758 109.661 338.243 116.537 336.986 107.815C336.357 103.375 334.275 102.353 334.039 103.964C333.685 105.614 334.471 118.501 334.786 121.92Z" fill="#F49A66"/>
<path d="M352.938 112.529C352.938 112.529 349.048 108.443 343.979 108.129" stroke="black" stroke-width="0.78579" stroke-miterlimit="10" stroke-linecap="round"/>
<path d="M338.714 112.962C338.714 112.962 344.608 115.751 343.508 122.195" stroke="black" stroke-width="0.78579" stroke-miterlimit="10" stroke-linecap="round"/>
<path d="M353.566 95.9492L348.851 109.15" stroke="black" stroke-width="0.78579" stroke-miterlimit="10" stroke-linecap="round"/>
<path d="M333.843 146.083C333.882 147.144 338.165 147.615 343.115 147.183C348.066 146.751 352.034 145.533 351.995 144.511" stroke="black" stroke-width="0.78579" stroke-miterlimit="10" stroke-linecap="round"/>
<path d="M334.314 137.989C334.314 137.989 334.118 141.957 333.803 145.925C331.603 146.75 331.525 148.283 331.21 152.84C331.014 155.551 330.817 157.948 330.817 157.948" stroke="black" stroke-width="0.78579" stroke-miterlimit="10" stroke-linecap="round"/>
<path d="M314.512 116.145C314.512 116.145 319.148 121.527 319.227 129.817" stroke="black" stroke-width="0.78579" stroke-miterlimit="10" stroke-linecap="round"/>
<path fill-rule="evenodd" clip-rule="evenodd" d="M317.656 136.418C318.52 150.051 324.335 164.117 325.985 167.181C327.321 165.256 328.382 162.152 328.696 158.38C329.128 152.998 326.889 146.397 323.51 141.565C321.663 138.932 321.624 125.888 316.909 119.916C316.909 119.916 320.642 126.359 317.656 136.418Z" fill="black"/>
<path fill-rule="evenodd" clip-rule="evenodd" d="M294.828 62.0028C293.375 62.1207 291.685 62.71 289.996 63.5744C285.163 62.2778 280.055 63.653 278.68 72.2574C278.366 74.2611 274.398 74.4969 274.555 76.1863C274.948 80.1546 277.069 83.337 279.78 85.7729L280.88 106.832C280.88 106.832 281.981 110.8 285.359 112.215C285.438 112.175 285.517 112.136 285.634 112.175C293.767 113.747 296.164 111.39 296.832 110.25C297.303 108.993 297.028 107.775 297.028 107.775L296.203 91.7449C300.486 89.6626 302.333 84.0442 302.293 77.8758C302.215 69.8607 301.232 61.4135 294.828 62.0028Z" fill="#F49A66"/>
<path fill-rule="evenodd" clip-rule="evenodd" d="M295.182 82.6296C295.182 82.6689 295.182 82.7474 295.182 82.7867C294.946 84.2012 293.61 85.2227 292.196 85.0262C290.781 84.8298 289.838 83.5332 290.074 82.0795C290.074 82.0402 290.113 81.9617 290.113 81.9224L295.182 82.6296Z" fill="white"/>
<path d="M278.68 79.251L280.291 80.2332" stroke="black" stroke-width="0.78579" stroke-miterlimit="10" stroke-linecap="round"/>
<path d="M289.171 73.4753C289.171 73.4753 287.363 72.8859 286.067 73.9075" stroke="black" stroke-width="0.78579" stroke-miterlimit="10" stroke-linecap="round"/>
<path d="M298.639 72.7682C298.639 72.7682 296.911 72.061 295.496 72.9646" stroke="black" stroke-width="0.78579" stroke-miterlimit="10" stroke-linecap="round"/>
<path d="M293.06 74.3008C293.06 74.3008 296.557 79.0941 293.335 80.2728" stroke="black" stroke-width="0.78579" stroke-miterlimit="10" stroke-linecap="round"/>
<path fill-rule="evenodd" clip-rule="evenodd" d="M296.518 97.757L296.203 91.7457C295.653 91.8243 295.064 91.9029 294.907 91.9421C293.335 92.2958 288.385 91.2742 283.749 88.6025C286.46 92.4529 291.331 96.6176 296.518 97.757Z" fill="black"/>
<path fill-rule="evenodd" clip-rule="evenodd" d="M287.874 75.2439C288.424 75.2046 288.856 75.5975 288.895 76.1476C288.935 76.6976 288.503 77.1691 287.952 77.2084C287.402 77.2477 286.97 76.8548 286.931 76.3047C286.931 75.7547 287.324 75.2832 287.874 75.2439Z" fill="black"/>
<path fill-rule="evenodd" clip-rule="evenodd" d="M297.067 74.4187C297.617 74.3794 298.05 74.7723 298.089 75.3224C298.128 75.8724 297.696 76.3439 297.146 76.3832C296.596 76.4225 296.164 76.0296 296.125 75.4795C296.125 74.9688 296.517 74.458 297.067 74.4187Z" fill="black"/>
<path fill-rule="evenodd" clip-rule="evenodd" d="M312.076 85.3802C312.076 85.3802 308.383 85.3409 303.865 88.5627C300.368 91.0772 295.967 91.6273 295.967 91.6273C295.967 91.6273 304.179 89.6235 301.075 72.6111C298.796 59.9599 296.321 63.6531 296.321 63.6531C296.321 63.6531 295.732 70.6074 287.481 71.8253C281.587 72.6897 280.723 77.208 280.723 77.208C280.723 77.208 277.501 76.6187 277.266 78.6617C276.912 81.687 279.78 82.0013 279.78 82.0013L280.252 92.5309C280.252 92.5309 276.441 94.6525 268.897 90.8415C263.829 88.3269 263.789 88.602 261.078 87.8555C261.039 87.8555 260.135 84.8302 261.903 80.5476C263.082 77.6795 266.697 76.8544 268.779 73.9077C268.897 73.7505 268.976 73.5934 269.054 73.3969C268.386 74.2613 267.325 75.0078 265.832 75.4007C257.778 77.6009 257.071 85.3016 257.032 85.616C257.032 85.8124 256.835 85.9696 256.639 85.9696H256.599C256.364 85.9696 256.206 85.7731 256.246 85.5374C256.246 85.4588 257.032 76.9723 265.636 74.6149C269.015 73.7112 269.486 71.1181 269.486 69.8216C269.486 69.3894 268.386 62.4744 278.484 61.4922C291.331 60.2742 298.168 59.2134 300.171 64.1639C301.939 68.4857 303.511 73.7898 306.458 75.1649C313.333 78.4653 312.076 85.3802 312.076 85.3802Z" fill="url(#paint0_linear_1416_420)"/>
<path fill-rule="evenodd" clip-rule="evenodd" d="M266.304 211.579L267.836 227.412C267.836 227.412 255.892 227.059 250.824 219.044C250.156 210.911 250.785 208.161 251.335 203.328C253.339 185.098 266.304 211.579 266.304 211.579Z" fill="black"/>
<path fill-rule="evenodd" clip-rule="evenodd" d="M266.736 145.573C260.136 155.12 245.048 173.075 230.551 176.179L232.004 140.112C241.748 136.536 251.845 130.643 259.507 118.149C265.754 107.933 268.858 109.426 268.858 109.426C274.201 127.303 274.319 134.611 266.736 145.573Z" fill="#CA4440"/>
<path fill-rule="evenodd" clip-rule="evenodd" d="M275.851 108.051C275.851 108.051 295.418 122.863 278.327 170.6C265.086 207.453 266.815 217.158 266.815 217.158C266.815 217.158 238.566 216.254 249.527 184.194C261.904 147.969 255.578 123.767 262.414 114.77C269.526 105.419 275.851 108.051 275.851 108.051Z" fill="#CA4440"/>
<path fill-rule="evenodd" clip-rule="evenodd" d="M260.803 173.664C246.188 186.944 246.502 197.788 247.838 202.817C243.555 191.069 255.814 168.949 255.499 158.97C264.182 150.287 271.883 141.879 273.219 135.553V135.592C275.38 122.705 272.04 116.537 272.001 116.458C271.883 116.262 271.962 116.026 272.158 115.908C272.355 115.79 272.59 115.869 272.708 116.026C272.865 116.341 276.441 122.941 273.808 136.889C276.716 144.865 274.28 161.445 260.803 173.664Z" fill="black"/>
<path fill-rule="evenodd" clip-rule="evenodd" d="M284.613 126.595C284.613 126.595 275.891 111.312 275.066 108.129C275.655 106.401 277.305 105.693 277.462 101.332C277.502 99.9965 278.445 99.4857 278.445 99.4857C278.484 99.525 278.523 99.5643 278.562 99.6036V99.4464L280.566 99.25L280.684 101.647C290.389 112.412 284.613 126.595 284.613 126.595Z" fill="black"/>
<path fill-rule="evenodd" clip-rule="evenodd" d="M127.848 330.979C127.848 330.979 128.123 351.959 133.349 362.371C137.002 369.679 138.495 373.215 138.495 373.215C138.495 373.215 127.062 380.444 117.554 367.871C108.596 356.045 100.07 330.664 100.07 330.664L107.732 323.356C107.732 323.356 110.561 328.621 111.739 330.311C115 335.065 117.829 333.768 117.829 333.768L119.519 330.311L127.848 330.979Z" fill="white"/>
<path fill-rule="evenodd" clip-rule="evenodd" d="M144.035 307.994L128.398 328.346C128.398 328.346 114.018 338.09 110.718 329.407C109.539 326.303 110.836 321.471 113.232 317.345C118.065 309.055 125.766 297.308 125.766 297.308L144.035 307.994Z" fill="#E05C57"/>
<path fill-rule="evenodd" clip-rule="evenodd" d="M128.359 328.307L123.369 334.829C123.369 334.829 114.018 338.051 110.718 329.407C109.893 327.286 106.593 326.382 107.693 323.396L112.8 318.092C112.8 318.092 119.008 329.918 128.359 328.307Z" fill="white"/>
<path fill-rule="evenodd" clip-rule="evenodd" d="M125.766 297.308L144.035 307.994L141.088 311.845C128.476 313.573 122.622 305.558 121.562 303.869C123.958 300.058 125.766 297.308 125.766 297.308Z" fill="black"/>
<path fill-rule="evenodd" clip-rule="evenodd" d="M117.318 367.44C126.237 379.187 136.845 374.198 138.142 373.451C138.299 373.53 138.378 373.569 138.378 373.569C138.378 373.569 125.373 384.256 114.961 369.994C106.199 358.01 97.8308 331.844 97.8308 331.844L101.17 329.604C101.76 332.394 108.95 356.439 117.318 367.44Z" fill="white"/>
<path fill-rule="evenodd" clip-rule="evenodd" d="M121.287 362.764C125.962 370.268 130.205 369.875 130.205 369.875L127.377 361.075L132.17 359.739C132.523 360.642 132.877 361.546 133.309 362.332C136.963 369.64 138.456 373.176 138.456 373.176C138.456 373.176 127.023 380.405 117.515 367.832C115.472 365.121 113.625 361.86 112.014 358.403C114.175 357.814 118.104 357.617 121.287 362.764ZM131.502 357.774L126.669 359.267L119.047 337.972C115 337.933 111.582 338.719 106.985 331.057C105.846 329.211 105.257 326.893 105.06 325.871L107.653 323.396C107.653 323.396 110.482 328.661 111.661 330.35C114.922 335.104 117.751 333.808 117.751 333.808L119.44 330.35L127.848 331.018C127.848 330.979 128.044 346.813 131.502 357.774Z" fill="#F28E22"/>
<path d="M128.477 341.273C125.569 340.998 122.347 342.098 122.347 342.098L123.133 344.259C123.133 344.259 125.962 343.277 128.712 343.395C129.38 343.395 129.184 341.312 128.477 341.273Z" fill="white"/>
<path d="M130.088 352.313C127.848 352.51 126.119 353.138 126.119 353.138L126.905 355.299C126.905 355.299 128.398 354.788 130.598 354.513C131.423 354.435 130.952 352.235 130.088 352.313Z" fill="white"/>
<path d="M129.105 346.734C126.551 346.734 124.155 347.598 124.155 347.598L124.94 349.759C124.94 349.759 127.062 349.131 129.459 348.934C130.284 348.816 129.93 346.734 129.105 346.734Z" fill="white"/>
<path fill-rule="evenodd" clip-rule="evenodd" d="M113.036 324.299L92.4873 329.761C96.2198 355.495 99.2844 366.771 99.2844 366.771C99.2844 366.771 105.689 383.901 109.028 383.234C113.114 382.408 116.257 364.846 116.257 364.846L113.036 324.299Z" fill="#E05C57"/>
<path fill-rule="evenodd" clip-rule="evenodd" d="M92.4089 328.543L112.918 321.785L113.861 334.004C109.814 334.79 97.713 337.422 94.3341 340.88C93.6662 336.833 92.9983 332.708 92.4089 328.543Z" fill="black"/>
<path fill-rule="evenodd" clip-rule="evenodd" d="M109.028 382.487C105.689 383.195 102.153 379.816 102.153 379.816C102.153 379.816 100.935 374.708 99.2454 366.732C100.503 367.361 103.921 367.518 107.889 367.047C111.818 366.575 115.079 365.671 116.218 364.807L117.161 376.712C117.201 376.751 113.115 381.662 109.028 382.487Z" fill="white"/>
<path fill-rule="evenodd" clip-rule="evenodd" d="M153.347 385.866C153.347 385.866 150.125 397.181 140.735 397.181C126.866 397.181 96.8879 397.181 96.8879 397.181L100.228 375.651C107.064 375.179 111.739 377.458 115.315 379.03C115.354 372.704 120.737 371.643 120.737 371.643L121.483 376.829L136.531 379.855L138.574 380.601L153.347 385.866Z" fill="white"/>
<path fill-rule="evenodd" clip-rule="evenodd" d="M140.735 394.549C135.745 394.549 128.673 394.549 121.68 394.549C122.308 392.585 124.705 388.381 133.742 388.381C140.107 388.381 144.389 388.97 145.646 387.084C146.393 385.984 145.293 385.238 140.774 383.941C136.728 382.762 137.238 380.955 138.574 380.602L153.347 385.866C153.347 385.866 150.125 394.549 140.735 394.549ZM99.1276 382.527C104.117 382.645 108.479 386.574 109.225 391.917C109.343 392.821 109.382 393.685 109.304 394.51C102.31 394.51 97.3203 394.51 97.3203 394.51L99.1276 382.527ZM134.92 384.491L114.333 378.912L99.9527 377.34L100.621 373.294C107.457 372.822 111.779 375.101 115.354 376.673C115.393 370.347 120.776 369.286 120.776 369.286L121.523 374.472L136.571 379.855L134.92 384.491Z" fill="#F28E22"/>
<path fill-rule="evenodd" clip-rule="evenodd" d="M133.82 382.802L131.541 382.252L133.466 378.755L135.667 379.541L133.82 382.802ZM123.251 375.101L125.451 375.887L122.976 380.169L120.697 379.619L123.251 375.101ZM128.28 376.908L130.48 377.694L128.359 381.505L126.041 380.916L128.28 376.908Z" fill="white"/>
<path fill-rule="evenodd" clip-rule="evenodd" d="M165.055 165.256L159.673 165.413C154.172 165.57 149.064 162.466 146.668 157.516L137.552 138.775L146.825 113.59L164.269 148.519L165.291 148.597L165.055 165.256Z" fill="#E05C57"/>
<path fill-rule="evenodd" clip-rule="evenodd" d="M86.5939 76.1474C86.5939 76.1474 87.4975 77.0117 87.5761 77.7189C87.8511 79.9192 85.8081 83.966 83.7257 88.5236C80.9362 94.5741 77.4394 98.9353 75.8678 98.1888C74.2963 97.4816 75.2785 91.981 78.0681 85.9304C80.5826 80.3906 85.5723 75.9116 85.5723 75.9116L86.5939 76.1474Z" fill="black"/>
<path fill-rule="evenodd" clip-rule="evenodd" d="M146.982 140.071C141.246 142.625 136.059 142.742 136.059 142.742L135.863 142.389C131.856 149.815 127.809 157.162 127.809 157.162L88.3227 138.696L88.4406 105.417C88.4406 105.417 83.1758 102.431 76.5359 98.4239C76.6145 98.3453 76.6931 98.2274 76.8109 98.1488C78.5789 97.4809 81.4471 93.6305 83.8044 88.4836C86.2011 83.2188 87.4191 77.9147 86.6726 76.1074L115.354 89.1123C115.354 89.1123 116.297 103.924 126.001 107.068C134.763 109.896 135.627 98.9346 135.627 98.9346C135.627 98.9346 137.71 99.8383 140.263 101.763C142.189 103.217 144.703 105.928 144.703 105.928L156.569 132.763C156.451 132.763 153.425 137.203 146.982 140.071Z" fill="white"/>
<path d="M88.5583 105.653L92.6445 108.011" stroke="black" stroke-width="0.78579" stroke-miterlimit="10" stroke-linecap="round"/>
<path fill-rule="evenodd" clip-rule="evenodd" d="M88.4015 106.361C85.7691 111.626 80.8187 123.57 84.8655 132.685C85.6513 134.414 86.83 135.278 88.2837 135.553L88.4015 106.361Z" fill="black"/>
<path fill-rule="evenodd" clip-rule="evenodd" d="M137.906 180.146C140.421 189.772 161.598 247.37 162.344 261.672C163.091 275.973 157.158 293.536 157.158 293.536C157.158 293.536 154.84 305.833 145.175 306.226C130.991 306.816 125.687 288.86 125.687 288.86L128.241 270.905L115.158 233.069L120.462 321.942C120.462 321.942 118.419 327.56 106.75 330.704C92.4483 334.554 87.6157 332.864 87.6157 332.864C87.6157 332.864 75.8288 226.861 74.4144 194.487C73 162.112 83.726 157.712 83.726 157.712L83.3331 125.102C83.726 131.309 87.2228 132.292 90.641 131.113C98.5382 128.441 106.239 113 106.239 113C114.45 91.5483 107.693 86.0478 105.689 84.7905L111.072 87.1479C111.072 87.1479 121.169 91.1161 112.8 114.454L145.057 121.644L130.952 162.584C130.991 162.584 135.392 170.52 137.906 180.146Z" fill="#7165E3"/>
<path fill-rule="evenodd" clip-rule="evenodd" d="M141.128 133.981C152.836 106.243 141.364 101.764 141.364 101.764L135.47 98.9351C135.47 98.9351 146.943 103.139 135.235 130.877C125.137 154.765 131.031 157.909 141.128 133.981Z" fill="#7165E3"/>
<path fill-rule="evenodd" clip-rule="evenodd" d="M116.297 200.852C116.297 200.852 117.436 208.002 119.99 213.267C122.505 218.532 127.18 230.712 124.744 237.037C122.348 243.402 119.047 244.266 119.047 244.266L115.511 234.012L116.297 200.852Z" fill="black"/>
<path d="M115.275 234.012L116.1 186.55" stroke="black" stroke-width="0.78579" stroke-miterlimit="10" stroke-linecap="round"/>
<path fill-rule="evenodd" clip-rule="evenodd" d="M112.564 125.416C112.564 125.416 118.261 129.895 127.848 131.113C134.802 131.977 134.881 129.895 134.881 129.895L112.564 125.416Z" fill="black"/>
<path fill-rule="evenodd" clip-rule="evenodd" d="M112.25 124.983L135.352 129.777L130.284 146.003L116.494 150.129L107.182 141.21L112.25 124.983Z" stroke="black" stroke-width="0.78579" stroke-miterlimit="10" stroke-linecap="round"/>
<path d="M131.07 162.662C130.362 168.084 119.715 171.07 106.592 169.341C93.4696 167.613 83.7651 161.994 84.4723 156.572" stroke="black" stroke-width="0.78579" stroke-miterlimit="10" stroke-linecap="round"/>
<path d="M95.1201 166.552C95.1201 166.552 93.5092 175.942 90.4446 181.993C87.1836 188.436 80.4258 187.494 80.4258 187.494" stroke="black" stroke-width="0.78579" stroke-miterlimit="10" stroke-linecap="round"/>
<path fill-rule="evenodd" clip-rule="evenodd" d="M102.86 320.881C92.5267 322.964 83.608 321.785 82.8615 318.249C82.5865 316.874 83.608 315.302 85.6118 313.809L85.8475 316.324C85.8082 316.599 85.8082 316.834 85.8475 317.07C86.5154 320.253 94.5698 321.353 103.921 319.428C113.232 317.542 120.265 313.416 119.637 310.194C119.637 310.116 119.597 310.077 119.558 309.998L119.519 309.409C119.872 309.762 120.108 310.194 120.187 310.627C120.933 314.202 113.154 318.799 102.86 320.881Z" fill="black"/>
<path fill-rule="evenodd" clip-rule="evenodd" d="M131.659 288.782C137.435 297.072 147.414 300.097 153.976 295.54C156.019 294.125 157.472 292.121 158.337 289.803C158.494 294.007 156.687 297.779 152.679 300.687C145.921 305.598 135.117 304.419 129.066 295.736C123.919 288.31 123.644 279.274 127.927 273.812C127.141 278.527 128.359 283.988 131.659 288.782Z" fill="black"/>
<path fill-rule="evenodd" clip-rule="evenodd" d="M130.874 290.864C136.924 299.547 147.375 302.69 154.251 297.936C156.176 296.6 157.63 294.793 158.533 292.671L158.612 292.711L153.897 302.769C152.994 305.44 151.422 307.719 149.104 309.33C142.228 314.123 131.777 310.941 125.727 302.258C121.091 295.618 120.423 287.681 123.409 282.181L127.023 274.952L127.22 275.07C125.687 280.256 126.984 285.246 130.874 290.864Z" fill="#6879BA"/>
<path fill-rule="evenodd" clip-rule="evenodd" d="M120.972 324.653C120.972 327.953 113.782 332.039 104.353 333.925C95.0018 335.811 86.8296 334.907 85.4545 331.921C85.3759 331.921 85.3759 331.882 85.3759 331.882L82.9399 319.074C83.0578 319.113 83.1757 319.113 83.2543 319.152C85.2187 321.942 93.4695 322.767 102.82 320.842C113.154 318.759 120.933 314.202 120.186 310.627C120.108 310.312 119.99 310.037 119.793 309.762C120.029 309.369 120.186 309.173 120.186 309.173L121.011 324.535C121.051 324.574 121.011 324.614 120.972 324.653Z" fill="#6879BA"/>
<path d="M87.1833 163.016C87.1833 163.016 80.0326 171.11 80.9756 185.333C82.7043 211.735 86.4761 255.15 94.2554 334.986" stroke="black" stroke-width="0.78579" stroke-miterlimit="10" stroke-linecap="round"/>
<path d="M123.605 298.172L136.767 271.298L116.14 211.578" stroke="black" stroke-width="0.78579" stroke-miterlimit="10" stroke-linecap="round"/>
<path fill-rule="evenodd" clip-rule="evenodd" d="M82.9796 87.6978C85.4155 82.3544 86.4763 77.4432 85.612 75.8717L66.5958 68.3281L62.3919 34.5391C62.3919 34.5391 64.2778 32.9282 64.4742 29.51C64.6707 26.0919 65.1028 13.2049 64.8278 11.594C64.5135 9.98316 62.4704 11.1618 61.9597 15.6016C60.9382 24.3631 58.2272 17.6839 58.2272 17.6839C58.2272 17.6839 53.866 6.36852 52.8052 3.61826C51.3515 -0.114245 49.2299 -0.035666 50.055 3.42181C51.2336 8.49016 52.7659 15.2087 52.7659 15.2087C52.7659 15.2087 47.5011 3.61826 46.0867 0.946571C45.2616 -0.58572 43.5329 -0.0749541 43.6115 1.18231C43.6508 1.9681 43.7686 2.7146 43.7686 2.7146C43.7686 2.7146 43.3757 2.24313 42.9436 2.20384C42.2756 2.16455 41.5291 2.7146 41.8827 4.2076C42.4328 6.72213 46.1653 18.9805 46.1653 18.9805C46.1653 18.9805 43.3365 15.0908 41.2934 11.8691C38.5431 7.54721 36.8537 8.56874 37.9538 11.3583C39.0932 14.1478 48.1298 34.2641 49.4656 35.8749C49.7014 42.0041 50.5264 70.3318 50.5264 70.3318C50.6443 75.243 53.316 79.722 57.5593 82.1973L79.0506 94.4949C80.3472 92.8054 81.7223 90.4088 82.9796 87.6978Z" fill="#E05C57"/>
<path d="M46.0474 21.2991C46.0474 21.2991 49.8191 16.9773 54.9268 16.3486" stroke="black" stroke-width="0.78579" stroke-miterlimit="10" stroke-linecap="round"/>
<path d="M44.9473 4.83643L50.0156 17.6841" stroke="black" stroke-width="0.78579" stroke-miterlimit="10" stroke-linecap="round"/>
<path d="M60.3092 20.8667C60.3092 20.8667 54.4551 24.0099 55.7517 30.3748" stroke="black" stroke-width="0.78579" stroke-miterlimit="10" stroke-linecap="round"/>
<path fill-rule="evenodd" clip-rule="evenodd" d="M149.968 78.7004C147.532 83.9651 142.149 87.6191 135.941 87.6191C129.891 87.6191 124.626 84.1616 122.112 79.1325C116.69 74.9679 113.193 68.4065 113.193 60.9808C113.193 48.4081 123.29 38.1929 135.784 38.1929C148.278 38.1929 158.376 48.4081 158.376 60.9808C158.337 68.1315 155.075 74.5357 149.968 78.7004Z" fill="black"/>
<path fill-rule="evenodd" clip-rule="evenodd" d="M141.717 71.9426C141.442 71.039 140.735 70.3318 139.753 70.1353C139.478 70.096 139.124 70.0567 138.849 70.096L140.263 63.7704C139.32 47.976 122.544 49.5869 119.715 54.0659C119.715 54.0659 117.751 56.4233 117.161 60.4308C117.161 60.5487 117.122 60.6665 117.083 60.7844C117.004 61.138 116.925 61.4523 116.886 61.8059C116.768 62.4346 116.611 63.0632 116.454 63.6525C115.982 62.2774 116.493 59.5271 116.493 58.0341C116.493 49.8619 123.33 44.5186 132.681 44.5186C142.071 44.5186 149.654 51.1585 149.654 59.2914C149.732 64.5955 146.118 68.2101 141.717 71.9426Z" fill="#5766AC"/>
<path fill-rule="evenodd" clip-rule="evenodd" d="M119.204 82.6295L117.593 90.4874L115.315 89.1123C115.511 91.1946 117.043 104.199 125.962 107.068C134.724 109.896 135.588 98.9346 135.588 98.9346C135.588 98.9346 135.588 98.9346 135.627 98.9346L133.152 97.7559L138.024 74.7323C138.26 74.8502 138.495 74.968 138.81 75.0073C140.185 75.2823 141.56 74.3787 141.835 73.0036C142.11 71.5891 141.206 70.2533 139.831 69.9783C139.556 69.939 139.32 69.8997 139.045 69.939L140.381 63.6919C139.438 47.8976 122.662 49.5084 119.833 53.9874C119.833 53.9874 117.868 56.3448 117.279 60.3523C115.865 68.9567 110.207 76.5396 119.204 82.6295Z" fill="#E05C57"/>
<path fill-rule="evenodd" clip-rule="evenodd" d="M117.2 55.7164C117.2 55.7164 118.458 58.6238 123.683 58.7417C130.362 58.8989 135.156 55.6378 135.156 55.6378L139.438 68.014C139.438 68.014 144.153 62.317 142.228 56.6594C140.656 52.0232 136.217 53.5555 136.217 53.5555C136.217 53.5555 136.492 47.7406 130.323 46.9941C120.894 45.8155 119.401 54.1841 119.401 54.1841C119.401 54.1841 119.008 55.9522 117.2 55.7164Z" fill="black"/>
<path fill-rule="evenodd" clip-rule="evenodd" d="M117.947 88.7585L119.204 82.6294C119.754 82.7865 120.422 83.1401 120.579 83.1794C122.19 83.7295 128.87 84.9867 136.217 78.0718C134.095 84.5153 124.98 89.3086 117.947 88.7585Z" fill="black"/>
<path fill-rule="evenodd" clip-rule="evenodd" d="M127.887 73.0435C127.887 73.0827 127.887 73.0827 127.887 73.0435C128.202 74.9294 126.905 76.6974 125.058 76.9724C123.172 77.2867 121.444 75.9902 121.129 74.1436C121.129 74.1436 121.129 74.1436 121.129 74.1043L127.887 73.0435Z" fill="white"/>
<path d="M139.124 72.9252L140.421 72.1787" stroke="black" stroke-width="0.78579" stroke-miterlimit="10" stroke-linecap="round"/>
<path d="M125.609 63.6923C125.648 63.653 125.609 66.7961 123.33 68.5642C120.383 70.8429 123.919 72.1002 123.919 72.1002" stroke="black" stroke-width="0.78579" stroke-miterlimit="10" stroke-linecap="round"/>
<path d="M122.073 63.1421H119.872" stroke="black" stroke-width="0.78579" stroke-miterlimit="10" stroke-linecap="round"/>
<path d="M130.244 64.8315L132.287 65.6566" stroke="black" stroke-width="0.78579" stroke-miterlimit="10" stroke-linecap="round"/>
<path fill-rule="evenodd" clip-rule="evenodd" d="M120.933 64.4782C121.483 64.596 121.837 65.1068 121.758 65.6568C121.64 66.2069 121.13 66.5605 120.58 66.4819C120.03 66.364 119.676 65.8533 119.755 65.3032C119.872 64.7139 120.383 64.3603 120.933 64.4782Z" fill="black"/>
<path fill-rule="evenodd" clip-rule="evenodd" d="M130.363 66.4033C130.913 66.5212 131.266 67.0319 131.188 67.582C131.07 68.132 130.559 68.4856 130.009 68.4071C129.459 68.2892 129.105 67.7784 129.184 67.2284C129.263 66.6783 129.813 66.2854 130.363 66.4033Z" fill="black"/>
<path d="M160.851 40.0005C160.851 40.0005 163.601 48.2513 156.411 53.6339" stroke="black" stroke-width="0.78579" stroke-miterlimit="10" stroke-linecap="round"/>
<path d="M144.625 42.0831C144.625 42.0831 149.929 36.7397 154.879 40.7472C160.419 45.187 155.783 52.8091 155.783 52.8091" stroke="black" stroke-width="0.78579" stroke-miterlimit="10" stroke-linecap="round"/>
<path fill-rule="evenodd" clip-rule="evenodd" d="M0 80.0757L8.64369 76.7754L17.0124 87.8943L0 80.0757Z" fill="#7165E3"/>
<path fill-rule="evenodd" clip-rule="evenodd" d="M253.339 27.4673L262.179 31.1212L248.153 40.4721L253.339 27.4673Z" fill="#7165E3"/>
<path fill-rule="evenodd" clip-rule="evenodd" d="M443.539 73.1999C447.075 71.7461 450.297 71.3532 450.69 72.2962C451.083 73.2391 448.529 75.2036 444.954 76.6573C441.418 78.111 438.196 78.5039 437.803 77.561C437.41 76.5788 439.964 74.6536 443.539 73.1999Z" fill="#7165E3"/>
<path fill-rule="evenodd" clip-rule="evenodd" d="M157.197 11.1223L162.973 9.98291L156.804 16.8586L151.029 17.998L157.197 11.1223Z" fill="#F28E22"/>
<path fill-rule="evenodd" clip-rule="evenodd" d="M481.296 142.506L486.247 145.728L477.053 146.357L472.103 143.135L481.296 142.506Z" fill="#F28E22"/>
<path fill-rule="evenodd" clip-rule="evenodd" d="M28.4847 145.335L34.2996 146.239L26.1666 150.6L20.3125 149.697L28.4847 145.335Z" fill="#F28E22"/>
<path fill-rule="evenodd" clip-rule="evenodd" d="M320.052 34.6175C321.938 35.5211 323.038 37.2499 322.449 38.4285C321.86 39.6072 319.856 39.843 317.97 38.9393C316.084 38.0356 314.984 36.3069 315.573 35.1282C316.163 33.9103 318.167 33.7138 320.052 34.6175Z" fill="#F28E22"/>
<path fill-rule="evenodd" clip-rule="evenodd" d="M40.3504 110.524C42.865 111.546 44.358 113.785 43.6507 115.514C42.9435 117.282 40.3504 117.872 37.7966 116.889C35.2821 115.868 33.7891 113.628 34.4963 111.9C35.2035 110.132 37.8359 109.542 40.3504 110.524Z" fill="#C94540"/>
<path fill-rule="evenodd" clip-rule="evenodd" d="M250.274 57.3269C252.828 56.4232 255.421 57.1304 256.05 58.8985C256.678 60.6665 255.107 62.8667 252.553 63.7704C249.999 64.674 247.406 63.9668 246.777 62.1988C246.149 60.4308 247.72 58.2306 250.274 57.3269Z" fill="#C94540"/>
<path fill-rule="evenodd" clip-rule="evenodd" d="M424.641 58.623C426.134 58.623 427.352 59.841 427.352 61.334C427.352 62.827 426.134 64.045 424.641 64.045C423.148 64.045 421.93 62.827 421.93 61.334C421.93 59.841 423.148 58.623 424.641 58.623Z" fill="#C94540"/>
<path fill-rule="evenodd" clip-rule="evenodd" d="M83.5295 140.267L81.4471 141.603C79.9148 142.585 78.9326 144.275 78.854 146.082L78.304 156.061C78.2647 157.083 78.6969 158.065 79.522 158.694L87.5763 164.941C87.5763 164.941 88.4014 164.627 88.48 163.487C88.5193 162.544 88.2442 161.758 88.2442 161.758C88.2442 161.758 89.03 161.366 89.1479 160.462C89.3443 159.047 88.6371 158.262 88.6371 158.262C88.6371 158.262 89.3443 158.183 89.4622 156.572C89.5015 156.219 89.5015 155.354 89.1872 154.608C89.973 151.582 87.8513 150.011 86.7512 148.95L83.6866 146.003L83.5295 140.267Z" fill="#F9C19E"/>
<path d="M78.5003 152.722C78.461 153.744 79.011 154.726 79.8361 155.355L88.1262 161.759" stroke="black" stroke-width="0.78579" stroke-miterlimit="10" stroke-linecap="round" stroke-linejoin="round"/>
<path d="M78.6967 149.068C78.6574 150.089 79.4825 151.229 80.3075 151.857L88.6762 158.301" stroke="black" stroke-width="0.78579" stroke-miterlimit="10" stroke-linecap="round" stroke-linejoin="round"/>
<path d="M79.0896 145.257C79.0503 146.278 79.4825 147.261 80.3076 147.889L89.1477 154.726" stroke="black" stroke-width="0.78579" stroke-miterlimit="10" stroke-linecap="round" stroke-linejoin="round"/>
<defs>
<linearGradient id="paint0_linear_1416_420" x1="284.183" y1="93.0956" x2="284.183" y2="60.4963" gradientUnits="userSpaceOnUse">
<stop offset="0.1576" stop-color="#475AA5"/>
<stop offset="0.684" stop-color="#010202"/>
</linearGradient>
</defs>
</svg>
