
    <svg
      width="32"
      height="35"
      viewBox="0 0 32 35"
      fill="none"
      xmlns="http://www.w3.org/2000/svg"
    >
      <g clip-path="url(#clip0_4604_782)">
        <path
          d="M21.4537 34.1347L2.81526 29.0513C1.15181 28.5971 0 27.1026 0 25.3985V23.7854L24.5618 17.2124L27.578 28.0967C28.5979 31.7747 25.1748 35.1499 21.4537 34.1347Z"
          fill="url(#paint0_linear_4604_782)"
        />
        <path
          d="M24.389 21.5486L2.3479 27.447C1.16458 27.7633 0 26.8827 0 25.6715V10.0587C0 7.51197 1.7273 5.28145 4.21481 4.61617L20.4943 0.259425C25.2293 -1.00723 29.8893 2.51518 29.8893 7.36142V14.4458C29.8893 17.7688 27.635 20.6798 24.389 21.5486Z"
          fill="#7165E3"
        />
      </g>
      <g clip-path="url(#clip1_4604_782)">
        <path
          d="M67.2788 13.7074C67.2788 15.51 66.8663 17.1173 66.0424 18.529C65.2185 19.9408 64.0884 21.0017 62.6521 21.714L64.6516 25.35C65.7046 27.2645 64.3303 29.6135 62.1589 29.6135C61.1328 29.6135 60.185 29.0578 59.679 28.1582L56.6135 22.7101H53.6112V26.7417C53.6112 28.3277 52.335 29.6135 50.7608 29.6135H50.7398C49.1656 29.6123 47.8894 28.3266 47.8894 26.7405V7.58463C47.8894 5.9939 49.1691 4.70459 50.748 4.70459H58.4145C60.9809 4.70459 63.0997 5.55235 64.772 7.24906C66.4432 8.94458 67.2788 11.0981 67.2788 13.7074ZM53.6112 9.40143V18.0121H57.5309C58.6844 18.0121 59.6322 17.6094 60.3743 16.8017C61.1164 15.9951 61.4869 14.9637 61.4869 13.7062C61.4869 12.4487 61.1164 11.4172 60.3743 10.6107C59.6322 9.80412 58.6844 9.40026 57.5309 9.40026H53.6112V9.40143Z"
          fill="#7165E3"
        />
        <path
          d="M73.9765 9.17654C73.4774 9.67931 72.8487 9.93128 72.0902 9.93128C71.3317 9.93128 70.7077 9.67931 70.218 9.17654C69.7283 8.67377 69.4829 8.05914 69.4829 7.33266C69.4829 6.58733 69.7283 5.96328 70.218 5.46051C70.7077 4.95656 71.3317 4.70459 72.0902 4.70459C72.8487 4.70459 73.4774 4.96127 73.9765 5.47346C74.4755 5.98565 74.7256 6.60499 74.7256 7.33148C74.7256 8.05796 74.4755 8.67259 73.9765 9.17654Z"
          fill="#7165E3"
        />
        <path
          d="M69.4888 26.9394V14.5385C69.4888 13.062 70.6761 11.8657 72.1417 11.8657C73.6072 11.8657 74.7945 13.062 74.7945 14.5385V26.9406C74.7945 28.4171 73.6072 29.6134 72.1417 29.6134C70.6761 29.6122 69.4888 28.4159 69.4888 26.9394Z"
          fill="#7165E3"
        />
        <path
          d="M92.7055 4.70459H92.7406C94.1956 4.70459 95.3759 5.89381 95.3759 7.35974V26.9572C95.3759 28.4231 94.1956 29.6123 92.7406 29.6123C91.2856 29.6123 90.1052 28.4231 90.1052 26.9572V26.7829C89.6424 27.6213 88.9319 28.303 87.9724 28.827C87.0129 29.3509 85.9553 29.6123 84.7995 29.6123C82.3721 29.6123 80.4532 28.7858 79.0438 27.1315C77.6332 25.4783 76.9285 23.3471 76.9285 20.7391C76.9285 18.177 77.6566 16.0576 79.1127 14.3809C80.5689 12.7042 82.4878 11.8658 84.8684 11.8658C86.0476 11.8658 87.0994 12.1225 88.0238 12.6347C88.9482 13.1469 89.6413 13.8463 90.1041 14.7306V13.2976H90.069V7.35974C90.0713 5.89381 91.2505 4.70459 92.7055 4.70459ZM86.3258 25.1757C87.5973 25.1757 88.5801 24.7565 89.2731 23.9182C89.9662 23.0799 90.3133 22.0201 90.3133 20.7391C90.3133 19.4816 89.9662 18.4336 89.2731 17.5953C88.5801 16.757 87.5973 16.3378 86.3258 16.3378C85.1232 16.3378 84.159 16.7452 83.431 17.56C82.7029 18.3759 82.3382 19.4345 82.3382 20.7391C82.3382 22.0437 82.7029 23.1093 83.431 23.9359C84.159 24.7624 85.1244 25.1757 86.3258 25.1757Z"
          fill="#7165E3"
        />
        <path
          d="M103.03 9.17654C102.531 9.67931 101.902 9.93128 101.143 9.93128C100.385 9.93128 99.7609 9.67931 99.2712 9.17654C98.7816 8.67377 98.5361 8.05914 98.5361 7.33266C98.5361 6.58733 98.7816 5.96328 99.2712 5.46051C99.7609 4.95656 100.385 4.70459 101.143 4.70459C101.902 4.70459 102.531 4.96127 103.03 5.47346C103.529 5.98565 103.779 6.60499 103.779 7.33148C103.779 8.05796 103.529 8.67259 103.03 9.17654Z"
          fill="#7165E3"
        />
        <path
          d="M98.5044 26.9394V14.5385C98.5044 13.062 99.6918 11.8657 101.157 11.8657C102.623 11.8657 103.81 13.062 103.81 14.5385V26.9406C103.81 28.4171 102.623 29.6134 101.157 29.6134C99.6929 29.6122 98.5044 28.4159 98.5044 26.9394Z"
          fill="#7165E3"
        />
        <path
          d="M106.649 26.9394V14.5385C106.649 13.062 107.836 11.8657 109.302 11.8657C110.767 11.8657 111.955 13.062 111.955 14.5385V14.7658C112.324 13.9039 112.931 13.2057 113.775 12.6699C114.619 12.1342 115.607 11.8669 116.74 11.8669C119.376 11.8669 121.121 12.9031 121.976 14.9754C122.438 14.044 123.144 13.2928 124.091 12.7217C125.039 12.1507 126.114 11.8657 127.316 11.8657C131.268 11.8657 133.244 14.1488 133.244 18.7126V26.9394C133.244 28.4159 132.057 29.6122 130.591 29.6122H130.556C129.091 29.6122 127.904 28.4159 127.904 26.9394V19.691C127.904 17.4786 127.071 16.3718 125.407 16.3718C123.535 16.3718 122.599 17.7459 122.599 20.4941V26.9394C122.599 28.4159 121.412 29.6122 119.946 29.6122H119.911C118.445 29.6122 117.258 28.4159 117.258 26.9394V19.6557C117.258 17.4668 116.438 16.3718 114.796 16.3718C113.871 16.3718 113.167 16.6803 112.68 17.2973C112.195 17.9143 111.952 18.9799 111.952 20.4941V26.9394C111.952 28.4159 110.765 29.6122 109.299 29.6122C107.836 29.6122 106.649 28.4159 106.649 26.9394Z"
          fill="#7165E3"
        />
        <path
          d="M143.586 29.6122C141.159 29.6122 139.24 28.7857 137.83 27.1313C136.42 25.4782 135.715 23.347 135.715 20.739C135.715 18.1768 136.443 16.0574 137.899 14.3808C139.355 12.7041 141.274 11.8657 143.655 11.8657C144.834 11.8657 145.886 12.1224 146.81 12.6346C147.735 13.1468 148.428 13.8462 148.891 14.7305V14.5209C148.891 13.0549 150.071 11.8657 151.526 11.8657C152.981 11.8657 154.161 13.0549 154.161 14.5209V26.9571C154.161 28.423 152.981 29.6122 151.526 29.6122C150.071 29.6122 148.891 28.423 148.891 26.9571V26.7828C148.428 27.6212 147.717 28.3029 146.758 28.8269C145.8 29.3508 144.742 29.6122 143.586 29.6122ZM145.112 25.1756C146.384 25.1756 147.367 24.7564 148.06 23.9181C148.753 23.0797 149.1 22.02 149.1 20.739C149.1 19.4815 148.753 18.4335 148.06 17.5952C147.367 16.7568 146.384 16.3377 145.112 16.3377C143.91 16.3377 142.946 16.7451 142.218 17.5599C141.489 18.3758 141.125 19.4344 141.125 20.739C141.125 22.0436 141.489 23.1092 142.218 23.9358C142.946 24.7623 143.91 25.1756 145.112 25.1756Z"
          fill="#7165E3"
        />
      </g>
      <defs>
        <linearGradient
          id="paint0_linear_4604_782"
          x1="18.8192"
          y1="34.317"
          x2="15.4982"
          y2="21.3096"
          gradientUnits="userSpaceOnUse"
        >
          <stop stop-color="#7165E3" />
          <stop offset="0.3035" stop-color="#6D63E3" />
          <stop offset="0.5782" stop-color="#625DE3" />
          <stop offset="0.841" stop-color="#5053E3" />
          <stop offset="1" stop-color="#414BE3" />
        </linearGradient>
        <clipPath id="clip0_4604_782">
          <rect width="29.8893" height="34.3173" fill="white" />
        </clipPath>
        <clipPath id="clip1_4604_782">
          <rect
            width="106.273"
            height="24.9077"
            fill="white"
            transform="translate(47.8894 4.70459)"
          />
        </clipPath>
      </defs>
    </svg>
