<svg width="155" height="35" viewBox="0 0 155 35" fill="none" xmlns="http://www.w3.org/2000/svg">
<g clip-path="url(#clip0_2012_19001)">
<path d="M21.4537 34.7007L2.81526 29.6172C1.15181 29.1631 0 27.6685 0 25.9645V24.3513L24.5618 17.7783L27.578 28.6626C28.5979 32.3406 25.1748 35.7158 21.4537 34.7007Z" fill="url(#paint0_linear_2012_19001)"/>
<path d="M24.389 22.1145L2.3479 28.0129C1.16458 28.3292 0 27.4486 0 26.2374V10.6247C0 8.07789 1.7273 5.84737 4.21481 5.18209L20.4943 0.825343C25.2293 -0.441309 29.8893 3.08109 29.8893 7.92734V15.0117C29.8893 18.3347 27.635 21.2457 24.389 22.1145Z" fill="#7165E3"/>
</g>
<g clip-path="url(#clip1_2012_19001)">
<path d="M67.2788 14.2733C67.2788 16.076 66.8663 17.6832 66.0424 19.0949C65.2185 20.5067 64.0884 21.5676 62.6521 22.2799L64.6516 25.9159C65.7046 27.8304 64.3303 30.1794 62.1589 30.1794C61.1328 30.1794 60.185 29.6237 59.679 28.7241L56.6135 23.2761H53.6112V27.3076C53.6112 28.8937 52.335 30.1794 50.7608 30.1794H50.7398C49.1656 30.1783 47.8894 28.8925 47.8894 27.3065V8.15055C47.8894 6.55981 49.1691 5.27051 50.748 5.27051H58.4145C60.9809 5.27051 63.0997 6.11827 64.772 7.81497C66.4432 9.5105 67.2788 11.6641 67.2788 14.2733ZM53.6112 9.96735V18.578H57.5309C58.6844 18.578 59.6322 18.1753 60.3743 17.3676C61.1164 16.5611 61.4869 15.5296 61.4869 14.2721C61.4869 13.0146 61.1164 11.9831 60.3743 11.1766C59.6322 10.37 58.6844 9.96617 57.5309 9.96617H53.6112V9.96735Z" fill="#7165E3"/>
<path d="M73.9765 9.74246C73.4774 10.2452 72.8487 10.4972 72.0902 10.4972C71.3317 10.4972 70.7077 10.2452 70.218 9.74246C69.7283 9.23969 69.4829 8.62506 69.4829 7.89857C69.4829 7.15325 69.7283 6.5292 70.218 6.02643C70.7077 5.52248 71.3317 5.27051 72.0902 5.27051C72.8487 5.27051 73.4774 5.52719 73.9765 6.03938C74.4755 6.55157 74.7256 7.17091 74.7256 7.8974C74.7256 8.62388 74.4755 9.23851 73.9765 9.74246Z" fill="#7165E3"/>
<path d="M69.4888 27.5053V15.1044C69.4888 13.6279 70.6761 12.4316 72.1417 12.4316C73.6072 12.4316 74.7945 13.6279 74.7945 15.1044V27.5065C74.7945 28.983 73.6072 30.1793 72.1417 30.1793C70.6761 30.1781 69.4888 28.9819 69.4888 27.5053Z" fill="#7165E3"/>
<path d="M92.7055 5.27051H92.7406C94.1956 5.27051 95.3759 6.45973 95.3759 7.92565V27.5231C95.3759 28.989 94.1956 30.1783 92.7406 30.1783C91.2856 30.1783 90.1052 28.989 90.1052 27.5231V27.3488C89.6424 28.1872 88.9319 28.8689 87.9724 29.3929C87.0129 29.9169 85.9553 30.1783 84.7995 30.1783C82.3721 30.1783 80.4532 29.3517 79.0438 27.6974C77.6332 26.0442 76.9285 23.9131 76.9285 21.305C76.9285 18.7429 77.6566 16.6235 79.1127 14.9468C80.5689 13.2701 82.4878 12.4318 84.8684 12.4318C86.0476 12.4318 87.0994 12.6884 88.0238 13.2006C88.9482 13.7128 89.6413 14.4122 90.1041 15.2965V13.8635H90.069V7.92565C90.0713 6.45973 91.2505 5.27051 92.7055 5.27051ZM86.3258 25.7416C87.5973 25.7416 88.5801 25.3225 89.2731 24.4841C89.9662 23.6458 90.3133 22.5861 90.3133 21.305C90.3133 20.0475 89.9662 18.9996 89.2731 18.1612C88.5801 17.3229 87.5973 16.9037 86.3258 16.9037C85.1232 16.9037 84.159 17.3111 83.431 18.1259C82.7029 18.9419 82.3382 20.0004 82.3382 21.305C82.3382 22.6096 82.7029 23.6752 83.431 24.5018C84.159 25.3283 85.1244 25.7416 86.3258 25.7416Z" fill="#7165E3"/>
<path d="M103.03 9.74246C102.531 10.2452 101.902 10.4972 101.143 10.4972C100.385 10.4972 99.7609 10.2452 99.2712 9.74246C98.7816 9.23969 98.5361 8.62506 98.5361 7.89857C98.5361 7.15325 98.7816 6.5292 99.2712 6.02643C99.7609 5.52248 100.385 5.27051 101.143 5.27051C101.902 5.27051 102.531 5.52719 103.03 6.03938C103.529 6.55157 103.779 7.17091 103.779 7.8974C103.779 8.62388 103.529 9.23851 103.03 9.74246Z" fill="#7165E3"/>
<path d="M98.5044 27.5053V15.1044C98.5044 13.6279 99.6918 12.4316 101.157 12.4316C102.623 12.4316 103.81 13.6279 103.81 15.1044V27.5065C103.81 28.983 102.623 30.1793 101.157 30.1793C99.6929 30.1781 98.5044 28.9819 98.5044 27.5053Z" fill="#7165E3"/>
<path d="M106.649 27.5053V15.1044C106.649 13.6279 107.836 12.4316 109.302 12.4316C110.767 12.4316 111.955 13.6279 111.955 15.1044V15.3317C112.324 14.4698 112.931 13.7716 113.775 13.2358C114.619 12.7001 115.607 12.4328 116.74 12.4328C119.376 12.4328 121.121 13.469 121.976 15.5413C122.438 14.6099 123.144 13.8587 124.091 13.2876C125.039 12.7166 126.114 12.4316 127.316 12.4316C131.268 12.4316 133.244 14.7147 133.244 19.2785V27.5053C133.244 28.9819 132.057 30.1782 130.591 30.1782H130.556C129.091 30.1782 127.904 28.9819 127.904 27.5053V20.257C127.904 18.0445 127.071 16.9377 125.407 16.9377C123.535 16.9377 122.599 18.3118 122.599 21.06V27.5053C122.599 28.9819 121.412 30.1782 119.946 30.1782H119.911C118.445 30.1782 117.258 28.9819 117.258 27.5053V20.2216C117.258 18.0328 116.438 16.9377 114.796 16.9377C113.871 16.9377 113.167 17.2462 112.68 17.8632C112.195 18.4802 111.952 19.5458 111.952 21.06V27.5053C111.952 28.9819 110.765 30.1782 109.299 30.1782C107.836 30.1782 106.649 28.9819 106.649 27.5053Z" fill="#7165E3"/>
<path d="M143.586 30.1782C141.159 30.1782 139.24 29.3516 137.83 27.6973C136.42 26.0441 135.715 23.9129 135.715 21.3049C135.715 18.7428 136.443 16.6234 137.899 14.9467C139.355 13.27 141.274 12.4316 143.655 12.4316C144.834 12.4316 145.886 12.6883 146.81 13.2005C147.735 13.7127 148.428 14.4121 148.891 15.2964V15.0868C148.891 13.6209 150.071 12.4316 151.526 12.4316C152.981 12.4316 154.161 13.6209 154.161 15.0868V27.523C154.161 28.9889 152.981 30.1782 151.526 30.1782C150.071 30.1782 148.891 28.9889 148.891 27.523V27.3487C148.428 28.1871 147.717 28.8688 146.758 29.3928C145.8 29.9168 144.742 30.1782 143.586 30.1782ZM145.112 25.7415C146.384 25.7415 147.367 25.3223 148.06 24.484C148.753 23.6457 149.1 22.586 149.1 21.3049C149.1 20.0474 148.753 18.9995 148.06 18.1611C147.367 17.3228 146.384 16.9036 145.112 16.9036C143.91 16.9036 142.946 17.311 142.218 18.1258C141.489 18.9418 141.125 20.0003 141.125 21.3049C141.125 22.6095 141.489 23.6751 142.218 24.5017C142.946 25.3282 143.91 25.7415 145.112 25.7415Z" fill="#7165E3"/>
</g>
<defs>
<linearGradient id="paint0_linear_2012_19001" x1="18.8192" y1="34.8829" x2="15.4982" y2="21.8756" gradientUnits="userSpaceOnUse">
<stop stop-color="#7165E3"/>
<stop offset="0.3035" stop-color="#6D63E3"/>
<stop offset="0.5782" stop-color="#625DE3"/>
<stop offset="0.841" stop-color="#5053E3"/>
<stop offset="1" stop-color="#414BE3"/>
</linearGradient>
<clipPath id="clip0_2012_19001">
<rect width="29.8893" height="34.3173" fill="white" transform="translate(0 0.565918)"/>
</clipPath>
<clipPath id="clip1_2012_19001">
<rect width="106.273" height="24.9077" fill="white" transform="translate(47.8894 5.27051)"/>
</clipPath>
</defs>
</svg>
