<svg width="29" height="22" viewBox="0 0 29 22" fill="none" xmlns="http://www.w3.org/2000/svg">
<path d="M15.8913 6.36726C15.8913 6.39502 15.8913 6.42278 15.8927 6.44884L11.8551 12.3141C11.2011 12.2844 10.5448 12.3991 9.92244 12.6554C9.65226 12.766 9.3935 12.9026 9.14984 13.0633L0.283888 9.41348C0.283888 9.41348 0.0788064 12.7886 0.933691 15.304L7.20142 17.8902C7.51613 19.2966 8.48092 20.5302 9.90431 21.1236C12.2331 22.0966 14.9183 20.9876 15.8871 18.6578C16.1392 18.0488 16.2567 17.41 16.2397 16.7727L22.0169 12.6441C22.0636 12.6455 22.1118 12.6469 22.1585 12.6469C25.6157 12.6469 28.4257 9.82846 28.4257 6.36726C28.4257 2.90577 25.6157 0.0898438 22.1585 0.0898438C18.7027 0.0898438 15.8913 2.90577 15.8913 6.36726ZM14.9226 18.2527C14.1728 20.0529 12.1041 20.9069 10.306 20.1577C9.47644 19.8121 8.85015 19.179 8.48885 18.4241L10.529 19.2696C11.8551 19.822 13.3765 19.1932 13.9278 17.8675C14.4807 16.5404 13.8534 15.0164 12.528 14.4641L10.419 13.5902C11.2328 13.2814 12.1579 13.2701 13.0223 13.6299C13.8938 13.9924 14.5699 14.6751 14.9282 15.5476C15.2866 16.42 15.2852 17.3831 14.9226 18.2527ZM22.1585 10.5508C19.857 10.5508 17.9832 8.67416 17.9832 6.36726C17.9832 4.0622 19.857 2.18501 22.1585 2.18501C24.4614 2.18501 26.3352 4.0622 26.3352 6.36726C26.3352 8.67416 24.4614 10.5508 22.1585 10.5508ZM19.0299 6.36088C19.0299 4.62547 20.4349 3.21793 22.1656 3.21793C23.8977 3.21793 25.3027 4.62547 25.3027 6.36088C25.3027 8.09644 23.8977 9.5027 22.1656 9.5027C20.4349 9.5027 19.0299 8.09644 19.0299 6.36088Z" fill="white"/>
</svg>
