<!-- <svg width="23" height="23" viewBox="0 0 23 23" fill="none" xmlns="http://www.w3.org/2000/svg">
<circle cx="11.8714" cy="11.2398" r="10.9649" fill="#21AD7E"/>
</svg> -->
<svg width="23" height="23" viewBox="0 0 23 23" fill="none" xmlns="http://www.w3.org/2000/svg">
<circle cx="11.8714" cy="11.2398" r="10.9649" fill="#21AD7E"/>
<path d="M17.1575 8.73859C16.6802 7.72694 15.9244 6.87744 14.9721 6.28141C13.6476 5.45474 12.0787 5.19212 10.5578 5.5438C9.03696 5.89319 7.74214 6.81578 6.91547 8.14028C6.08652 9.46478 5.8239 11.0313 6.17558 12.5545C6.52726 14.0754 7.44984 15.3702 8.77206 16.1969C9.70378 16.7792 10.7725 17.0875 11.8664 17.0875H11.9372C13.0264 17.0738 14.086 16.7587 15.0041 16.1786C15.2712 16.0096 15.3489 15.658 15.1799 15.3908C15.0109 15.1236 14.6592 15.046 14.392 15.2149C13.6544 15.6831 12.8004 15.9366 11.9235 15.948C11.0237 15.9594 10.1445 15.7105 9.37722 15.2332C8.31077 14.5664 7.56859 13.5251 7.2877 12.301C7.00682 11.077 7.21691 9.81646 7.88373 8.75001C9.25847 6.55088 12.1678 5.87949 14.3669 7.25423C15.1342 7.73379 15.7417 8.4166 16.1253 9.22957C16.4998 10.022 16.646 10.9012 16.5478 11.769C16.5135 12.0818 16.7373 12.365 17.0525 12.3992C17.3653 12.4335 17.6485 12.2097 17.6827 11.8946C17.8038 10.8144 17.6211 9.72283 17.1575 8.73859Z" fill="white"/>
<path d="M13.7603 9.25746L11.006 12.0118L9.98513 10.9909C9.76132 10.7671 9.40047 10.7671 9.17665 10.9909C8.95283 11.2147 8.95283 11.5756 9.17665 11.7994L10.6018 13.2245C10.7137 13.3364 10.8598 13.3912 11.006 13.3912C11.1522 13.3912 11.2983 13.3364 11.4103 13.2245L14.5665 10.0659C14.7903 9.84212 14.7903 9.48128 14.5665 9.25746C14.3427 9.03593 13.9819 9.03593 13.7603 9.25746Z" fill="white"/>
</svg>
